<?xml version="1.0" standalone="no"?>
<!DOCTYPE svg PUBLIC "-//W3C//DTD SVG 20010904//EN"
 "http://www.w3.org/TR/2001/REC-SVG-20010904/DTD/svg10.dtd">
<svg version="1.0" xmlns="http://www.w3.org/2000/svg"
 width="600.000000pt" height="481.000000pt" viewBox="0 0 600.000000 481.000000"
 preserveAspectRatio="xMidYMid meet">

<g transform="translate(0.000000,481.000000) scale(0.100000,-0.100000)"
fill="#000000" stroke="none">
<path d="M3065 4600 c-110 -9 -184 -25 -253 -56 -29 -13 -58 -24 -64 -24 -6 0
-29 -9 -52 -19 -23 -11 -59 -27 -81 -36 -74 -32 -97 -44 -144 -80 -46 -35
-206 -195 -266 -265 -17 -20 -63 -62 -103 -94 -39 -32 -72 -63 -72 -68 0 -5
-16 -25 -35 -44 -19 -18 -35 -38 -35 -43 0 -5 -3 -11 -7 -13 -11 -4 -83 -112
-83 -123 0 -8 -58 -103 -100 -166 -11 -16 -15 -31 -10 -40 9 -16 -53 -119 -71
-119 -5 0 -9 -7 -9 -15 0 -8 -5 -15 -11 -15 -5 0 -8 -4 -5 -9 3 -4 -3 -16 -14
-26 -11 -10 -17 -22 -14 -26 3 -5 0 -9 -6 -9 -6 0 -9 -4 -5 -9 3 -5 31 17 62
50 56 58 81 74 69 43 -3 -8 -2 -12 4 -9 6 3 10 2 10 -4 0 -5 -6 -12 -12 -14
-10 -4 -10 -6 0 -6 6 -1 12 -6 12 -12 0 -21 -43 -98 -52 -93 -4 3 -8 -2 -8
-10 0 -9 5 -16 11 -16 6 0 8 -9 3 -22 -4 -13 -8 -37 -10 -54 -1 -18 -8 -42
-15 -55 -12 -22 -15 -116 -6 -234 2 -31 -8 -35 -47 -19 -14 5 -17 4 -12 -4 9
-16 -7 -15 -22 0 -9 9 -12 7 -12 -10 0 -12 -6 -22 -13 -22 -22 0 -47 -39 -47
-74 0 -50 14 -81 62 -137 40 -45 60 -99 37 -99 -5 0 -9 -7 -9 -15 0 -9 6 -12
15 -9 8 4 15 1 15 -5 0 -6 -4 -11 -10 -11 -5 0 -10 -5 -10 -11 0 -7 9 -5 24 5
15 10 27 12 31 6 3 -6 1 -10 -4 -10 -6 0 -11 -4 -11 -10 0 -5 8 -10 18 -10 10
0 19 -7 19 -15 0 -8 -7 -15 -15 -15 -9 0 -12 -6 -8 -16 4 -9 1 -23 -5 -30 -7
-8 -13 -31 -15 -52 -3 -33 -2 -35 8 -15 6 13 15 23 20 23 4 0 8 4 8 10 0 5 -8
7 -17 4 -14 -5 -15 -4 -4 4 8 6 20 8 28 5 7 -3 16 2 19 11 3 9 10 16 15 16 14
0 -3 -34 -28 -53 -13 -10 -23 -24 -23 -30 0 -6 19 8 43 31 41 41 80 55 76 30
-1 -7 -1 -21 0 -32 1 -16 3 -17 19 -5 14 11 15 11 5 0 -7 -8 -10 -26 -7 -40 3
-14 1 -45 -4 -68 -7 -30 -7 -43 1 -43 8 0 8 -3 0 -11 -6 -6 -9 -18 -6 -25 3
-8 0 -14 -7 -14 -6 0 -8 -5 -5 -10 6 -10 -27 -72 -52 -98 -7 -7 -13 -18 -13
-23 0 -5 -6 -9 -14 -9 -8 0 -17 -12 -21 -27 -3 -15 -44 -65 -91 -111 -46 -47
-84 -91 -84 -98 0 -8 -21 -36 -47 -63 -63 -64 -76 -81 -63 -81 5 0 10 -4 10
-10 0 -5 -9 -10 -20 -10 -11 0 -20 -6 -20 -13 0 -7 -9 -22 -19 -34 -11 -11
-21 -33 -23 -49 -3 -31 -19 -54 -37 -54 -6 0 -11 -8 -10 -17 0 -11 3 -13 6 -5
5 13 23 17 23 4 0 -5 -8 -17 -19 -28 -15 -16 -18 -33 -15 -87 2 -41 -1 -65 -7
-62 -5 4 -9 -1 -9 -10 0 -11 5 -15 15 -11 8 3 15 1 15 -4 0 -6 -4 -10 -9 -10
-14 0 -13 -132 1 -142 10 -6 10 -8 1 -8 -7 0 -13 -4 -13 -10 0 -5 6 -10 14
-10 14 0 16 -36 3 -57 -7 -11 2 -50 35 -156 11 -37 18 -70 14 -74 -3 -3 -6 1
-6 10 0 9 -4 17 -9 17 -5 0 -12 16 -15 35 -4 19 -12 37 -18 41 -8 5 -9 1 -5
-10 4 -10 7 -33 7 -52 0 -26 3 -33 13 -28 7 5 6 1 -3 -10 -15 -19 -15 -89 1
-94 5 -2 9 -19 9 -38 0 -19 4 -34 9 -34 5 0 12 -8 14 -17 4 -14 5 -12 6 5 0
12 -3 22 -8 22 -5 0 -7 9 -4 20 7 28 14 19 23 -30 7 -36 5 -40 -14 -40 -20 -1
-20 -1 -2 -15 15 -11 16 -17 7 -28 -14 -18 23 -109 81 -202 21 -33 44 -72 52
-86 l15 -26 -68 -32 c-72 -34 -125 -78 -134 -111 -7 -26 14 -26 30 -1 16 26
94 77 126 83 21 4 27 1 27 -13 0 -11 -4 -19 -9 -19 -5 0 -12 -12 -16 -27 -3
-15 -12 -31 -18 -35 -7 -4 38 -8 100 -8 83 0 114 3 120 13 4 8 25 25 45 39 21
13 35 28 30 32 -4 4 -2 7 3 5 20 -4 86 31 79 43 -4 6 -3 8 4 5 5 -4 23 13 39
38 15 25 31 45 36 45 4 0 7 5 7 11 0 6 9 24 21 40 35 49 77 263 79 397 0 13 3
21 8 19 10 -7 9 475 -1 490 -4 7 -3 21 2 31 16 31 80 82 109 88 15 3 35 17 45
30 20 27 7 33 -17 8 -9 -8 -20 -14 -24 -12 -4 2 12 23 35 46 30 30 43 39 43
27 0 -29 60 40 76 90 15 42 18 45 50 45 23 0 34 5 34 15 0 9 -6 12 -17 9 -15
-5 -15 -3 2 10 30 25 40 14 38 -45 -2 -42 0 -49 7 -31 6 13 11 40 13 60 2 25
8 38 20 40 10 2 17 -3 17 -12 0 -9 3 -16 8 -16 4 0 6 58 4 129 -3 140 3 158
42 122 12 -12 28 -21 35 -21 7 0 -27 42 -76 94 -95 101 -147 178 -175 261 -47
140 -63 489 -25 564 9 19 17 48 17 65 0 17 7 43 14 58 8 15 11 30 6 33 -13 8
10 67 34 87 23 19 51 24 41 8 -3 -5 1 -10 10 -10 8 0 18 -7 21 -15 4 -8 15
-15 25 -15 12 0 16 5 13 15 -4 10 0 15 11 15 9 0 13 4 10 10 -7 12 27 20 85
19 69 -1 252 11 262 17 5 3 0 21 -11 40 -11 19 -16 34 -11 34 12 0 -9 39 -30
57 -49 43 -176 59 -246 33 -20 -8 -30 -8 -32 -1 -2 6 -8 9 -13 6 -5 -4 -6 1
-3 9 3 9 10 16 15 16 5 0 9 6 9 14 0 8 7 17 16 20 22 9 141 7 191 -3 52 -10
68 3 50 39 -10 19 -24 27 -61 34 -34 6 -50 14 -53 27 -3 10 -9 16 -14 13 -22
-13 -6 15 25 45 23 23 47 65 72 127 20 52 41 94 45 94 4 0 11 17 15 38 9 50
29 96 48 111 9 7 14 17 11 21 -3 5 -1 11 5 15 5 3 16 20 25 38 19 40 66 68
125 74 25 2 55 11 67 19 12 8 29 14 38 14 8 0 15 5 15 10 0 6 5 10 11 10 7 0
17 8 24 17 11 15 15 15 29 4 13 -11 16 -11 16 -1 0 8 3 11 6 8 3 -4 0 -16 -6
-28 -7 -12 -8 -20 -3 -18 67 36 86 40 137 28 28 -6 62 -12 76 -13 14 -2 39 -9
55 -16 17 -8 45 -20 64 -28 18 -8 36 -24 38 -34 3 -10 9 -19 14 -19 5 0 9 -10
10 -22 0 -13 3 -17 6 -10 7 19 23 14 23 -7 0 -11 5 -23 11 -27 8 -4 7 -9 -2
-15 -10 -6 -8 -9 7 -9 15 0 27 -12 39 -37 10 -21 35 -55 57 -76 21 -21 38 -44
38 -51 0 -7 9 -24 19 -38 11 -13 21 -40 23 -59 2 -19 8 -33 15 -32 14 3 24
-77 20 -162 -2 -35 3 -71 10 -86 7 -14 16 -40 19 -57 6 -28 4 -32 -14 -32 -11
0 -23 6 -25 13 -4 9 -6 9 -6 -1 -1 -7 10 -17 23 -21 13 -5 26 -17 30 -26 11
-31 6 -194 -8 -237 -8 -24 -16 -74 -19 -113 -3 -38 -9 -83 -13 -100 -4 -16 -6
-73 -4 -125 5 -187 1 -264 -20 -332 -25 -81 -97 -190 -166 -249 -82 -71 -104
-89 -108 -89 -1 0 -43 -25 -92 -55 -49 -30 -100 -60 -114 -66 -14 -6 -32 -15
-40 -20 -8 -5 -31 -16 -50 -25 -19 -9 -29 -18 -23 -21 14 -5 159 63 275 129
64 36 184 124 227 166 13 12 16 12 22 -5 11 -30 15 -204 5 -237 -7 -23 -6 -28
5 -22 8 4 6 1 -3 -7 -10 -8 -15 -17 -12 -20 3 -3 -3 -12 -15 -19 -27 -16 -27
-28 0 -28 19 0 20 -4 15 -33 -4 -22 -1 -40 9 -52 21 -29 18 -51 -11 -74 l-27
-21 32 0 c29 0 32 -3 26 -22 -22 -85 -28 -105 -35 -123 -5 -11 -11 -30 -13
-42 -4 -19 -2 -21 13 -13 29 15 31 13 25 -31 l-5 -40 32 22 c23 17 30 19 26 7
-4 -8 -2 -20 4 -26 8 -8 7 -16 -3 -28 -9 -11 -14 -44 -15 -94 0 -64 -6 -88
-31 -141 -17 -35 -36 -86 -42 -113 -7 -27 -23 -75 -37 -107 -13 -32 -24 -66
-24 -76 0 -10 -12 -43 -27 -73 -36 -76 -40 -104 -7 -57 14 21 28 36 31 33 7
-6 20 14 57 87 13 27 26 45 29 40 13 -20 18 -81 8 -87 -6 -4 -11 -16 -11 -27
0 -10 -4 -19 -8 -19 -5 0 -15 -11 -22 -25 -16 -29 -30 -33 -31 -7 0 14 -2 14
-9 -3 -6 -14 -9 -15 -10 -5 0 8 -7 2 -14 -15 -7 -16 -12 -33 -10 -37 5 -8 -39
-85 -49 -86 -9 -1 -44 -60 -84 -142 -28 -58 -46 -169 -24 -156 6 4 11 19 11
34 1 32 39 125 63 153 10 10 17 23 17 28 0 4 12 21 28 37 15 16 40 46 55 67
32 42 48 48 40 15 l-5 -23 16 23 c10 12 15 26 12 31 -3 5 3 20 14 32 l19 24 2
-35 1 -35 7 30 c8 31 29 75 36 75 7 0 -2 -65 -14 -95 -20 -51 -21 -55 -10 -55
6 0 8 -4 5 -9 -3 -4 6 -19 20 -32 15 -13 30 -33 35 -44 7 -14 8 -9 4 18 -4 25
-1 44 7 55 7 9 9 13 3 10 -6 -3 -11 6 -12 20 -1 24 0 25 12 9 14 -19 31 -145
20 -155 -3 -4 -10 0 -15 8 -8 12 -10 10 -10 -9 0 -16 4 -22 15 -17 10 4 15 -1
15 -15 0 -11 4 -18 8 -15 5 3 7 30 4 59 -3 34 0 57 7 61 7 5 11 -6 11 -31 0
-28 3 -34 10 -23 7 11 10 5 12 -25 1 -22 2 -51 3 -65 1 -14 5 -51 9 -82 l8
-58 210 0 c157 0 207 3 202 12 -5 8 -2 9 12 3 39 -16 66 -18 75 -4 7 12 9 11
9 -1 0 -8 7 -2 15 13 8 16 12 40 9 56 -4 16 -1 32 5 35 14 9 15 126 0 126 -6
0 -8 11 -4 28 3 15 -1 56 -9 89 -7 34 -11 65 -8 68 10 10 9 245 -1 245 -5 0
-7 7 -3 15 3 8 1 15 -4 15 -4 0 -11 13 -15 30 -4 16 -11 30 -15 30 -5 0 -7 -7
-4 -15 4 -8 1 -15 -5 -15 -6 0 -11 5 -11 12 0 6 -6 19 -13 27 -8 9 -30 46 -50
83 l-36 66 25 -3 c14 -1 32 -12 40 -24 8 -11 22 -21 31 -21 15 0 14 2 -2 13
-10 8 -15 19 -11 25 10 17 36 15 36 -3 0 -34 16 -11 34 48 23 73 23 72 32 207
4 62 2 120 -4 141 -7 26 -6 44 3 65 6 16 10 47 7 69 -4 32 -6 36 -13 20 -7
-18 -8 -17 -8 7 -1 14 -4 35 -7 45 -5 15 -4 15 5 3 8 -12 11 -5 11 28 0 27 4
41 10 37 6 -4 10 5 9 22 -1 15 6 52 16 81 9 28 15 61 12 72 -3 11 -1 18 4 14
5 -3 10 19 10 48 2 66 2 53 -4 118 l-6 55 13 -55 c14 -55 14 -55 10 50 -3 72
-1 100 6 90 8 -13 10 -12 11 5 l0 20 10 -20 c6 -14 7 -6 3 25 -4 25 -10 52
-15 60 -6 10 -7 2 -3 -22 4 -25 2 -38 -5 -38 -6 0 -11 13 -11 29 0 16 -3 37
-7 47 -4 12 -3 15 5 10 14 -9 17 51 3 86 -8 22 -44 244 -45 281 0 9 -4 17 -8
17 -4 0 -8 7 -8 16 0 9 5 12 12 8 17 -11 3 64 -17 86 -10 11 -13 27 -9 48 4
21 3 32 -5 32 -6 0 -11 12 -10 28 2 30 -29 177 -43 205 -6 11 -5 17 3 17 6 0
16 -13 22 -30 6 -16 15 -30 19 -30 12 0 9 12 -12 45 -41 64 -51 86 -54 123 -1
20 -11 52 -20 71 -15 28 -16 33 -3 28 21 -8 31 34 12 49 -10 7 -11 14 -4 21 8
8 7 13 -2 18 -8 6 -10 4 -4 -5 5 -9 4 -11 -4 -6 -6 4 -9 11 -6 16 3 5 -6 25
-20 46 -28 42 -33 69 -7 39 10 -11 24 -21 32 -23 8 -2 16 -7 18 -12 2 -5 16
-24 32 -42 17 -18 30 -38 30 -44 0 -5 7 -19 15 -30 27 -35 -14 56 -48 106 -17
25 -33 47 -36 50 -18 16 -91 131 -91 144 0 8 -5 18 -11 22 -6 3 -17 22 -25 40
-8 19 -19 34 -24 34 -6 0 -10 8 -10 17 0 23 -31 93 -122 271 -42 83 -75 152
-72 152 3 0 -4 10 -16 22 -11 12 -20 27 -20 33 0 6 -11 22 -25 35 -14 13 -25
29 -25 35 0 19 -109 121 -158 148 -35 19 -65 26 -117 28 -38 2 -73 8 -77 14
-5 6 -8 5 -8 -3 0 -7 -17 1 -40 19 -22 18 -40 37 -40 43 0 7 -8 18 -18 26 -40
33 -82 60 -92 60 -11 0 -51 21 -60 31 -3 3 -27 13 -54 22 -52 18 -72 18 -221
7z m-283 -875 c-9 -26 -18 -42 -20 -37 -3 9 26 82 33 82 2 0 -4 -20 -13 -45z
m-134 -20 c-14 -31 -18 -28 -11 7 3 15 9 25 14 23 4 -3 3 -17 -3 -30z m-61
-22 c-3 -10 -5 -4 -5 12 0 17 2 24 5 18 2 -7 2 -21 0 -30z m156 22 c-3 -9 -8
-14 -10 -11 -3 3 -2 9 2 15 9 16 15 13 8 -4z m-23 -145 c0 -5 -5 -10 -11 -10
-5 0 -7 5 -4 10 3 6 8 10 11 10 2 0 4 -4 4 -10z m-71 -146 c-27 -29 -38 -25
-12 5 10 12 19 26 19 31 3 22 7 24 11 7 3 -11 -5 -29 -18 -43z m-878 -295 c-5
-13 -10 -19 -10 -12 -1 15 10 45 15 40 3 -2 0 -15 -5 -28z m9 -46 c-11 -17
-11 -17 -6 0 3 10 7 26 7 35 1 15 2 15 6 0 2 -10 -1 -25 -7 -35z m59 -6 c1 -5
-3 -5 -9 -2 -5 3 -10 1 -10 -4 0 -6 -4 -11 -9 -11 -6 0 -5 13 1 32 10 28 12
30 19 12 4 -10 8 -23 8 -27z m-70 -49 c1 -15 -3 -29 -8 -32 -5 -4 -7 4 -4 16
4 19 3 20 -6 8 -9 -12 -11 -9 -11 17 0 17 3 40 7 50 6 16 8 15 14 -7 4 -14 7
-37 8 -52z m871 62 c0 -5 -2 -10 -4 -10 -3 0 -8 5 -11 10 -3 6 -1 10 4 10 6 0
11 -4 11 -10z m-82 -25 c16 -34 15 -34 -8 -28 -30 8 -47 32 -29 44 21 13 25
11 37 -16z m186 -4 c10 -11 28 -22 40 -24 11 -2 -7 -5 -41 -6 -35 0 -63 1 -63
4 0 13 26 45 36 45 6 0 19 -9 28 -19z m-904 -45 c-8 -8 -10 -7 -5 7 4 9 3 17
-3 17 -6 0 -13 -15 -15 -32 l-4 -33 -1 37 c-2 28 2 37 16 40 20 4 29 -19 12
-36z m-64 -114 c-15 -15 -16 -15 -16 0 0 9 5 29 12 45 l12 28 4 -29 c2 -17 -3
-35 -12 -44z m2668 -108 c3 -8 2 -12 -4 -9 -6 3 -10 10 -10 16 0 14 7 11 14
-7z m34 -60 c-4 -3 -12 5 -18 18 -12 22 -12 22 6 6 10 -10 15 -20 12 -24z
m-494 -152 c8 -15 17 -49 19 -74 7 -61 -19 -99 -65 -96 -30 2 -30 3 -26 50 6
57 12 65 33 48 9 -7 18 -10 22 -6 3 3 2 6 -4 6 -17 0 -23 43 -10 73 6 15 13
27 14 27 1 0 9 -12 17 -28z m551 -277 c9 -36 15 -69 11 -72 -3 -3 -7 0 -9 8
-2 8 -11 37 -20 65 -19 59 -20 64 -8 64 4 0 16 -29 26 -65z m-28 -117 c-3 -7
-5 -2 -5 12 0 14 2 19 5 13 2 -7 2 -19 0 -25z m20 -135 c-3 -10 -5 -4 -5 12 0
17 2 24 5 18 2 -7 2 -21 0 -30z m-2781 -120 c-10 -10 -19 5 -10 18 6 11 8 11
12 0 2 -7 1 -15 -2 -18z m-70 -139 c11 4 12 2 4 -14 -23 -44 -1 -52 37 -12 27
27 38 28 40 2 1 -11 -6 -22 -18 -25 -17 -6 -24 -28 -20 -62 1 -7 -3 -13 -9
-13 -5 0 -10 -5 -10 -10 0 -5 3 -9 8 -8 4 0 15 -2 24 -6 16 -7 15 -10 -7 -28
-24 -18 -36 -46 -15 -33 25 16 6 -17 -32 -54 -23 -23 -38 -44 -35 -47 4 -4 13
-1 21 5 12 10 15 9 13 -8 0 -11 -4 -19 -7 -19 -3 0 -16 -3 -28 -7 -18 -6 -20
-10 -10 -16 10 -6 9 -11 -7 -23 -11 -8 -23 -12 -28 -9 -4 3 -16 1 -25 -3 -9
-4 -21 -8 -26 -8 -5 -1 -11 -7 -14 -15 -3 -10 2 -11 19 -6 19 5 21 4 9 -4 -8
-6 -25 -11 -37 -11 -26 0 -41 -19 -24 -30 15 -9 101 6 115 20 15 15 36 12 30
-5 -4 -8 -18 -16 -33 -16 -17 -1 -20 -3 -8 -6 9 -2 17 -9 17 -15 0 -5 -6 -8
-14 -5 -10 4 -12 0 -9 -13 4 -15 -6 -24 -46 -44 -28 -13 -48 -19 -45 -13 3 7
0 5 -8 -4 -7 -9 -31 -22 -53 -30 -22 -8 -43 -18 -46 -22 -4 -5 -9 3 -11 17 -4
20 0 30 14 37 11 6 17 13 14 16 -3 3 -17 -2 -31 -11 -30 -20 -32 -13 -6 15 10
11 17 29 14 39 -3 10 1 21 8 25 8 5 10 4 5 -3 -5 -8 1 -12 14 -12 14 0 20 -5
17 -13 -3 -8 -1 -20 4 -28 8 -12 10 -12 8 1 -4 38 2 50 24 50 16 0 18 3 9 9
-8 4 -13 11 -12 15 0 4 -6 14 -15 22 -13 13 -15 13 -15 1 0 -14 -34 -30 -44
-20 -11 11 8 32 35 38 24 6 28 11 25 31 -3 15 1 27 12 33 13 7 14 12 4 24 -10
11 -10 21 -1 41 7 14 16 26 21 26 4 0 8 6 8 13 1 20 39 59 50 52 6 -4 11 -1
10 6 -3 24 11 55 30 66 15 10 17 9 12 -10 -2 -12 -8 -27 -11 -32 -3 -6 2 -2
12 9 10 11 17 30 14 42 -2 12 2 29 8 38 11 15 13 15 19 1 4 -11 2 -14 -7 -9
-9 5 -9 4 0 -6 10 -11 15 -11 28 0 19 16 20 31 0 24 -18 -7 -18 -4 -5 31 9 23
8 26 -6 21 -12 -5 -15 -2 -10 10 3 8 7 25 7 37 2 16 3 14 6 -6 3 -20 9 -27 19
-23z m81 -119 c-4 -8 -11 -15 -17 -15 -7 0 -7 6 0 21 13 23 26 19 17 -6z m708
-55 c-3 -5 -13 -10 -21 -10 -8 0 -12 5 -9 10 3 6 13 10 21 10 8 0 12 -4 9 -10z
m1325 -81 c0 -5 -4 -9 -10 -9 -5 0 -10 7 -10 16 0 8 5 12 10 9 6 -3 10 -10 10
-16z m-2354 -146 c-11 -11 -19 6 -11 24 8 17 8 17 12 0 3 -10 2 -21 -1 -24z
m2963 -243 c0 -8 -5 -4 -13 10 -7 14 -10 29 -8 34 6 11 20 -20 21 -44z m-2894
-67 c7 -7 16 -9 20 -5 5 4 5 -2 0 -13 -17 -44 -18 -65 -1 -65 9 0 16 4 16 8 0
5 7 9 15 9 8 0 15 -1 15 -2 0 -6 22 -124 26 -140 4 -16 3 -17 -5 -5 -8 12 -11
11 -16 -5 -15 -44 -35 -79 -35 -62 0 9 -5 17 -11 17 -5 0 -8 -4 -5 -9 9 -13
-5 -71 -15 -65 -5 3 -9 17 -10 32 0 15 -3 21 -6 15 -10 -26 -22 -11 -28 35 -3
26 -12 70 -19 97 -16 62 -13 115 8 127 8 5 13 15 10 23 -4 8 -1 15 5 15 6 0
11 8 12 18 0 13 2 14 6 2 4 -8 12 -20 18 -27z m499 -8 c6 -28 5 -29 -9 -11 -8
11 -15 29 -15 40 0 28 16 8 24 -29z m1817 -2 c-12 -20 -14 -14 -5 12 4 9 9 14
11 11 3 -2 0 -13 -6 -23z m-2254 -15 c-3 -7 -5 -2 -5 12 0 14 2 19 5 13 2 -7
2 -19 0 -25z m2823 -98 c9 -16 8 -18 -5 -14 -8 4 -15 12 -15 20 0 20 7 17 20
-6z m-2946 -219 c-8 -8 -12 5 -18 54 l-6 50 14 -50 c8 -27 12 -52 10 -54z
m301 66 c4 4 6 1 2 -9 -3 -9 7 -52 23 -96 37 -105 42 -152 15 -152 -8 0 -15 3
-16 8 -3 29 -9 47 -19 50 -5 2 -8 7 -5 12 3 4 -3 14 -12 21 -14 12 -15 11 -8
-10 4 -13 15 -42 25 -64 20 -44 13 -94 -15 -110 -9 -4 -13 -12 -10 -17 3 -5 0
-20 -7 -32 -7 -13 -11 -26 -10 -30 3 -13 -27 -30 -40 -22 -7 5 -19 9 -27 9 -8
0 -22 20 -30 45 -9 25 -19 50 -22 55 -3 6 -12 36 -19 68 -10 45 -11 63 -1 83
6 15 9 36 5 48 -4 11 -3 18 1 14 5 -5 16 10 26 32 18 39 28 47 43 33 4 -5 12
-8 16 -8 5 0 16 -9 24 -20 13 -17 15 -18 16 -3 0 9 -4 28 -10 43 -7 20 -6 34
6 57 16 31 16 31 28 9 7 -12 16 -18 21 -14z m-128 3 c1 -11 -4 -20 -12 -20 -8
0 -11 7 -8 20 3 11 8 20 12 20 4 0 7 -9 8 -20z m-37 -35 c0 -5 -5 -3 -10 5 -5
8 -10 20 -10 25 0 6 5 3 10 -5 5 -8 10 -19 10 -25z m18 -25 c-11 -34 -28 -49
-28 -26 0 13 28 56 37 56 1 0 -3 -14 -9 -30z m2829 -42 c-3 -8 -6 -5 -6 6 -1
11 2 17 5 13 3 -3 4 -12 1 -19z m-2990 -10 c-3 -8 -6 -5 -6 6 -1 11 2 17 5 13
3 -3 4 -12 1 -19z m92 -110 c-17 -31 -31 -120 -30 -190 1 -32 -1 -58 -4 -58
-4 0 -31 58 -35 75 -1 3 -6 19 -11 37 -5 18 -11 58 -13 88 -2 30 -2 45 1 33 2
-13 11 -23 18 -23 10 0 12 -7 5 -28 -6 -22 -4 -29 6 -29 8 0 17 12 21 26 7 29
46 102 51 96 2 -2 -2 -14 -9 -27z m2821 9 c0 -8 -6 -14 -14 -14 -8 0 -12 6 -9
14 3 7 9 13 14 13 5 0 9 -6 9 -13z m-2930 -102 c0 -13 5 -27 10 -30 6 -3 10
-20 10 -37 0 -17 7 -39 16 -49 9 -10 13 -22 10 -28 -9 -14 -36 -2 -36 15 0 8
-5 14 -11 14 -5 0 -7 5 -4 10 4 6 -1 22 -10 36 -12 19 -15 36 -10 65 7 41 25
44 25 4z m2935 -25 c3 -5 1 -10 -4 -10 -6 0 -11 5 -11 10 0 6 2 10 4 10 3 0 8
-4 11 -10z m-2878 -147 c5 -14 -25 -12 -31 3 -3 7 2 11 12 10 9 -2 17 -7 19
-13z m3003 -28 c0 -17 -2 -17 -10 -5 -5 8 -10 24 -10 35 0 17 2 17 10 5 5 -8
10 -24 10 -35z m-2961 12 c-2 -1 -13 -9 -24 -17 -19 -14 -19 -14 -6 3 7 9 18
17 24 17 6 0 8 -1 6 -3z m2907 -72 c3 -14 3 -32 0 -41 -3 -8 -1 -25 5 -36 7
-13 7 -18 1 -14 -14 9 -22 -7 -26 -49 -3 -47 -20 -64 -47 -47 -11 7 -25 9 -32
5 -9 -5 -9 -3 1 9 10 12 9 18 -3 28 -22 18 -12 45 33 95 6 7 12 17 12 22 0 13
30 53 40 53 5 0 12 -11 16 -25z m-2831 -55 c-3 -5 -16 -10 -28 -9 -21 0 -21 1
-2 9 28 12 37 12 30 0z"/>
<path d="M1508 1453 c7 -3 16 -2 19 1 4 3 -2 6 -13 5 -11 0 -14 -3 -6 -6z"/>
<path d="M1580 1420 c-23 -7 -23 -8 -3 -9 12 -1 25 4 28 9 3 6 5 10 3 9 -2 -1
-14 -5 -28 -9z"/>
<path d="M1509 943 c-2 -16 -2 -48 1 -73 l5 -45 14 65 c8 36 19 68 25 72 6 4
-1 8 -15 8 -22 0 -27 -5 -30 -27z"/>
<path d="M3460 3304 c-91 -12 -200 -52 -200 -73 0 -16 54 -19 150 -9 100 10
198 6 240 -10 43 -17 114 -73 101 -81 -14 -9 23 -51 45 -51 13 0 15 9 9 53 -7
51 -38 117 -55 117 -5 0 -26 14 -46 32 -30 27 -44 32 -92 33 -32 1 -100 -4
-152 -11z"/>
<path d="M1685 3260 c-3 -5 -1 -10 4 -10 6 0 11 5 11 10 0 6 -2 10 -4 10 -3 0
-8 -4 -11 -10z"/>
<path d="M4491 3194 c0 -11 3 -14 6 -6 3 7 2 16 -1 19 -3 4 -6 -2 -5 -13z"/>
<path d="M3369 3137 c-20 -8 -50 -24 -68 -36 -17 -12 -41 -21 -54 -20 -12 1
-30 -1 -39 -6 -20 -8 -24 -40 -6 -51 8 -5 9 0 6 14 -4 15 -2 22 8 22 8 0 14
-4 14 -10 0 -5 7 -10 15 -10 21 0 19 -13 -5 -35 -25 -22 -25 -34 -2 -34 23 -1
131 -18 162 -26 22 -6 103 -8 170 -3 14 0 33 -2 44 -7 13 -6 21 -3 28 9 7 13
17 15 44 10 22 -4 34 -2 34 5 0 6 -4 11 -9 11 -13 0 -19 58 -7 70 13 13 -16
44 -55 60 -16 7 -29 16 -29 20 0 4 -36 10 -80 14 -44 3 -92 9 -107 11 -16 3
-44 -1 -64 -8z m28 -153 c-2 -2 -32 1 -67 5 -36 5 -60 9 -53 10 7 0 34 15 60
31 l48 31 8 -37 c4 -20 6 -38 4 -40z m33 72 c0 -3 -4 -8 -10 -11 -5 -3 -10 -1
-10 4 0 6 5 11 10 11 6 0 10 -2 10 -4z m135 -46 c0 -8 -10 -16 -22 -18 -17 -3
-20 1 -16 18 6 24 38 24 38 0z"/>
<path d="M4500 3020 c0 -29 2 -51 4 -49 8 8 10 88 3 95 -4 4 -7 -17 -7 -46z"/>
<path d="M3165 2980 c-3 -5 -1 -10 4 -10 6 0 11 5 11 10 0 6 -2 10 -4 10 -3 0
-8 -4 -11 -10z"/>
<path d="M4467 2934 c-3 -3 -2 -14 3 -23 4 -9 13 -32 19 -51 l10 -35 -6 40
c-4 22 -6 48 -5 58 1 17 -9 22 -21 11z"/>
<path d="M3478 2883 c12 -2 30 -2 40 0 9 3 -1 5 -23 4 -22 0 -30 -2 -17 -4z"/>
<path d="M2812 2562 c-27 -9 -10 -22 29 -22 22 0 38 4 35 9 -7 10 -47 19 -64
13z"/>
<path d="M3026 2537 c-16 -12 -9 -13 50 -11 45 2 71 -1 76 -9 4 -6 10 -8 14
-4 4 4 -1 14 -12 22 -24 18 -104 19 -128 2z"/>
<path d="M2968 2483 c7 -3 16 -2 19 1 4 3 -2 6 -13 5 -11 0 -14 -3 -6 -6z"/>
<path d="M1604 2449 c-3 -6 -1 -16 5 -22 8 -8 11 -5 11 11 0 24 -5 28 -16 11z"/>
<path d="M1551 2404 c-18 -19 -31 -37 -29 -40 6 -5 68 56 68 68 0 11 -1 11
-39 -28z"/>
<path d="M2615 2320 c3 -5 12 -10 20 -10 7 0 27 -11 43 -25 35 -29 44 -31 35
-9 -5 13 -2 14 13 6 32 -17 101 -41 106 -36 3 2 35 -7 73 -20 54 -19 74 -22
97 -14 16 6 43 8 61 5 17 -2 45 -1 62 4 16 4 48 10 70 14 38 5 39 5 20 -10
-20 -16 -20 -16 0 -12 54 14 155 56 153 63 -2 5 -10 8 -18 7 -86 -11 -377 -16
-440 -7 -19 3 -69 9 -110 14 -41 4 -93 15 -115 24 -46 18 -79 20 -70 6z"/>
<path d="M1805 2250 c-3 -6 1 -7 9 -4 18 7 21 14 7 14 -6 0 -13 -4 -16 -10z"/>
<path d="M3146 2185 c4 -8 10 -15 15 -15 4 0 6 7 3 15 -4 8 -10 15 -15 15 -4
0 -6 -7 -3 -15z"/>
<path d="M4580 2020 c0 -11 4 -20 9 -20 5 0 7 9 4 20 -3 11 -7 20 -9 20 -2 0
-4 -9 -4 -20z"/>
<path d="M2451 1518 c-14 -44 -25 -118 -18 -118 13 0 26 38 32 93 8 64 2 74
-14 25z"/>
<path d="M4361 850 c36 -64 37 -65 45 -57 6 6 -4 20 -57 87 -11 14 -5 0 12
-30z"/>
<path d="M4415 840 c-3 -5 -2 -10 4 -10 9 0 30 -52 35 -85 1 -8 6 -18 10 -22
10 -10 0 65 -14 101 -10 27 -24 33 -35 16z"/>
<path d="M3746 585 c-3 -8 -1 -15 4 -15 6 0 10 7 10 15 0 8 -2 15 -4 15 -2 0
-6 -7 -10 -15z"/>
<path d="M3725 539 c-4 -6 -5 -12 -2 -15 2 -3 7 2 10 11 7 17 1 20 -8 4z"/>
<path d="M3777 263 c-4 -3 -7 -13 -7 -22 1 -13 3 -13 11 2 11 19 8 33 -4 20z"/>
<path d="M3900 146 c0 -9 5 -16 10 -16 6 0 10 4 10 9 0 6 -4 13 -10 16 -5 3
-10 -1 -10 -9z"/>
</g>
</svg>
