<?xml version="1.0" encoding="UTF-8"?><svg id="a" xmlns="http://www.w3.org/2000/svg" xmlns:xlink="http://www.w3.org/1999/xlink" viewBox="0 0 1200 1200"><defs><style>.am,.an,.ao,.ap,.aq{fill:none;}.an{stroke-linejoin:round;}.an,.ao,.ap,.aq{stroke:#1d252e;stroke-linecap:round;}.an,.ap{stroke-width:1.28px;}.ar{fill:#e9e8e8;}.as{fill:#fff;}.at{fill:#9ed4c0;}.au{fill:#9dd5c0;}.av{fill:#1d252e;}.ao{stroke-width:4px;}.aw{clip-path:url(#w);}.ax{clip-path:url(#o);}.ay{clip-path:url(#ag);}.aq{stroke-width:3.5px;}</style><clipPath id="o"><circle class="am" cx="269.15" cy="665.61" r="28.77"/></clipPath><clipPath id="w"><circle class="am" cx="269.15" cy="745.51" r="28.77"/></clipPath><clipPath id="ag"><circle class="am" cx="269.15" cy="822.61" r="28.77"/></clipPath></defs><path class="ar" d="M993.23,817.76c-24.9,55.09-171.51,74.16-304.61,91.04-21.6,2.74-42.85,5.42-63.16,8.19-11.49,1.57-22.67,3.16-33.45,4.81-9.53,1.46-18.87,2.55-28.02,3.29-19.19,1.56-37.56,1.59-55.12,.22-318.92-24.82-371.99-508.97-248.86-616.17,68.9-59.99,170.25-35.58,267.34,12.31,1.96,.96,3.91,1.94,5.86,2.92l.36,.18c19.02,9.59,37.84,20.03,56.18,30.87,.27,.16,.53,.31,.79,.47,7.49,4.43,14.89,8.92,22.2,13.44,3.6,2.23,7.17,4.47,10.71,6.71,5.97,3.77,11.87,7.55,17.68,11.32,6.7,4.36,13.29,8.7,19.74,13.02,1.63,1.08,3.25,2.17,4.86,3.25,35.98,24.15,67.75,46.99,92.41,63.66,69.11,46.72,286.98,235.65,235.09,350.47Z"/><g><g><path class="as" d="M567.43,830.32l-8.79,38.35,5.35,56.42c-19.19,1.56-37.56,1.59-55.12,.22l-9.98-65.18,2.56-30.67,.25-2.99,66.73-.49-1,4.34Z"/><path class="as" d="M688.62,908.8c-21.6,2.74-42.85,5.42-63.16,8.19l-44.85-44.66,.16-42.18,.02-5.16,65.73-7.91,.18,4.78,1.01,27.52,40.91,59.42Z"/><path id="b" class="av" d="M572.46,375.36c3.97,5.14,16.85,9.71,23.35,10.3,4.34,.38,8.7-1.94,13.11-6.96,7.4-16.06,10.19-31.54,8.36-46.42-2.74-22.34-18.3-43.84-40.26-48.93-21.95-5.09-38.35,5.39-45.45,14.03-4.74,5.74-6.07,14.19-4.01,25.35,27.28,31.64,42.25,49.19,44.89,52.64Z"/><path id="c" class="ao" d="M613.7,380.31c-2.37,4.08-4.75,6.66-7.12,7.73-1.92,.99-4.1,1.39-6.26,1.15"/><path id="d" class="av" d="M630.61,412.26c11.6,4.96,24.52,1.05,38.75-11.73-6.8,.41-12.49-.33-17.07-2.24-6.86-2.86-11.33-14.29-20.78-19.25-6.3-3.3-10.78-4.02-13.44-2.16,.46,4.84-.69,8.72-3.45,11.64-2.76,2.92-5.02,4.5-6.79,4.76,3.58,7.69,11.18,14.01,22.77,18.98Z"/><path id="e" class="as" d="M548.45,323.87l28.58-16.02-.91,10.05,7.56,11.61,10.96,1.83,6.19,6.31-1.84,13.05-8.16,1.28-3.93,12.36-9.02,13.18-.69,35.94,35.99,11.5s-12.37,24.21-57.88,18.96c-45.51-5.25-51.92-28.37-51.92-28.37l21.48-2.88,23.08-3.04,1.55-12.75-.53-18.03-10.58-5.9-10.1-13.19-2.95-18.69,5.17-16.39,17.93-.81Z"/><path id="f" class="av" d="M490.1,632.05c-21.28,92.84-28.63,186.14-27.81,192.77,.81,6.63,142.66,6.95,161.77,2.95,19.11-4,48.6-13.32,61.26-22.5-20.94-93.59-50.64-154.55-59.36-178.82-8.71-24.28-58.21-11.62-135.87,5.61Z"/><path id="g" class="ao" d="M532.32,411.2l15.65-1.56,2.12-30.9c-12.38-3.88-20.02-11.29-22.92-22.23-2.93-10.68-1.74-22.04,3.34-31.82"/><path id="h" class="ao" d="M587.74,415.78l-10.39-2.48,.41-37.95c1.83-.55,4.54-3.57,8.12-9.05,3.58-5.48,5.22-10.26,4.91-14.34,2.9,.62,5.23,.52,6.97-.31,2.65-1.23,5.01-7.91,1.77-15.77-2.17-5.24-6.61-6.84-13.34-4.78-3.87-2.15-6.87-5.6-8.46-9.73-1.83-4.3-2.08-9.09-.71-13.53-12.04,7.69-22.01,12.66-29.92,14.93-7.91,2.27-13.26,2.51-16.06,.73"/><path id="i" class="as" d="M620.17,499.85l34.86,54.8s97.38,34.15,105.59,37.15,32.67-3.18,32.67-3.18c28.02-14.18,21.29-25.69,14.16-30.22-4.02-2.56-25.6-1.73-32.48,1.17-4.56,1.96-16.82,7.33-16.82,7.33l-76.75-34.11-21.93-50.99-39.3,18.05Z"/><path id="j" class="ao" d="M635.73,523.93l19.3,30.72s97.38,34.15,105.59,37.15,32.67-3.18,32.67-3.18c28.02-14.18,21.29-25.69,14.16-30.22-4.02-2.56-25.6-1.73-32.48,1.17-4.56,1.96-16.82,7.33-16.82,7.33l-76.75-34.11-18.57-42.1"/><path id="k" class="as" d="M451.3,418.23l-46.42-5.32,49-62.57s41.36-10.63,43.79-14.74c4.31-7.27,5.1-20.58-26.3-20.55,0,0-24.56,11-30.18,15.64s-67.83,60.28-71.98,88.45c0,0-7.69,21.41,28.22,27.46,28.55,4.81,48.7,4.58,48.7,4.58l25.81-33.45-20.63,.49Z"/><path id="l" class="ao" d="M449.82,418.23s-45.34-1.2-42.49-6.3c2.85-5.1,45.07-61.59,45.07-61.59,0,0,41.36-10.63,43.79-14.74,4.31-7.27,5.1-20.58-26.3-20.55,0,0-24.56,11-30.18,15.64s-67.83,60.28-71.98,88.45c0,0-5.9,23.9,29.69,27.46l36.31,5.28"/><path id="m" class="au" d="M524.54,411.6c4.46,5.45,12.24,16.41,16.22,18.68,3.98,2.26,41.17-5.01,54.93-13.53,41.05,2.23,50.15,20.33,76.75,62.49l-51.25,22.43,4.07,125.41-142.04,8.3c2.78-21.29,4.81-36.29,6.09-45,6.34-39.33-14.79-68.55-5.47-116.41,7.46-22.38,9.31-50.18,9.85-52.26,1.97-7.73,26.4-15.55,30.85-10.1Z"/><polyline class="ao" points="580.11 836.94 580.61 872.33 625.46 916.99"/><polyline class="ao" points="688.62 908.8 647.71 849.38 648.06 827.36"/><polyline class="ao" points="567.39 836.94 558.64 868.67 563.99 925.09"/><polyline class="ao" points="508.87 925.31 498.89 860.13 500.87 835.19"/><path id="n" class="ao" d="M566.75,378.68c-3.94,1.07-8.05,1.42-12.12,1.05-2.77-.22-5.47-.98-7.95-2.24"/><path class="au" d="M520.37,410.96c-11.53-.69-39.25-6.84-57.44-5.59-5.79,16.94-16.52,29.61-25.07,45.56-8.55,15.95,62.12,23.74,62.12,23.74,0,0,31.92-63.03,20.39-63.71Z"/></g><path class="ao" d="M505.14,434.8c-6.81,8.75-17.91,31.11-17.51,44.36"/><path class="ao" d="M611.58,470.02l-1.42-3.38c4.47,13.19,6.56,27.17,6.14,41.09-.04,1.33,1.43,3.17,2.03,1.99"/><path class="ao" d="M613.56,593.17c-2.59,.83-4.95,2.35-6.76,4.38-.38,.43-.76,.92-.8,1.5-.09,1.37,1.62,2.04,2.47,3.12,1.12,1.41,.62,3.61-.62,4.91s-3.03,1.91-4.76,2.43c-7.65,2.29-15.59,3.61-23.57,3.76l1.79-.07"/></g><g><g class="ax"><circle class="as" cx="269.15" cy="665.61" r="28.77"/><g><path id="p" class="av" d="M280.76,658.78c1.01-3.05,.95-5.48-.16-7.3-1.67-2.72-5.89-6.33-12.26-5.78-6.37,.55-11.59,5.99-13.2,12.16-1.08,4.12-.89,8.59,.58,13.41,1.05,1.59,2.19,2.42,3.43,2.48,1.85,.09,5.65-.68,6.97-1.96,.88-.86,5.76-5.2,14.64-13.01Z"/><path id="q" class="as" d="M279.94,658.74l1.48,4.66-.82,5.31-2.86,3.74-3,1.66-.44,8.11,6.71,.3-.86,9.72c-3.99,2.21-8.21,2.09-12.6,.23l-12.81-8.59,10.64-1.59,1.14-8.59-2.58-3.76-1.11-3.52-2.32-.37-.53-3.71,1.76-1.78,3.12-.51,2.14-3.29-.27-2.86,8.14,4.59,5.09,.25Z"/><path id="r" class="an" d="M279.94,658.74c1.46,2.79,1.8,6.02,.98,9.06-.82,3.1-2.98,5.2-6.49,6.29l-.11,8.13,4.83,.15"/><path id="s" class="an" d="M279.81,658.4c-.79,.5-2.32,.43-4.57-.23-2.25-.65-5.09-2.08-8.52-4.28,.39,1.26,.31,2.63-.21,3.84-.45,1.17-1.3,2.15-2.4,2.76-1.92-.59-3.18-.15-3.79,1.34-.91,2.23-.24,4.13,.5,4.49,.5,.24,1.16,.27,1.98,.1-.08,1.16,.39,2.52,1.41,4.08s1.79,2.42,2.32,2.58l-.79,9.28-6.15,.71"/><path id="t" class="an" d="M275.39,673.72c-.7,.36-1.47,.57-2.26,.63-1.16,.1-2.33,0-3.45-.31"/><path id="u" class="an" d="M259.54,674.72c-.6,.15-1.22,.12-1.8-.09-.71-.21-1.48-.85-2.32-1.91"/><path id="v" class="av" d="M259.28,675.9c-.46,.21-1.25,.17-2.35-.12-1.11-.28-1.98-1.04-2.61-2.28-.93-.04-1.89,.81-2.89,2.55-1.5,2.62-.82,6.05-2.03,7.78-.81,1.15-2.06,2.19-3.74,3.13,5.36,.92,9.05-.09,11.07-3.05s2.87-5.63,2.54-8.02Z"/><path class="au" d="M288.01,706.03c-2.57-.04-5.14-.09-7.71-.16-6.07-.15-12.14-.36-18.22-.48-4.81-.1-9.61-.08-14.42-.06-1.41-3.41-3.07-9.18-1.22-14.67,1.15-3.87,4.94-6.95,10.01-7.41,5.11-.29,9.24,9.49,17.46,9.36,8.22-.14,4.55-9.67,6.52-10.48,.78-.32,3.2,.99,6.46,3.58,4.94,3.92,3.87,6.38,3.26,13.45l-2.14,6.88Z"/></g></g><circle class="an" cx="269.15" cy="665.61" r="28.77"/><g class="aw"><circle class="as" cx="269.15" cy="745.51" r="28.77"/><g><g><path class="au" d="M302.57,784.93l-2.08,1.2-5.96,3.42-1.97,6.23-.07,.24c-.07,.04-.1,.41-.08,1.04,.02,1.42,.22,4.16,.49,7.32,0,.02,0,.04,0,.07,.25,2.9,.56,6.15,.85,9.08,0,.06,.01,.12,.02,.18,.15,1.55,.3,3,.43,4.25h-38.16c.45-2.66,.9-6.02,.38-8.73,0-.04-.01-.08-.02-.12-.6-2.97-2.39-5.12-6.65-4.63-.02,0-.04,0-.06,0-.2,.02-.4,.05-.61,.09-.29-2.29-.54-4.41-.76-6.36-1.86-16.55-1.36-21.56,.95-25.21,2.9-4.55,4.7-5.37,10.9-5.53,.42,.21,.84,.4,1.24,.58,7.01,3.14,10.89,2.33,13.66,.85,1.75-.94,3.53-1.88,4.76-3,.83-.76,1.4-1.6,1.53-2.58,6.09-.66,9.02,.24,11.61,3.51,2.59,3.27,3.07,5.85,9.59,18.09Z"/><path id="x" class="ap" d="M290.64,776.74c2.24,3.86,3.29,7.74,3.14,11.63-.14,3.89-1.07,6.77-2.8,8.64l.62,12.87"/></g><g><path id="y" class="av" d="M281.09,736.55c.31-3.31-.31-5.75-1.85-7.32-2.31-2.36-8.32-5.39-14.62-3.37-6.3,2.02-9.38,9.07-9.59,15.68-.14,4.4,2.14,9.44,4.38,11.55s7.52,1.6,8.55,0c.69-1.07,5.97-6.61,13.13-16.54Z"/><path class="as" d="M275.63,752.68v5.67l.3,5.61,5.07,.52c-.27,.51-.67,.98-1.16,1.43-1.22,1.12-3.01,2.07-4.76,3-2.77,1.48-6.65,2.29-13.66-.85-.16-.07-.32-.15-.48-.22l5.68-1.7,.03-12.77c.28-5-2.08-7.67-3.83-7.67-2.25-1.84-1.84-4.42-1.25-5.59,1.32-2.63,4.32,.16,4.78-1.44,1.81-5.9,6.02-3.74,8.07-1.91,3.66-5.68,5.82-.2,5.82-.2l1.76,4.75-.59,5.53-2.77,4-3.02,1.86Z"/><path id="a`" class="ap" d="M280.25,736.54c1.66,2.95,2.15,6.05,1.46,9.3-.69,3.25-2.82,5.52-6.4,6.82l.62,11.29,4.34,.14"/><path id="aa" class="ap" d="M276.28,752.25c-.52,.34-1.29,.59-2.3,.76s-2.2,.12-3.58-.15"/></g><path class="av" d="M259.55,727.35c0-2.58-3.82-6.96-7.86-1.91s-6.74,10.56,1.35,11.12c8.09,.56,6.51-9.21,6.51-9.21Z"/><path class="ap" d="M261.28,766.94l5.71-1.13s-.43-7.02-.39-10.39"/><path class="ap" d="M263.6,740.68c-1.62-.3-1.44,3.12,0,3"/><g><polygon class="as" points="330.27 773.2 324.99 781.81 321.76 782.67 303.47 800.6 299.4 803.29 296.53 802.63 292.55 795.77 294.53 789.55 300.49 786.12 303.06 789.03 316.73 778.51 320.75 774.26 326.33 772.9 330.27 773.2"/><path id="ab" class="ap" d="M302.2,788.18l.96,.88,13.37-10.28c2.11-2.55,3.78-4.1,4.99-4.66,1.82-.84,8.95-1.82,8.67-.58-.19,.83-1.92,3.58-5.2,8.27"/><path id="ac" class="ap" d="M293.11,798.12c2.4,3.47,4.39,5.12,5.96,4.97,2.06-.2,9.63-7.01,22.69-20.42l3.2-.74"/></g><g><polygon id="ad" class="as" points="260.82 793.46 261.4 795.34 287.36 803.88 294.23 804.49 299.57 808.66 302.16 812.51 290.35 813.92 287.19 811.58 252.91 808.96 250.15 806.86 247.94 793.87 260.82 793.46"/><path id="ae" class="ap" d="M260.89,794.01l.6,1.41,25.48,8.48c3.9,.09,6.55,.49,7.95,1.21,2.1,1.07,8.22,6.95,6.87,7.59-.9,.43-4.71,.84-11.44,1.24"/><path id="af" class="ap" d="M247.96,795.15c.82,8.18,2.38,12.66,4.69,13.45,2.31,.79,12.6,.71,34.54,2.98l3.02,2.42"/></g></g></g><circle class="an" cx="269.15" cy="745.51" r="28.77"/><g class="ay"><circle class="as" cx="269.15" cy="822.61" r="28.77"/><g><path class="au" d="M284.76,842.74c8.2,.36,15.08,17.27,16.9,23.71s-16.66,4.01-16.66,4.01l-2.9-15.71s-5.55-12.38,2.65-12.02Z"/><polygon id="ah" class="as" points="259.88 842.34 265.25 841.65 265.18 831.5 263.2 828.19 262.21 824.81 259.61 824.6 258.24 822.19 258.89 819.56 259.68 818.77 258.49 814.26 275.75 812.57 276.77 813.11 279.17 817.54 280.52 822.6 279.54 826.96 277.62 829.67 274.82 831.58 273.75 831.49 274.04 841.66 281.54 841.63 274.35 849.17 259.49 848.96 259.88 842.34"/><path id="ai" class="an" d="M262.01,842.04l3.25-.26-.08-10.27s-1.64-2.68-1.98-3.32c-.34-.63-.66-1.75-.96-3.36-2.81,0-4.12-1.15-3.93-3.41s1.54-3.17,4.06-2.72"/><path id="aj" class="an" d="M277.97,815.59c2.01,3.21,2.81,5.96,2.42,8.25-1.08,4.62-3.41,7.26-6.97,7.91l.63,9.9,3.78-.05"/><path id="ak" class="an" d="M259.32,817.38c1.23-.53,2.4-.68,3.54-.44"/><path id="al" class="av" d="M258.73,816.17c1.88-.67,3.49-.96,4.8-.85,.17-.59,.37-1.25,.62-1.98,2.66,3.27,6.88,3.32,12.66,.14,8.66-4.77-.7-19.65-9.38-14.02-3.13,2.08-4.9,3.84-5.32,5.26-2.4,.15-3.88,.9-4.42,2.25-1.09,1.81-.74,4.87,1.05,9.21Z"/><path class="au" d="M246.89,876.72c-.04-1.81-.07-3.63-.06-5.46,0-.35,0-.7,0-1.05,.07-7.18,.67-14.43,2.87-21.16,.92-2.81,2.03-4.36,3.23-5.23,2.17-1.56,5.31-1.64,7.33-1.57,1.49,2.03,4.7,4.73,10.47,4.56,5.43-.16,8.16-3.9,8.68-5.25,4.33-.27,7.01,.81,8.87,2.31h0c1.69,1.37,3.03,3.21,3.94,5.1,1.24,2.59,1.08,9.55,.73,14.87-.25,3.75-.59,6.68-.59,6.68,0,.13,0,.26,0,.39,.17,6.52-45.32,13.16-45.48,5.81Z"/></g></g><circle class="an" cx="269.15" cy="822.61" r="28.77"/></g><path class="av" d="M914.41,831.74c7.11-5.88,13.29-12.88,18.24-20.67,1.24-1.95,2.42-3.99,2.81-6.26,.9-5.14-3.06-10.61-8.22-11.37s-10.52,3.35-11.14,8.53c-1.61-3.35-3.83-6.27-7.08-8.08-2.51-1.4-5.66-2.16-8.22-.86-2.12,1.08-3.37,3.38-3.92,5.69-2,8.5,3.9,16.64,9.44,23.39,2.12,2.58,5.96,7.05,8.08,9.63Z"/><path class="av" d="M896.7,747.83c4.96-4.1,9.27-8.98,12.72-14.42,.86-1.36,1.68-2.79,1.96-4.37,.63-3.58-2.13-7.4-5.73-7.93s-7.34,2.34-7.77,5.95c-1.12-2.34-2.67-4.37-4.94-5.64-1.75-.97-3.95-1.51-5.73-.6-1.48,.76-2.35,2.36-2.73,3.97-1.4,5.93,2.72,11.61,6.58,16.31,1.48,1.8,4.16,4.92,5.63,6.71Z"/><path class="av" d="M918.98,682.07c3.11-2.57,5.82-5.64,7.99-9.05,.54-.85,1.06-1.75,1.23-2.74,.39-2.25-1.34-4.65-3.6-4.98s-4.61,1.47-4.88,3.74c-.7-1.47-1.68-2.75-3.1-3.54-1.1-.61-2.48-.95-3.6-.37-.93,.47-1.48,1.48-1.72,2.49-.88,3.72,1.71,7.29,4.13,10.25,.93,1.13,2.61,3.09,3.54,4.22Z"/><g><circle class="av" cx="276.71" cy="944.21" r="33.06"/><polygon class="at" points="265.8 962.17 265.8 926.25 293.72 944.21 265.8 962.17"/></g><circle class="av" cx="911.12" cy="888.25" r="21.57"/><path class="av" d="M912.22,953.74H330.05c-4.67,0-8.46-3.79-8.46-8.46s3.79-8.46,8.46-8.46H912.22c4.67,0,8.46,3.79,8.46,8.46s-3.79,8.46-8.46,8.46Z"/><path class="au" d="M455.26,953.74h-125.21c-4.67,0-8.46-3.79-8.46-8.46s3.79-8.46,8.46-8.46h125.21c4.67,0,8.46,3.79,8.46,8.46s-3.79,8.46-8.46,8.46Z"/><line class="aq" x1="319.99" y1="657.09" x2="460.73" y2="657.09"/><line class="aq" x1="319.99" y1="673.04" x2="442.71" y2="673.04"/><line class="aq" x1="319.99" y1="738.21" x2="451.72" y2="738.21"/><line class="aq" x1="319.99" y1="754.15" x2="437.85" y2="754.15"/><line class="aq" x1="319.99" y1="819.32" x2="448.25" y2="819.32"/><line class="aq" x1="319.99" y1="835.26" x2="443.4" y2="835.26"/><path class="as" d="M910.61,896.5c2.8-2.31,5.23-5.07,7.18-8.13,.49-.77,.95-1.57,1.11-2.47,.35-2.02-1.2-4.18-3.23-4.47s-4.14,1.32-4.38,3.36c-.63-1.32-1.51-2.47-2.78-3.18-.99-.55-2.23-.85-3.23-.34-.83,.43-1.33,1.33-1.54,2.24-.79,3.34,1.53,6.55,3.71,9.21,.83,1.01,2.35,2.77,3.18,3.79Z"/></svg>