<?xml version="1.0" standalone="no"?>
<!DOCTYPE svg PUBLIC "-//W3C//DTD SVG 20010904//EN"
 "http://www.w3.org/TR/2001/REC-SVG-20010904/DTD/svg10.dtd">
<svg version="1.0" xmlns="http://www.w3.org/2000/svg"
 width="564.000000pt" height="635.000000pt" viewBox="0 0 564.000000 635.000000"
 preserveAspectRatio="xMidYMid meet">

<g transform="translate(0.000000,635.000000) scale(0.100000,-0.100000)"
fill="#000000" stroke="none">
<path d="M550 6313 c-155 -84 -408 -253 -509 -340 l-41 -35 0 -325 c0 -318 0
-325 18 -302 12 14 25 20 35 16 22 -8 21 -29 -2 -75 -24 -48 -33 -89 -22 -96
5 -3 16 10 25 29 9 19 21 35 26 35 12 0 13 -74 1 -98 -5 -9 -13 -28 -18 -42
-6 -14 -21 -50 -33 -80 -21 -48 -24 -76 -28 -219 l-4 -165 40 36 c22 20 62 46
89 58 26 11 64 36 83 55 51 49 168 111 183 96 8 -8 8 -11 -2 -11 -7 0 -10 -4
-6 -9 3 -5 -4 -12 -15 -16 -11 -3 -28 -16 -37 -29 -10 -12 -25 -20 -33 -18 -8
3 -12 1 -8 -3 4 -4 -2 -21 -13 -36 -19 -28 -19 -29 -2 -29 10 0 29 7 41 16 12
8 28 14 35 11 12 -4 -9 -26 -90 -97 -22 -19 -45 -45 -52 -57 -6 -13 -17 -23
-23 -23 -12 0 -48 -39 -48 -52 0 -5 -4 -6 -10 -3 -6 4 -7 -1 -3 -11 4 -12 3
-15 -5 -10 -7 4 -12 2 -12 -3 0 -6 -11 -21 -25 -33 -14 -12 -25 -27 -25 -34 0
-7 -4 -14 -8 -16 -4 -1 -18 -19 -30 -39 l-22 -36 0 -1082 0 -1081 40 0 c29 0
40 4 40 15 0 8 4 15 9 15 5 0 11 -20 13 -45 2 -31 -1 -45 -9 -45 -8 0 -13 -12
-13 -29 0 -23 6 -30 32 -39 l33 -11 -35 2 c-34 2 -35 4 -38 45 -3 39 -5 42
-31 42 -27 0 -28 -2 -34 -67 -4 -38 -7 -512 -7 -1055 l0 -988 80 0 c80 0 97 9
69 37 -13 13 -8 65 8 70 7 3 16 -18 24 -51 l12 -56 109 0 c59 0 108 4 108 9 0
5 33 18 73 31 107 33 287 112 287 126 0 7 -9 16 -20 19 -11 3 -20 10 -20 15 0
4 -20 16 -45 27 -25 10 -45 21 -45 25 0 14 22 20 29 9 10 -16 128 -71 135 -64
3 4 6 2 6 -4 0 -6 12 -14 27 -18 32 -8 77 -28 223 -98 58 -27 123 -55 145 -61
51 -13 2441 -20 2470 -7 11 5 45 19 75 31 261 106 565 287 815 486 173 138
463 435 580 594 55 74 110 149 122 165 13 17 40 59 60 93 21 35 47 78 57 95
82 136 195 366 203 415 2 13 15 41 29 63 l24 39 -2 572 c-3 524 -4 571 -19
545 l-15 -28 -19 21 c-31 34 -47 85 -66 203 -10 63 -14 75 -25 66 -8 -6 -14
-23 -13 -38 0 -22 1 -23 8 -6 5 12 10 -10 14 -65 4 -46 11 -88 16 -93 7 -7 7
-16 0 -28 -6 -12 -6 -33 0 -60 5 -23 7 -74 4 -112 -5 -52 -3 -68 5 -63 9 5 12
-8 12 -44 0 -35 -4 -49 -11 -44 -8 4 -9 -3 -4 -26 5 -23 4 -30 -4 -26 -6 4
-11 3 -11 -3 0 -5 4 -11 9 -13 20 -7 -56 -442 -95 -542 -5 -13 -4 -17 3 -13 6
4 21 48 33 97 12 50 24 89 27 86 2 -2 -3 -35 -12 -73 -33 -133 -46 -173 -57
-167 -6 4 -14 0 -19 -7 -15 -24 -11 10 10 76 20 67 38 177 19 119 -10 -31 -10
-32 -30 -12 -10 10 -35 48 -54 83 -20 36 -40 65 -45 65 -5 0 -9 7 -9 15 0 8
-5 15 -11 15 -6 0 -9 6 -6 14 3 8 -1 20 -9 26 -8 7 -14 18 -14 25 0 6 -12 34
-27 61 -14 27 -44 85 -66 129 -21 44 -51 98 -66 120 -15 22 -35 58 -45 80 -19
40 -32 68 -100 203 -20 40 -36 81 -36 92 0 10 -4 30 -10 44 -6 16 -6 27 0 31
6 4 10 -2 10 -12 0 -15 2 -16 10 -3 7 11 3 18 -17 26 -18 8 -22 13 -12 17 12
5 12 7 -1 16 -13 9 -12 11 5 11 15 0 16 3 7 12 -7 7 -12 20 -12 29 0 9 -8 20
-17 23 -15 6 -15 8 -3 16 11 7 18 2 27 -18 l13 -27 -5 28 c-4 19 -2 26 5 22 5
-3 10 -1 10 5 0 7 -6 10 -14 7 -8 -3 -17 -3 -21 1 -4 4 -12 7 -17 7 -6 0 -13
5 -15 11 -2 6 10 8 32 6 21 -3 35 0 35 7 0 6 -16 11 -35 11 -27 0 -35 4 -35
18 0 14 2 15 10 2 7 -12 12 -12 22 -2 6 6 21 12 33 13 11 0 14 3 8 6 -27 11 1
73 33 73 5 0 2 -5 -6 -10 -11 -7 0 -10 37 -10 41 0 52 -4 55 -17 3 -13 7 -9
18 15 8 17 17 32 20 32 3 0 11 -14 19 -31 10 -23 16 -28 22 -18 7 11 10 9 15
-8 5 -17 14 -23 35 -23 16 0 29 6 30 13 0 6 5 0 11 -15 5 -16 14 -28 19 -28 5
0 9 12 9 28 1 15 9 43 20 62 18 33 19 33 20 10 l1 -25 18 23 c11 12 29 22 40
22 18 0 21 -6 21 -37 0 -28 3 -34 10 -23 5 8 12 11 16 7 5 -4 13 2 19 14 11
20 13 18 23 -24 7 -25 18 -51 25 -59 8 -7 17 -26 21 -42 4 -15 9 -26 12 -24 2
3 -5 40 -16 83 -20 78 -26 145 -13 145 4 0 17 -9 29 -20 l21 -21 7 31 c11 58
44 19 84 -99 12 -36 22 -79 22 -95 0 -21 3 -27 9 -17 5 7 9 121 9 253 0 193
-3 240 -14 245 -24 9 -25 37 -4 128 20 93 27 177 8 100 -32 -129 -28 -120 -42
-93 -18 35 -46 119 -46 139 0 10 14 24 30 33 26 12 30 12 30 0 0 -8 9 -14 20
-14 19 0 20 7 20 125 0 119 -4 137 -25 116 -6 -5 -28 -11 -50 -12 -22 -1 -47
-6 -55 -10 -8 -4 -22 -2 -31 4 -21 16 -61 95 -54 106 3 5 0 11 -6 13 -8 3 -7
14 3 38 8 20 14 46 12 60 -1 14 -3 31 -3 38 -2 22 -37 13 -47 -13 -9 -25 -11
-23 -52 47 -24 40 -47 80 -53 88 -74 119 -137 235 -129 240 5 3 -9 17 -30 30
-42 26 -48 35 -27 43 7 3 5 6 -6 6 -9 1 -23 12 -29 26 -6 14 -16 25 -22 25
-11 1 -102 118 -177 230 l-44 65 -3 114 c-4 110 -3 115 20 133 l23 18 -32 0
-33 0 0 -120 c0 -66 -2 -120 -5 -120 -3 0 -40 35 -83 78 -43 42 -107 104 -143
137 -36 33 -68 68 -72 77 -3 10 -21 24 -39 31 -19 8 -40 21 -48 29 -25 24
-171 133 -260 193 -132 90 -178 135 -135 135 15 0 55 34 55 48 0 4 16 20 35
35 19 15 35 32 35 37 0 6 -20 10 -45 10 -38 0 -47 -4 -62 -27 -9 -16 -28 -38
-41 -50 -13 -12 -21 -26 -18 -31 7 -12 -36 -25 -44 -13 -3 4 -16 11 -30 14
-14 4 -43 22 -64 42 -37 33 -49 39 -69 36 -4 -1 -10 6 -13 14 -5 13 -184 15
-1568 14 l-1561 -1 -65 -35z m554 -833 c-5 -5 -10 3 -11 18 -1 22 0 24 9 8 6
-10 6 -22 2 -26z m-28 18 c5 -7 3 -8 -6 -3 -9 6 -12 4 -8 -7 4 -8 0 -15 -7
-15 -10 0 -11 5 -4 19 11 21 15 22 25 6z m99 -28 c-3 -5 -12 -10 -18 -10 -7 0
-6 4 3 10 19 12 23 12 15 0z m-80 -78 c-8 -8 -25 10 -19 20 4 6 9 5 15 -3 4
-7 6 -15 4 -17z m-66 -54 c-7 -13 -14 -18 -16 -11 -3 7 2 19 9 27 18 20 22 12
7 -16z m136 -8 c3 -5 1 -10 -4 -10 -6 0 -11 5 -11 10 0 6 2 10 4 10 3 0 8 -4
11 -10z m-155 -34 c0 -3 -4 -8 -10 -11 -5 -3 -10 -1 -10 4 0 6 5 11 10 11 6 0
10 -2 10 -4z m103 -16 c-3 -11 -9 -17 -15 -14 -5 3 -4 12 3 20 16 19 18 18 12
-6z m20 -110 c-10 -11 -19 -20 -21 -20 -1 0 2 9 8 20 6 11 15 20 20 20 6 0 2
-9 -7 -20z m112 -18 l-28 -27 24 31 c13 17 26 30 28 27 3 -2 -8 -16 -24 -31z
m800 -1 c22 -5 34 -9 27 -10 -7 0 -11 -5 -7 -11 3 -5 12 -7 20 -3 9 3 22 0 30
-7 12 -10 15 -9 15 4 0 10 5 14 10 11 6 -4 10 -12 9 -18 -3 -19 12 -47 22 -41
5 3 9 -2 9 -11 0 -11 6 -15 18 -11 12 4 26 -3 40 -19 12 -14 27 -25 33 -25 6
0 8 -8 4 -20 -5 -15 0 -22 17 -29 34 -13 64 -53 72 -94 4 -21 11 -37 16 -37 6
0 10 -7 10 -15 0 -8 5 -15 11 -15 6 0 9 -9 6 -20 -3 -10 1 -24 9 -31 8 -6 12
-15 9 -19 -3 -5 -1 -11 5 -15 6 -4 5 -14 -4 -28 -12 -18 -13 -29 -3 -59 7 -21
17 -38 23 -38 18 0 24 -38 8 -51 -8 -7 -13 -18 -10 -26 3 -7 -3 -22 -14 -33
-11 -11 -20 -29 -20 -40 0 -14 -5 -18 -17 -13 -10 4 -14 2 -9 -5 3 -6 2 -13
-4 -17 -5 -3 -10 2 -10 11 0 16 -2 16 -20 -1 -16 -14 -23 -16 -32 -7 -18 18
-30 14 -23 -7 5 -17 0 -21 -30 -27 -26 -5 -35 -10 -30 -21 3 -11 1 -13 -10 -9
-14 5 -19 -6 -18 -42 1 -7 -10 -20 -23 -29 -13 -8 -24 -20 -24 -27 -1 -6 -14
-27 -30 -46 -17 -19 -30 -42 -30 -52 0 -9 -4 -19 -9 -23 -5 -3 -15 -31 -21
-63 -7 -31 -18 -76 -26 -100 -10 -32 -14 -92 -13 -231 2 -215 -4 -239 -60
-254 -26 -6 -31 -11 -20 -17 22 -14 -19 -41 -51 -34 -20 4 -23 3 -12 -7 16
-17 16 -32 -1 -26 -10 4 -12 -3 -9 -24 3 -20 0 -29 -9 -29 -8 0 -22 -26 -34
-61 -16 -52 -24 -64 -52 -75 -18 -8 -54 -14 -81 -14 -26 0 -53 -5 -59 -11 -16
-16 -117 -2 -142 20 -12 10 -22 31 -22 47 -2 27 -2 27 -9 -6 l-7 -35 -11 27
c-6 15 -14 50 -18 78 -5 37 -10 48 -16 38 -7 -9 -8 -7 -5 9 3 13 1 40 -5 60
-35 134 -53 376 -28 385 5 2 12 30 15 63 5 75 5 75 15 45 7 -23 8 -22 10 10 1
29 3 32 10 15 8 -20 11 -18 14 8 0 6 8 13 16 13 8 1 17 2 20 3 24 8 109 8 105
0 -4 -5 -1 -9 4 -9 6 0 11 8 11 18 0 14 2 15 10 2 7 -12 11 -12 28 3 11 10 36
21 56 24 26 4 41 14 53 34 11 19 26 29 40 29 20 0 23 4 19 28 -5 26 -4 26 9 8
8 -11 15 -26 15 -33 0 -26 17 -12 29 25 13 39 9 115 -7 135 -15 19 -24 67 -12
67 5 0 10 -5 10 -11 0 -16 20 0 31 25 8 18 9 17 4 -6 -3 -16 -1 -28 5 -28 5 0
13 12 16 28 4 15 11 32 15 38 10 12 -8 75 -25 86 -6 4 -16 6 -23 4 -6 -3 -14
2 -17 9 -8 22 -77 62 -144 84 -34 11 -92 38 -130 60 -37 23 -72 41 -76 41 -12
0 -36 27 -29 34 4 3 1 6 -5 6 -6 0 -14 -16 -18 -35 -3 -19 -10 -35 -14 -35 -5
0 -11 -17 -15 -38 -3 -21 -14 -51 -24 -66 l-18 -28 -7 27 c-4 15 -5 30 -1 33
3 3 5 -3 5 -14 1 -42 33 65 36 121 4 75 32 204 34 160 l2 -30 8 35 c5 21 5 36
-1 38 -5 2 -9 13 -9 25 0 16 3 18 9 8 6 -9 11 2 15 33 4 25 12 48 17 52 6 3 8
-5 5 -19 -13 -74 -28 -219 -22 -224 3 -4 6 7 7 23 1 16 5 40 10 54 7 20 8 18
5 -15 -2 -22 -2 -34 1 -27 2 6 10 9 15 6 6 -4 8 -2 4 4 -3 6 5 23 19 38 13 14
22 30 20 34 -3 4 1 10 8 13 7 3 27 33 45 68 43 83 74 128 90 129 6 0 12 6 12
13 0 20 35 57 53 57 8 0 17 7 21 15 3 8 15 15 26 15 11 0 20 7 20 16 0 8 4 12
10 9 5 -3 18 -1 27 4 19 11 108 6 178 -8z m-954 -28 c-8 -15 -10 -15 -11 -2 0
17 10 32 18 25 2 -3 -1 -13 -7 -23z m109 -26 c0 -2 -10 -12 -22 -23 l-23 -19
19 23 c18 21 26 27 26 19z m310 -77 c-7 -28 -14 -49 -16 -47 -3 2 1 27 8 55 6
29 13 50 16 47 2 -2 -1 -27 -8 -55z m-364 -7 c-14 -15 -32 -37 -39 -47 -14
-19 -14 -19 -12 0 1 24 14 46 23 40 4 -2 16 7 27 20 11 12 21 21 24 19 2 -2
-8 -17 -23 -32z m296 -25 c-7 -7 -12 -8 -12 -2 0 14 12 26 19 19 2 -3 -1 -11
-7 -17z m-26 -46 c-18 -16 -18 -16 -6 6 6 13 14 21 18 18 3 -4 -2 -14 -12 -24z
m2664 -3 c0 -5 -19 -8 -42 -8 -30 2 -35 3 -15 6 15 2 27 8 27 13 0 5 7 7 15 4
8 -4 15 -10 15 -15z m-808 -13 c7 4 8 2 4 -4 -4 -7 -3 -12 3 -12 5 0 15 8 20
18 8 12 13 14 18 6 13 -19 149 -23 138 -4 -3 6 -1 10 4 10 6 0 11 -6 11 -12 0
-9 4 -8 10 2 8 13 10 13 10 -2 0 -12 6 -15 23 -11 12 3 19 3 15 -2 -4 -4 -68
-9 -142 -11 -114 -2 -135 -1 -140 13 -3 8 -12 13 -19 10 -8 -3 -20 -1 -28 5
-11 8 -11 9 3 4 10 -3 20 -1 23 5 4 5 13 3 21 -6 9 -8 20 -12 26 -9z m471 -6
c4 0 6 4 3 8 -2 4 11 9 29 10 28 2 33 -1 29 -13 -3 -8 -10 -15 -16 -15 -5 0
-6 5 -3 10 3 6 -1 10 -10 10 -9 0 -13 -4 -10 -10 7 -11 -7 -13 -123 -12 -57 1
-87 5 -97 15 -12 12 -4 14 56 14 42 0 69 -5 69 -11 0 -6 5 -3 11 7 9 16 12 16
32 2 12 -8 25 -15 30 -15z m-673 11 c0 -4 10 -7 23 -7 12 1 28 -2 34 -7 9 -6
15 -4 19 7 7 18 30 22 36 5 2 -6 16 -11 31 -11 55 0 25 -15 -32 -17 -69 -1
-99 -11 -147 -47 -24 -18 -34 -34 -32 -48 2 -15 -2 -20 -14 -18 -10 2 -18 -2
-18 -8 0 -6 -4 -8 -10 -5 -5 3 -10 19 -10 36 0 16 5 29 10 29 6 0 9 3 8 8 -1
4 9 24 21 45 18 28 28 36 42 32 11 -4 19 -2 19 4 0 6 5 11 10 11 6 0 10 -4 10
-9z m893 2 c-7 -2 -19 -2 -25 0 -7 3 -2 5 12 5 14 0 19 -2 13 -5z m-3043 -23
c0 -11 -6 -20 -12 -20 -18 0 -114 -74 -110 -84 2 -5 -2 -13 -10 -17 -10 -7
-10 -9 2 -9 8 0 33 11 55 25 56 34 72 32 45 -5 -12 -16 -18 -30 -13 -30 15 0
-42 -34 -58 -35 -9 0 -44 -26 -78 -57 -67 -64 -182 -138 -212 -138 -11 0 -22
-6 -25 -14 -3 -8 -23 -21 -45 -30 -21 -9 -44 -25 -51 -36 -7 -11 -17 -20 -23
-20 -15 0 -158 -108 -216 -162 -11 -10 -24 -18 -29 -18 -6 0 -13 -7 -16 -15
-4 -8 -12 -15 -18 -15 -7 0 -19 -11 -26 -25 -7 -13 -17 -22 -22 -19 -4 3 -8 0
-8 -5 0 -6 -9 -20 -20 -31 l-20 -20 0 59 c0 53 4 63 40 108 22 28 57 79 78
114 42 69 40 68 357 229 44 22 89 49 100 59 11 11 40 32 65 48 25 15 71 54
103 86 84 83 167 121 167 77z m3313 -33 c38 -25 53 -62 60 -144 5 -68 4 -75
-19 -103 -39 -45 -50 -36 -15 12 17 23 31 47 31 52 0 6 -9 -3 -20 -21 -37 -62
-57 -68 -240 -71 -147 -3 -169 -1 -200 16 -108 59 -97 226 17 268 59 22 349
15 386 -9z m-2852 -24 c-8 -15 -10 -15 -11 -2 0 17 10 32 18 25 2 -3 -1 -13
-7 -23z m3119 -8 c-9 -11 -11 -44 -7 -125 3 -61 9 -115 12 -120 3 -6 2 -10 -3
-10 -15 0 -26 -90 -13 -103 6 -6 11 -23 11 -37 0 -15 3 -30 7 -33 11 -12 12
-61 1 -74 -8 -11 -7 -12 7 -6 14 5 17 3 12 -10 -3 -8 -1 -17 5 -19 7 -3 4 -10
-5 -20 -15 -14 -15 -17 -1 -22 9 -3 21 -3 26 1 6 3 8 1 5 -4 -4 -6 0 -16 8
-23 8 -7 15 -20 15 -29 0 -9 6 -25 14 -36 19 -28 35 -111 33 -176 -2 -40 1
-55 10 -52 7 3 10 -3 8 -14 -13 -66 -17 -74 -28 -70 -9 3 -12 -4 -11 -22 2
-37 2 -38 19 -45 19 -7 19 -1 -1 18 -14 14 -13 18 3 40 22 31 43 41 43 21 0
-8 -4 -15 -9 -15 -5 0 -12 -7 -15 -16 -4 -11 -1 -14 13 -9 17 5 18 0 17 -57
-3 -120 33 -288 60 -288 19 0 22 -31 7 -67 -7 -18 -11 -33 -9 -33 9 0 36 63
30 71 -3 5 2 6 11 3 10 -4 14 -13 10 -23 -3 -9 6 -2 19 14 14 17 25 25 26 18
0 -6 -5 -15 -10 -18 -6 -3 -7 -17 -4 -31 6 -25 -10 -35 -19 -11 -6 14 -10 -16
-7 -50 1 -13 -4 -23 -12 -23 -10 0 -10 -2 1 -9 9 -6 10 -11 2 -15 -13 -9 -34
41 -24 57 3 7 -3 4 -14 -5 -11 -10 -27 -18 -36 -18 -30 0 -26 -16 8 -29 19 -7
43 -23 54 -37 11 -14 25 -23 31 -19 5 3 10 2 10 -4 0 -5 -5 -13 -10 -16 -7 -4
-8 -11 -1 -18 5 -7 11 -32 13 -57 2 -25 7 -50 11 -57 9 -14 -1 -43 -15 -43 -5
0 -7 -4 -4 -8 9 -15 -34 -121 -58 -146 -13 -12 -25 -29 -28 -37 -4 -11 -8 -11
-19 -2 -8 6 -36 14 -64 18 -27 4 -56 14 -62 23 -8 9 -13 11 -13 4 0 -7 -4 -12
-10 -12 -5 0 -10 11 -10 25 0 14 -6 25 -13 25 -7 0 -27 13 -45 30 -18 16 -37
30 -42 30 -5 0 -13 6 -17 14 -4 7 -23 21 -40 30 -40 20 -40 28 -8 70 23 31 25
41 25 147 1 84 3 109 11 96 6 -10 9 -28 7 -40 -1 -13 7 -38 18 -56 l21 -33 11
29 c7 23 7 30 -3 30 -7 0 -10 -9 -7 -21 4 -21 4 -21 -11 -1 -21 26 -21 79 0
127 19 42 27 47 37 21 5 -11 -1 -23 -15 -34 -12 -9 -19 -22 -16 -30 4 -10 6
-8 6 5 1 11 6 16 15 13 20 -8 37 13 26 33 -36 66 -69 280 -70 440 0 47 -4 110
-8 140 l-7 55 -6 -55 -6 -55 -1 58 c-1 31 2 57 7 57 9 0 7 64 -6 150 l-7 45
-7 -55 c-5 -48 -6 -42 -7 40 -1 52 -9 149 -17 215 -26 209 -18 265 49 330 56
55 118 98 86 60z m-3078 -77 c-7 -7 -12 -8 -12 -2 0 14 12 26 19 19 2 -3 -1
-11 -7 -17z m-21 -79 c-6 -16 -10 -18 -10 -7 -1 22 12 55 16 42 2 -6 -1 -22
-6 -35z m1579 -11 c0 -16 -4 -28 -9 -28 -12 0 -24 56 -15 71 10 16 24 -9 24
-43z m-1896 -92 c-3 -15 -8 -25 -11 -23 -2 3 -1 17 3 31 3 15 8 25 11 23 2 -3
1 -17 -3 -31z m3513 2 c-3 -7 -5 -2 -5 12 0 14 2 19 5 13 2 -7 2 -19 0 -25z
m-3668 -4 c14 9 14 0 1 -25 -15 -28 14 -37 50 -15 36 20 57 21 37 1 -9 -8 -17
-20 -19 -26 -4 -11 -42 -15 -73 -9 -6 2 -20 2 -33 1 -18 -1 -22 -5 -17 -20 4
-13 -3 -29 -24 -50 -35 -36 -51 -39 -51 -11 0 21 -15 27 -25 10 -4 -6 -11 -8
-16 -5 -5 4 -23 -3 -39 -15 -25 -18 -33 -20 -46 -9 -12 10 -20 7 -42 -14 -16
-15 -33 -27 -39 -27 -6 0 -16 -7 -23 -15 -9 -10 -17 -12 -23 -6 -6 6 -18 6
-33 -2 -17 -7 -28 -7 -35 0 -14 14 71 68 141 89 30 9 62 19 70 22 8 3 19 4 23
3 5 -1 24 12 43 29 19 16 41 31 49 32 8 0 21 1 28 2 6 1 25 18 41 39 19 26 31
35 36 26 4 -6 13 -8 19 -5z m2065 -141 c4 -87 11 -241 17 -342 8 -165 8 -204
-5 -190 -3 4 -16 278 -21 459 -1 41 -5 110 -10 153 -5 50 -4 77 3 77 6 0 12
-63 16 -157z m-1547 100 c-3 -10 -5 -4 -5 12 0 17 2 24 5 18 2 -7 2 -21 0 -30z
m1573 27 c0 -5 -2 -10 -4 -10 -3 0 -8 5 -11 10 -3 6 -1 10 4 10 6 0 11 -4 11
-10z m-1833 -22 c-3 -8 -6 -5 -6 6 -1 11 2 17 5 13 3 -3 4 -12 1 -19z m2473
-13 c0 -5 -5 -3 -10 5 -5 8 -10 20 -10 25 0 6 5 3 10 -5 5 -8 10 -19 10 -25z
m53 20 c-3 -9 -8 -14 -10 -11 -3 3 -2 9 2 15 9 16 15 13 8 -4z m551 -81 c3 -8
2 -12 -4 -9 -6 3 -10 10 -10 16 0 14 7 11 14 -7z m-3799 -144 c-3 -5 -11 -10
-16 -10 -6 0 -7 5 -4 10 3 6 11 10 16 10 6 0 7 -4 4 -10z m-5 -30 c0 -5 -4
-10 -10 -10 -5 0 -10 5 -10 10 0 6 5 10 10 10 6 0 10 -4 10 -10z m3250 -14 c0
-2 -7 -7 -16 -10 -8 -3 -12 -2 -9 4 6 10 25 14 25 6z m-2749 -145 c-6 -11 -11
-33 -11 -50 0 -16 -4 -32 -9 -35 -11 -7 -4 80 9 105 6 10 11 30 12 46 1 22 2
20 5 -9 2 -20 -1 -46 -6 -57z m601 22 c-3 -28 -1 -43 7 -43 6 0 11 -7 11 -16
0 -13 -9 -15 -53 -10 -65 6 -87 14 -87 32 0 8 -6 11 -15 8 -18 -7 -19 5 -1 28
7 10 17 14 22 10 4 -4 2 1 -5 11 -12 15 -11 17 3 17 10 0 15 4 11 9 -7 13 75
19 96 7 12 -7 15 -19 11 -53z m2125 15 c-3 -7 -5 -2 -5 12 0 14 2 19 5 13 2
-7 2 -19 0 -25z m-30 -26 c-14 -17 -16 -12 -10 23 5 25 7 27 13 10 4 -11 3
-26 -3 -33z m68 8 c3 -5 1 -18 -5 -27 -9 -15 -10 -14 -4 6 4 16 3 21 -5 17 -6
-4 -11 -2 -11 3 0 14 17 14 25 1z m-158 -22 c-3 -8 -6 -5 -6 6 -1 11 2 17 5
13 3 -3 4 -12 1 -19z m120 -20 c-3 -8 -6 -5 -6 6 -1 11 2 17 5 13 3 -3 4 -12
1 -19z m696 -20 c-10 -22 -11 -21 -10 10 0 22 3 30 10 23 7 -7 7 -18 0 -33z
m-1026 -44 c-3 -3 -12 -4 -19 -1 -8 3 -5 6 6 6 11 1 17 -2 13 -5z m-2371 -50
c-4 -20 -10 -34 -12 -31 -3 3 -2 21 2 41 3 21 9 35 11 32 3 -3 2 -21 -1 -42z
m2224 36 c0 -5 -2 -10 -4 -10 -3 0 -8 5 -11 10 -3 6 -1 10 4 10 6 0 11 -4 11
-10z m-755 -20 c-3 -4 2 -24 10 -44 20 -46 20 -46 -15 -46 -33 0 -80 19 -80
32 0 21 31 67 47 70 23 5 44 -2 38 -12z m639 -4 c-8 -20 -24 -21 -24 0 0 8 5
12 10 9 6 -3 10 -1 10 6 0 7 2 10 5 7 3 -3 3 -13 -1 -22z m116 0 c0 -3 -4 -8
-10 -11 -5 -3 -10 -1 -10 4 0 6 5 11 10 11 6 0 10 -2 10 -4z m-2263 -53 c-3
-10 -5 -4 -5 12 0 17 2 24 5 18 2 -7 2 -21 0 -30z m2153 18 c-5 -11 -15 -23
-22 -27 -7 -5 -8 -2 -3 7 21 37 44 55 25 20z m-1693 -23 c-3 -8 -6 -5 -6 6 -1
11 2 17 5 13 3 -3 4 -12 1 -19z m-430 -50 c-3 -7 -5 -2 -5 12 0 14 2 19 5 13
2 -7 2 -19 0 -25z m-40 0 c-3 -8 -6 -5 -6 6 -1 11 2 17 5 13 3 -3 4 -12 1 -19z
m-717 -17 c0 -6 -4 -13 -10 -16 -5 -3 -10 1 -10 9 0 9 5 16 10 16 6 0 10 -4
10 -9z m2797 -23 c-3 -7 -5 -2 -5 12 0 14 2 19 5 13 2 -7 2 -19 0 -25z m2413
-27 c0 -30 -4 -40 -19 -44 -25 -6 -31 0 -31 30 0 15 -4 22 -11 17 -7 -4 -10
-2 -8 5 3 7 8 12 12 11 4 0 15 6 23 15 22 22 34 10 34 -34z m-2350 35 c0 -3
-4 -8 -10 -11 -5 -3 -10 -1 -10 4 0 6 5 11 10 11 6 0 10 -2 10 -4z m-2144 -40
c0 -14 -5 -21 -9 -17 -4 4 -5 15 -1 24 9 24 12 21 10 -7z m441 2 c-3 -8 -6 -5
-6 6 -1 11 2 17 5 13 3 -3 4 -12 1 -19z m4133 -27 c0 -20 -2 -23 -10 -11 -9
14 -14 7 -11 -13 1 -5 -3 -6 -9 -2 -11 7 -14 58 -3 68 12 12 33 -15 33 -42z
m-5295 -32 c-3 -76 -15 -71 -15 7 0 41 4 64 9 56 4 -8 7 -36 6 -63z m2862 65
c-3 -3 -12 -4 -19 -1 -8 3 -5 6 6 6 11 1 17 -2 13 -5z m-2162 -44 c3 -5 1 -10
-4 -10 -6 0 -11 5 -11 10 0 6 2 10 4 10 3 0 8 -4 11 -10z m-42 -25 c-10 -13
-24 -25 -30 -25 -7 0 -13 -7 -13 -16 0 -9 -5 -12 -12 -8 -8 5 -9 2 -5 -10 4
-9 3 -14 -2 -11 -5 3 -12 1 -16 -5 -3 -5 -1 -10 5 -10 7 0 10 -16 7 -45 -2
-24 0 -42 4 -40 9 6 20 -38 11 -47 -18 -18 -34 13 -38 77 -3 60 -1 71 22 101
15 19 33 34 41 34 7 0 16 7 19 15 4 8 10 15 16 15 5 0 1 -11 -9 -25z m104 -7
c-3 -8 -6 -5 -6 6 -1 11 2 17 5 13 3 -3 4 -12 1 -19z m342 -85 c8 -60 15 -119
17 -133 2 -14 15 -68 28 -120 26 -96 47 -267 26 -205 -15 42 -50 213 -50 240
0 12 -7 35 -14 51 -8 15 -13 31 -10 36 3 4 0 8 -5 8 -14 0 -14 -47 -1 -55 6
-3 10 -26 10 -51 0 -24 4 -44 9 -44 5 0 12 -28 16 -62 4 -35 11 -72 15 -83 4
-11 11 -44 15 -74 5 -40 4 -52 -5 -46 -6 4 -9 14 -6 22 3 8 -1 21 -9 29 -13
14 -15 13 -15 -6 0 -33 -18 -13 -26 28 -4 20 -10 39 -14 42 -9 6 -13 32 -11
74 1 21 5 27 16 22 11 -4 15 2 15 20 0 16 -4 23 -11 18 -8 -4 -9 4 -5 27 4 23
3 27 -2 14 -8 -17 -10 -16 -17 10 -13 42 -14 58 -19 165 -1 52 -1 78 1 58 2
-21 8 -38 13 -38 5 0 7 6 5 13 -9 27 -13 120 -5 107 5 -8 12 -11 17 -7 4 4 2
17 -5 27 -10 16 -10 20 1 20 10 0 17 -31 26 -107z m-381 48 c3 -8 -1 -12 -9
-9 -7 2 -15 10 -17 17 -3 8 1 12 9 9 7 -2 15 -10 17 -17z m-395 -55 c5 14 15
20 30 19 12 -1 27 -3 33 -4 7 0 15 -13 19 -28 3 -15 12 -31 18 -35 8 -5 6 -8
-5 -8 -13 0 -18 -8 -18 -27 0 -21 3 -24 12 -15 21 21 28 13 28 -27 0 -22 -6
-44 -15 -51 -12 -10 -15 -9 -15 6 0 16 -2 17 -10 4 -8 -12 -10 -12 -10 -1 0
10 -3 11 -13 2 -8 -6 -17 -8 -20 -4 -4 3 -7 1 -7 -5 0 -7 -7 -12 -15 -12 -12
0 -15 16 -15 80 0 47 -4 80 -10 80 -5 0 -10 12 -9 28 l1 27 7 -25 c7 -24 8
-24 14 -4z m-311 -36 c4 -13 5 -35 2 -47 -10 -37 -34 -9 -34 38 0 44 20 50 32
9z m4604 -7 c-10 -10 -19 5 -10 18 6 11 8 11 12 0 2 -7 1 -15 -2 -18z m21 -5
c-3 -7 -5 -2 -5 12 0 14 2 19 5 13 2 -7 2 -19 0 -25z m143 12 c0 -5 -4 -10
-10 -10 -5 0 -10 5 -10 10 0 6 5 10 10 10 6 0 10 -4 10 -10z m-4103 -22 c-3
-8 -6 -5 -6 6 -1 11 2 17 5 13 3 -3 4 -12 1 -19z m3531 -3 c-3 -3 -9 2 -12 12
-6 14 -5 15 5 6 7 -7 10 -15 7 -18z m-3431 -17 c-3 -8 -6 -5 -6 6 -1 11 2 17
5 13 3 -3 4 -12 1 -19z m3868 -17 c-3 -12 -10 -21 -15 -21 -4 0 -3 11 3 24 14
29 22 27 12 -3z m-1228 3 c-3 -3 -12 -4 -19 -1 -8 3 -5 6 6 6 11 1 17 -2 13
-5z m-3567 -14 c0 -5 -4 -10 -10 -10 -5 0 -10 5 -10 10 0 6 5 10 10 10 6 0 10
-4 10 -10z m937 -12 c-3 -8 -6 -5 -6 6 -1 11 2 17 5 13 3 -3 4 -12 1 -19z
m2580 16 c-3 -3 -12 -4 -19 -1 -8 3 -5 6 6 6 11 1 17 -2 13 -5z m843 -34 c0
-13 -1 -13 -10 0 -5 8 -10 22 -10 30 0 13 1 13 10 0 5 -8 10 -22 10 -30z
m-900 15 c-28 -16 -19 -19 25 -7 40 12 172 -2 237 -24 29 -10 57 -17 63 -15 5
1 7 -1 3 -5 -4 -3 13 -22 38 -41 42 -32 104 -106 104 -124 0 -4 -25 18 -56 49
-52 51 -58 54 -70 38 -7 -11 -18 -15 -25 -10 -8 4 -10 3 -5 -4 4 -7 1 -12 -7
-12 -8 0 -30 -23 -48 -51 -18 -28 -39 -57 -46 -65 -8 -8 -13 -14 -11 -15 32
-7 37 -6 35 13 -1 12 4 23 11 25 6 3 12 -1 12 -7 0 -17 -58 -131 -78 -152 -14
-16 -14 -20 2 -36 15 -18 15 -21 -6 -48 l-22 -29 27 24 c15 14 27 30 27 37 0
6 7 17 16 25 14 11 15 9 8 -27 -4 -21 -11 -49 -15 -62 -15 -39 -2 -66 39 -79
28 -9 40 -9 51 0 8 7 15 11 15 9 2 -7 36 11 36 19 0 5 9 23 21 41 20 32 21 32
15 6 -5 -22 -3 -26 9 -22 8 4 15 14 15 23 1 14 2 14 14 -1 18 -25 26 -22 26 7
0 14 3 25 8 26 66 10 91 1 55 -20 -10 -5 -15 -13 -11 -16 4 -4 13 -3 20 1 19
13 78 32 78 26 0 -2 -8 -11 -17 -18 -16 -12 -16 -15 -3 -24 8 -5 21 -8 28 -5
6 2 12 -3 12 -11 0 -13 10 -15 50 -12 31 2 46 0 40 -7 -6 -5 -10 -15 -10 -23
0 -9 7 -6 18 9 l19 22 -2 -31 c-1 -23 1 -29 10 -22 8 6 18 5 29 -3 17 -12 17
-15 2 -29 -21 -21 -20 -29 0 -21 12 4 15 2 12 -8 -3 -8 -13 -14 -24 -15 -35
-2 -39 -4 -25 -13 12 -8 12 -12 2 -24 -8 -11 -9 -17 -1 -22 15 -9 2 -25 -15
-18 -9 3 -15 -1 -15 -10 0 -9 -9 -19 -20 -22 -24 -8 -25 -18 -5 -35 9 -7 22
-9 32 -5 21 9 43 16 60 17 6 1 9 7 6 15 -3 7 -10 10 -16 6 -6 -4 -7 -1 -2 6 5
9 10 10 18 2 7 -7 16 3 31 32 32 64 98 116 115 90 3 -6 31 -13 61 -17 30 -4
60 -12 67 -18 10 -8 18 -7 31 4 11 11 24 13 37 8 20 -8 20 -9 -1 -9 -21 -1
-30 -31 -9 -31 25 0 65 -26 65 -42 0 -10 9 -27 20 -38 11 -11 20 -22 20 -25 0
-3 11 -17 25 -31 29 -29 30 -31 10 -31 -8 0 -15 7 -15 15 0 9 -6 12 -16 8 -8
-3 -23 -2 -33 3 -10 6 -23 6 -32 0 -11 -7 -11 -9 0 -9 7 0 11 -6 8 -15 -4 -8
-2 -17 4 -20 8 -6 -4 -17 -50 -52 -2 -1 2 -10 10 -19 11 -14 10 -16 -11 -12
-19 2 -25 -1 -25 -17 0 -11 -3 -24 -6 -30 -4 -5 -7 -26 -7 -45 0 -19 -7 -39
-15 -45 -16 -11 -26 -79 -15 -90 8 -9 -11 -65 -23 -65 -5 0 -9 -8 -9 -18 0
-24 -19 -42 -36 -35 -8 3 -14 0 -14 -6 0 -7 -6 -11 -13 -9 -6 2 -33 -10 -59
-26 -45 -30 -46 -30 -47 -85 -1 -86 -3 -94 -27 -113 -21 -17 -21 -20 -7 -48 8
-17 19 -30 25 -30 6 0 4 -8 -5 -18 -19 -21 -23 -42 -5 -24 19 19 40 15 33 -7
-5 -16 -2 -18 17 -14 13 4 26 11 30 16 4 7 12 6 22 -2 9 -8 16 -10 16 -6 0 4
7 2 15 -5 8 -7 22 -9 31 -6 13 5 15 2 11 -14 -4 -15 0 -20 16 -20 31 -1 59
-24 51 -44 -4 -10 0 -18 10 -22 9 -3 16 -10 16 -16 0 -5 -5 -6 -11 -2 -8 4 -9
-3 -4 -25 5 -23 3 -31 -7 -31 -15 0 -20 -47 -7 -72 6 -10 5 -19 -1 -23 -18
-11 -10 -22 30 -40 22 -10 40 -21 40 -25 0 -9 56 -27 129 -41 35 -7 73 -21 83
-31 29 -29 69 -33 96 -8 22 20 22 21 22 1 0 -15 -5 -19 -17 -14 -13 5 -15 2
-10 -11 4 -10 1 -27 -5 -39 -7 -12 -11 -25 -10 -29 1 -5 -2 -8 -7 -8 -5 0 -12
-8 -15 -18 -4 -10 -15 -27 -25 -39 -16 -16 -17 -23 -6 -42 10 -20 13 -21 18
-7 5 12 3 15 -6 10 -8 -5 -8 -2 2 9 7 9 17 15 21 12 5 -3 15 9 24 26 13 26 13
30 1 25 -9 -3 -12 0 -8 9 3 8 10 12 16 8 5 -3 7 -2 4 4 -4 6 20 51 53 101 33
50 60 93 60 95 0 3 17 34 38 68 21 35 60 108 87 162 49 100 73 127 36 40 -20
-46 -20 -47 -1 -23 11 14 20 29 20 34 0 5 2 7 5 4 3 -3 -6 -31 -22 -62 -18
-38 -30 -52 -36 -43 -5 8 -6 4 -2 -9 6 -24 -46 -124 -153 -294 -19 -30 -57
-85 -84 -122 -27 -37 -47 -72 -43 -78 4 -6 1 -9 -6 -8 -6 2 -14 -3 -17 -11 -3
-10 0 -11 9 -5 9 5 8 -1 -4 -19 -10 -15 -15 -32 -12 -37 3 -6 2 -10 -4 -10 -6
0 -8 -7 -5 -15 4 -10 0 -15 -16 -15 -18 0 -20 -4 -14 -22 6 -20 5 -21 -8 -10
-13 10 -18 9 -29 -5 -13 -17 -12 -17 4 -4 17 13 18 12 11 -15 -3 -16 -28 -51
-55 -78 -27 -27 -49 -53 -49 -57 0 -15 -38 -30 -45 -19 -4 6 -1 9 6 8 6 -2 14
3 17 11 3 9 0 11 -8 6 -17 -10 4 27 24 45 9 7 16 19 16 27 0 13 3 13 15 3 13
-11 14 -10 10 2 -5 14 52 96 102 146 7 7 13 19 13 25 0 7 -12 -3 -27 -22 -15
-19 -50 -59 -77 -89 -28 -31 -50 -61 -50 -69 1 -7 -2 -11 -6 -8 -4 2 -18 -4
-30 -15 -13 -11 -25 -20 -27 -20 -8 0 32 49 40 50 5 0 5 5 1 12 -4 6 -3 8 3 5
6 -4 14 0 17 9 3 8 2 12 -4 9 -6 -3 -10 -1 -10 4 0 6 6 11 13 11 7 0 13 12 14
28 1 15 -1 21 -4 15 -7 -19 -23 -16 -23 5 -1 11 -6 6 -15 -13 -13 -29 -13 -28
-9 25 2 40 1 47 -4 25 l-8 -30 -8 34 c-5 20 -4 36 2 40 5 3 12 17 16 31 6 19
5 21 -3 10 -6 -8 -11 -10 -12 -5 0 6 -4 1 -8 -10 -6 -16 -11 -7 -21 40 -6 33
-26 114 -42 180 -17 66 -33 132 -35 146 -3 14 -17 33 -31 42 -15 9 -79 66
-142 127 -63 62 -107 106 -97 100 15 -11 17 -10 12 2 -4 10 2 18 17 23 39 12
-5 18 -48 6 -45 -12 -74 4 -106 60 -12 21 -29 41 -37 44 -9 3 -30 18 -47 34
-17 16 -44 35 -60 43 -35 18 -194 61 -200 55 -3 -3 -22 -1 -42 4 -82 20 -141
30 -208 34 -39 3 -90 12 -113 20 -41 14 -41 14 -36 -8 12 -48 23 -132 18 -137
-3 -3 -8 1 -10 8 -3 7 -11 19 -19 26 -8 8 -12 20 -11 28 2 7 2 10 0 6 -9 -15
-25 -8 -19 8 3 8 2 13 -3 9 -5 -3 -20 9 -32 27 -13 18 -29 37 -36 41 -7 4 -13
21 -13 37 0 16 -6 34 -12 39 -7 6 -28 22 -45 37 -21 16 -33 35 -33 50 0 22 4
24 44 24 62 0 106 -10 106 -25 0 -8 12 -11 38 -8 20 2 66 5 102 7 36 3 101 14
145 25 44 12 101 21 128 21 26 0 47 5 47 10 0 6 -4 10 -10 10 -5 0 -10 12 -10
28 1 27 1 26 17 -8 12 -25 17 -30 20 -18 2 9 -1 27 -7 39 -7 12 -8 19 -3 16 5
-3 9 6 8 20 0 22 7 28 40 38 l40 11 -57 0 c-45 -1 -58 -4 -58 -16 0 -9 5 -21
12 -28 9 -9 9 -12 0 -12 -7 0 -12 4 -12 8 0 4 -8 8 -17 9 -63 5 -149 25 -204
49 -53 22 -85 28 -189 35 -69 4 -128 7 -132 8 -5 1 -8 19 -8 41 0 35 -4 42
-27 51 -16 6 -39 12 -53 14 -14 2 -49 12 -78 23 -36 14 -52 16 -56 8 -2 -6 -5
-4 -5 5 -1 9 -9 19 -18 22 -26 8 -144 56 -172 70 -13 7 -36 30 -50 51 -14 22
-38 54 -53 70 -45 50 -31 105 27 106 77 1 154 -10 195 -28 25 -11 81 -25 126
-32 44 -6 114 -23 155 -39 41 -15 98 -34 127 -41 59 -14 48 -21 128 79 35 45
36 45 13 53 -12 5 -23 7 -24 6 -1 -2 -10 -18 -21 -36 l-20 -32 -35 27 c-20 15
-50 46 -67 69 -28 36 -42 44 -110 63 -42 13 -106 34 -141 47 -35 14 -66 23
-69 20 -3 -3 -10 0 -16 8 -6 8 -34 21 -62 30 -53 17 -59 22 -136 104 -78 84
-59 141 50 148 26 2 64 6 85 10 23 4 65 0 105 -10 37 -9 102 -23 144 -31 43
-9 80 -20 83 -26 11 -17 21 -10 38 26 23 49 97 127 114 121 8 -3 11 -1 8 4 -4
6 13 19 37 30 50 23 75 26 38 5z m-2272 -46 c-3 -33 -4 -33 -8 8 -3 23 -2 39
3 34 5 -5 7 -24 5 -42z m-414 15 c5 -14 4 -15 -9 -4 -17 14 -19 20 -6 20 5 0
12 -7 15 -16z m169 -27 c-9 -15 -21 4 -15 25 5 21 6 21 12 2 4 -10 5 -22 3
-27z m-133 19 c0 -3 -4 -8 -10 -11 -5 -3 -10 -1 -10 4 0 6 5 11 10 11 6 0 10
-2 10 -4z m3537 -33 c-3 -10 -5 -4 -5 12 0 17 2 24 5 18 2 -7 2 -21 0 -30z
m20 15 c-3 -8 -6 -5 -6 6 -1 11 2 17 5 13 3 -3 4 -12 1 -19z m20 0 c-3 -8 -6
-5 -6 6 -1 11 2 17 5 13 3 -3 4 -12 1 -19z m-3531 -20 c-9 -5 -17 -21 -17 -36
-1 -19 -3 -22 -6 -8 -6 23 16 68 30 59 5 -3 2 -10 -7 -15z m61 -35 c-3 -10 -5
-4 -5 12 0 17 2 24 5 18 2 -7 2 -21 0 -30z m33 10 c0 -16 3 -39 6 -53 4 -18 3
-21 -4 -10 -14 22 -22 90 -11 90 5 0 9 -12 9 -27z m270 -69 c0 -12 -5 -26 -11
-30 -8 -4 -9 4 -4 27 4 25 3 30 -4 19 -8 -11 -11 -4 -10 30 l0 45 14 -34 c8
-18 15 -44 15 -57z m2731 -30 c16 -28 29 -57 29 -64 0 -7 -14 14 -31 46 -17
32 -45 75 -63 94 l-31 35 33 -30 c18 -17 47 -53 63 -81z m394 77 c3 -5 1 -12
-5 -16 -5 -3 -10 1 -10 9 0 18 6 21 15 7z m-3528 -68 c-3 -10 -5 -4 -5 12 0
17 2 24 5 18 2 -7 2 -21 0 -30z m142 -53 l-1 -25 -8 25 c-4 14 -8 32 -9 40 -1
13 0 13 9 0 5 -8 9 -26 9 -40z m3791 16 c0 -3 -4 -8 -10 -11 -5 -3 -10 -1 -10
4 0 6 5 11 10 11 6 0 10 -2 10 -4z m-2846 -37 c15 -25 15 -34 5 -62 -9 -27
-16 -33 -33 -30 -25 5 -34 44 -25 106 4 24 35 16 53 -14z m2886 27 c0 -11 -19
-15 -25 -6 -3 5 1 10 9 10 9 0 16 -2 16 -4z m-803 -78 c-3 -7 -5 -2 -5 12 0
14 2 19 5 13 2 -7 2 -19 0 -25z m-247 -22 c0 -2 -3 -11 -6 -20 -5 -13 -8 -13
-20 -1 -19 19 -18 25 6 25 11 0 20 -2 20 -4z m-1908 -28 c-7 -7 -12 -8 -12 -2
0 14 12 26 19 19 2 -3 -1 -11 -7 -17z m-248 -90 c4 7 25 3 59 -10 28 -11 58
-20 65 -21 6 0 12 -4 12 -9 0 -5 4 -7 8 -4 20 12 30 -10 16 -39 l-13 -30 5 30
c5 26 3 28 -8 15 -7 -9 -21 -14 -31 -12 -10 2 -28 -5 -39 -15 -20 -17 -21 -17
-15 0 4 11 1 17 -7 17 -8 0 -17 6 -19 13 -4 9 -8 9 -15 -2 -7 -9 -12 -10 -16
-2 -4 6 -11 9 -16 6 -5 -3 -8 3 -8 12 0 10 0 23 -2 28 -1 6 -2 17 -1 25 1 12
3 13 10 1 5 -8 11 -9 15 -3z m2576 2 c18 -12 2 -12 -25 0 -13 6 -15 9 -5 9 8
0 22 -4 30 -9z m-2743 -22 c-3 -8 -6 -5 -6 6 -1 11 2 17 5 13 3 -3 4 -12 1
-19z m2518 2 c3 -5 1 -10 -4 -10 -6 0 -11 5 -11 10 0 6 2 10 4 10 3 0 8 -4 11
-10z m285 0 c18 -12 2 -12 -25 0 -13 6 -15 9 -5 9 8 0 22 -4 30 -9z m37 -73
c-6 -37 -15 -67 -19 -67 -8 0 -3 37 14 104 15 60 18 38 5 -37z m-2438 -1 c1
-5 -2 -6 -6 -3 -3 4 -12 2 -19 -4 -11 -9 -12 -5 -2 22 10 29 12 31 19 13 4
-10 8 -23 8 -28z m-52 2 c-3 -8 -6 -5 -6 6 -1 11 2 17 5 13 3 -3 4 -12 1 -19z
m2033 -26 c0 -12 -3 -12 -15 -2 -8 7 -15 13 -15 15 0 1 7 2 15 2 8 0 15 -7 15
-15z m-2273 -92 c13 -17 29 -27 34 -24 6 3 5 11 -2 20 -13 15 -9 17 15 8 9 -3
16 -12 16 -20 0 -8 9 -14 20 -14 11 0 20 -7 20 -15 0 -8 4 -15 8 -15 4 0 9
-15 10 -34 5 -68 -88 -130 -117 -79 -5 10 -13 15 -17 11 -4 -4 -1 -14 6 -23
10 -12 10 -15 -3 -15 -9 0 -20 6 -24 14 -6 11 -11 12 -24 3 -9 -7 -18 -18 -20
-26 -4 -11 -1 171 3 217 1 7 9 10 20 6 10 -3 18 -1 18 5 0 18 10 13 37 -19z
m-282 -54 c10 4 16 -5 21 -30 3 -20 11 -36 16 -36 5 0 6 10 2 22 -6 21 -6 21
24 -3 29 -22 31 -29 33 -94 l2 -70 6 55 c10 92 22 40 23 -93 0 -114 -18 -255
-30 -242 -3 3 -7 29 -9 57 -2 28 -8 57 -13 63 -9 11 -15 43 -19 98 -1 4 -5 7
-9 7 -10 0 -6 -62 7 -104 12 -39 17 -123 8 -132 -4 -4 -7 -2 -7 4 0 6 -7 9
-15 6 -8 -4 -15 -1 -15 5 0 6 -9 11 -19 11 -15 0 -21 11 -29 58 -5 31 -9 68
-7 82 1 14 -1 27 -5 30 -4 3 -2 11 6 18 12 10 14 10 14 -3 0 -8 5 -15 10 -15
5 0 9 -3 9 -7 -4 -22 2 -53 10 -53 4 0 5 19 0 43 -5 23 -11 60 -14 82 -4 32
-3 35 4 18 6 -13 13 -23 17 -23 3 0 3 10 -1 23 -16 52 -44 204 -43 232 0 22 2
24 5 8 3 -14 9 -20 18 -17z m94 -36 c-1 -17 -3 -19 -6 -7 -2 9 -9 15 -14 12
-5 -4 -9 -1 -9 4 0 6 4 11 10 11 5 0 7 8 4 18 -5 14 -4 15 5 2 6 -8 10 -26 10
-40z m3311 30 c-20 -13 -43 -13 -35 0 3 6 16 10 28 10 18 0 19 -2 7 -10z
m-3473 -92 c-3 -8 -6 -5 -6 6 -1 11 2 17 5 13 3 -3 4 -12 1 -19z m3003 -13 c0
-8 -4 -15 -9 -15 -13 0 -22 16 -14 24 11 11 23 6 23 -9z m-2953 -27 c-3 -8 -6
-5 -6 6 -1 11 2 17 5 13 3 -3 4 -12 1 -19z m-51 -48 c-3 -24 -1 -38 5 -35 5 4
9 0 9 -7 0 -7 2 -60 4 -118 2 -58 2 -99 -1 -91 -5 11 -7 11 -14 0 -7 -11 -9
-11 -9 2 0 9 -6 22 -14 28 -27 23 -9 261 20 261 3 0 3 -18 0 -40z m324 10 c0
-5 -2 -10 -4 -10 -3 0 -8 5 -11 10 -3 6 -1 10 4 10 6 0 11 -4 11 -10z m1487
-112 c-3 -7 -5 -2 -5 12 0 14 2 19 5 13 2 -7 2 -19 0 -25z m-1590 -10 c-3 -7
-5 -2 -5 12 0 14 2 19 5 13 2 -7 2 -19 0 -25z m48 -9 c-5 -13 -3 -19 3 -15 5
3 14 -12 20 -34 7 -27 7 -40 0 -40 -7 0 -6 -5 1 -14 6 -7 16 -35 21 -62 14
-65 14 -67 24 -82 4 -7 2 -19 -4 -27 -9 -11 -9 -15 -1 -15 6 0 11 -11 11 -25
0 -14 -6 -25 -12 -25 -9 0 -8 -4 2 -10 24 -15 30 -12 30 16 0 20 4 25 22 22
31 -4 34 -26 4 -38 -14 -5 -26 -11 -26 -13 0 -2 6 -26 14 -53 28 -101 39 -163
32 -188 -4 -15 -2 -26 4 -26 5 0 10 -8 10 -17 -1 -16 -2 -16 -16 2 -10 12 -18
15 -20 9 -3 -7 -21 -3 -52 12 -45 21 -69 23 -57 3 4 -5 1 -9 -6 -9 -7 0 -5 -8
7 -19 10 -10 22 -17 27 -14 4 2 7 0 7 -5 0 -6 11 -13 25 -16 14 -4 25 -11 25
-16 0 -5 -29 4 -64 19 l-64 29 -12 -26 c-9 -19 -14 -23 -18 -12 -3 7 0 16 7
18 24 8 9 30 -24 34 -39 4 -50 -9 -28 -34 18 -21 30 -98 15 -98 -6 0 -18 7
-26 16 -9 8 -16 11 -16 6 0 -5 14 -21 31 -36 23 -21 28 -32 23 -49 -4 -12 -11
-23 -15 -25 -5 -2 -9 -11 -9 -20 1 -16 2 -16 14 0 7 10 16 15 19 11 11 -10 8
-25 -3 -18 -5 3 -10 0 -10 -9 0 -8 -5 -16 -12 -18 -7 -3 -8 -9 -3 -18 6 -10
11 -9 23 6 13 16 14 17 9 2 -4 -10 -2 -18 3 -18 6 0 11 -15 11 -32 3 -85 17
-87 16 -3 -2 70 -6 94 -19 109 -10 11 -18 25 -18 30 0 6 13 -3 28 -21 15 -17
47 -55 71 -83 24 -28 57 -58 75 -67 17 -9 34 -20 37 -25 3 -5 14 -10 23 -12
10 -1 21 -7 24 -12 11 -15 71 -33 78 -23 3 5 11 9 17 8 9 0 9 -2 0 -6 -14 -5
-18 -24 -5 -21 4 1 19 -5 35 -12 20 -10 26 -18 21 -32 -4 -13 0 -18 15 -18 23
0 36 -16 21 -25 -8 -5 -7 -11 1 -21 9 -11 9 -14 0 -14 -7 0 -9 -5 -6 -10 5 -8
12 -7 22 2 9 7 36 13 60 14 24 1 47 4 51 8 4 4 3 7 -3 6 -25 -5 -37 3 -15 9
14 4 24 13 22 20 -1 7 2 10 8 6 5 -3 10 3 10 14 0 10 6 22 13 24 7 3 6 6 -5 6
-9 1 -20 -4 -23 -9 -4 -7 -11 -6 -19 2 -17 18 -27 48 -16 48 6 0 10 -7 10 -16
0 -9 5 -12 12 -8 6 4 8 3 5 -4 -9 -13 75 -3 84 11 4 5 4 24 2 43 -3 21 0 34 6
34 6 0 11 -15 12 -32 l1 -33 12 27 c7 18 16 24 22 19 5 -6 18 2 33 22 26 34
81 83 81 72 0 -8 -97 -104 -144 -143 -27 -23 -27 -24 -9 -44 27 -30 15 -108
-17 -108 -27 0 -25 -18 3 -23 13 -3 7 -5 -16 -6 -32 -1 -36 -3 -25 -15 8 -9
15 -10 19 -3 4 5 15 7 25 3 25 -9 2 -30 -34 -31 -17 0 -27 -5 -27 -15 0 -11 9
-14 33 -12 18 2 32 -1 32 -7 0 -6 5 -11 11 -11 6 0 8 9 4 20 -8 26 9 26 35 0
16 -16 17 -20 5 -20 -19 0 -19 -10 1 -38 17 -25 42 -28 70 -8 11 9 31 12 49 9
54 -9 125 -34 125 -44 0 -6 5 -7 10 -4 6 3 10 15 10 25 0 39 56 37 63 -3 4
-24 11 -14 21 33 3 14 18 32 34 41 33 19 46 53 27 73 -11 11 -9 17 11 39 24
26 30 29 63 31 17 1 28 26 12 26 -6 0 -11 4 -11 9 0 5 19 7 43 3 38 -5 41 -4
28 11 -11 15 -11 17 2 17 8 0 17 7 21 15 6 17 42 20 52 4 3 -6 0 -16 -7 -21
-11 -8 -10 -9 4 -4 9 3 17 1 17 -3 0 -5 8 -7 19 -4 10 3 22 0 25 -6 4 -7 15
-7 31 -1 19 7 26 6 34 -7 8 -14 9 -13 9 7 0 14 1 46 3 72 3 42 5 45 14 27 10
-18 13 -14 23 31 7 28 12 87 12 130 0 43 7 114 15 157 8 43 15 125 15 182 0
57 3 102 6 98 6 -6 8 -35 12 -161 3 -83 12 -65 13 25 l1 74 25 -65 c14 -36 27
-81 30 -100 4 -19 10 -37 14 -40 4 -3 17 -26 28 -50 12 -25 19 -36 16 -25 -15
70 -16 80 -6 65 17 -25 21 -6 6 36 -15 44 -17 246 -2 237 5 -3 7 -17 4 -31 -6
-29 1 -52 14 -52 4 0 6 7 3 15 -6 15 11 45 25 45 4 0 13 -15 20 -32 8 -18 18
-41 23 -51 5 -11 4 -16 -2 -12 -13 8 -13 -8 1 -22 6 -6 12 -46 13 -89 l4 -79
-13 53 c-16 65 -25 77 -18 25 2 -21 6 -76 8 -123 l4 -85 -12 55 -12 55 -3 -47
c-3 -46 -22 -70 -22 -28 0 11 -4 20 -9 20 -12 0 2 -56 23 -95 9 -16 16 -35 16
-42 0 -7 5 -24 12 -38 11 -24 13 -25 19 -8 5 12 7 7 7 -17 0 -19 15 -75 34
-125 47 -121 54 -142 78 -270 28 -144 36 -446 11 -431 -3 3 -7 -14 -8 -37 -4
-85 -15 -153 -23 -132 -4 12 -7 -2 -7 -35 0 -30 -3 -75 -8 -100 -11 -67 9 -37
24 35 20 93 21 94 46 30 13 -33 24 -55 24 -48 1 7 -8 35 -19 63 -11 28 -20 65
-20 83 0 30 1 30 14 12 7 -11 17 -35 21 -52 3 -18 10 -33 14 -33 5 0 -2 30
-15 68 -25 73 -31 117 -13 107 6 -4 8 -14 5 -22 -3 -8 -1 -11 4 -8 6 3 10 -5
10 -19 0 -14 5 -28 10 -31 14 -9 13 5 -10 70 -22 63 -25 89 -11 81 5 -3 12
-22 15 -41 4 -19 11 -35 16 -35 12 0 12 3 -4 73 -8 31 -10 57 -5 57 5 0 9 -10
9 -22 1 -13 12 -54 26 -93 36 -101 37 -105 27 -105 -6 0 -15 18 -22 41 -7 23
-15 38 -18 35 -6 -6 34 -143 47 -161 11 -15 18 -65 9 -59 -5 3 -9 9 -9 14 0 5
-5 21 -12 37 -6 15 -12 33 -14 40 -1 6 -10 22 -19 35 -15 20 -16 20 -11 3 4
-11 10 -33 13 -50 4 -16 13 -40 20 -52 9 -13 12 -31 8 -44 -5 -16 -4 -19 5
-14 9 5 11 4 6 -4 -12 -18 -22 -5 -36 44 -9 34 -16 43 -24 35 -7 -7 -7 -13 -1
-18 6 -4 15 -21 21 -38 10 -27 8 -34 -17 -63 -25 -30 -28 -31 -38 -14 -6 10
-11 13 -11 6 0 -6 5 -15 10 -18 7 -4 6 -14 -2 -28 -6 -12 -11 -24 -10 -27 1
-3 -2 -5 -6 -5 -4 0 -26 -14 -48 -32 l-40 -32 18 71 c17 69 16 98 -2 68 -6 -8
-10 -24 -10 -36 0 -11 -7 -43 -15 -71 -14 -48 -36 -70 -56 -57 -5 3 -9 0 -9
-7 0 -6 -8 -9 -19 -6 -11 3 -28 -1 -39 -9 -11 -7 -22 -11 -25 -8 -2 3 -27 -1
-53 -9 -46 -14 -137 -32 -214 -42 -19 -2 -55 -7 -80 -10 -25 -4 -141 -9 -259
-12 -293 -8 -401 12 -401 72 0 14 -9 48 -20 77 -11 29 -20 68 -20 86 0 22 -5
32 -15 32 -8 0 -15 7 -15 15 0 8 -7 15 -15 15 -8 0 -15 7 -15 15 0 8 -6 12
-14 9 -10 -4 -12 1 -9 19 3 17 -2 30 -20 44 -19 15 -23 23 -15 37 5 9 6 25 2
34 -4 9 -8 22 -10 29 -1 6 -7 34 -13 63 -6 28 -11 71 -11 95 0 31 -6 51 -19
64 -16 16 -17 20 -5 25 9 3 14 19 13 43 -1 32 -2 34 -8 13 -9 -33 -18 -16 -21
45 -2 46 -5 78 -9 123 -1 12 -6 8 -15 -13 -12 -25 -15 -27 -21 -13 -4 10 -4
25 -1 34 4 11 2 15 -8 11 -12 -5 -13 -1 -7 17 6 13 5 29 -1 40 -5 10 -8 29 -5
42 2 13 0 24 -4 24 -5 0 -15 13 -23 29 -15 27 -14 29 3 24 25 -6 39 17 17 29
-9 5 -16 16 -16 25 0 25 -23 83 -33 83 -4 0 -6 4 -3 9 3 5 -1 22 -9 37 -18 35
-19 60 -2 68 6 3 1 4 -12 3 -23 -2 -41 -37 -20 -37 6 0 7 -5 3 -12 -4 -6 1
-17 11 -24 10 -7 15 -20 12 -28 -3 -8 -2 -16 2 -18 5 -2 11 -20 15 -41 5 -27
4 -37 -3 -32 -6 3 -11 12 -11 20 0 18 -33 75 -44 75 -4 0 -5 -8 -1 -17 15 -37
24 -76 20 -83 -3 -5 2 -10 10 -14 8 -3 15 -12 15 -21 0 -8 4 -15 10 -15 5 0 7
-7 4 -15 -4 -8 -1 -15 6 -15 6 0 8 -5 4 -11 -4 -8 -9 -8 -17 0 -18 18 -37 13
-37 -9 0 -11 -8 -23 -17 -26 -10 -3 -26 -10 -36 -15 -14 -8 -22 -5 -35 12 -21
25 -34 15 -51 -41 l-10 -35 5 43 c4 27 1 48 -6 57 -7 8 -13 39 -14 68 -1 49
-3 53 -19 43 -11 -7 -16 -19 -13 -31 15 -65 17 -95 7 -95 -6 0 -11 11 -11 24
0 13 -5 26 -12 28 -6 2 -14 36 -18 79 -4 41 -8 65 -9 54 -2 -39 -19 1 -25 60
-3 33 -5 61 -5 63 -1 1 -5 2 -10 2 -5 0 -7 -8 -5 -17 3 -10 8 -47 12 -83 5
-42 12 -64 20 -63 8 2 12 -10 12 -32 0 -19 -5 -35 -11 -35 -6 0 -8 8 -4 19 3
11 1 22 -5 26 -6 4 -10 -11 -10 -41 0 -57 -6 -55 -14 6 -3 24 -13 51 -22 60
-15 14 -16 12 -10 -15 l6 -30 -14 25 c-9 16 -11 27 -4 31 7 4 6 13 -1 27 -6
11 -11 23 -11 26 0 12 25 0 32 -14 13 -30 8 14 -12 106 -11 49 -20 109 -20
134 0 26 -4 50 -9 55 -5 6 -12 26 -14 45 -2 20 -3 16 -2 -10 3 -56 12 -115 31
-207 14 -70 14 -73 -6 -93 l-20 -20 0 44 c0 25 -4 57 -10 71 -5 14 -12 79 -15
143 -3 64 -11 121 -17 127 -7 7 -8 3 -3 -15 5 -14 8 -32 7 -40 -1 -8 -2 -47
-2 -85 -1 -86 -15 -116 -25 -56 -4 23 -9 40 -12 37 -11 -11 9 -86 23 -86 16 0
19 -16 4 -25 -5 -3 -10 -16 -10 -28 0 -18 -2 -19 -10 -7 -17 27 -11 2 9 -32
18 -31 23 -66 25 -168 1 -25 6 -48 11 -52 6 -5 6 -11 -2 -16 -8 -5 -9 -13 -3
-22 6 -8 10 -21 10 -27 0 -19 -18 -16 -24 4 -2 10 -3 2 0 -17 2 -19 0 -51 -4
-70 l-8 -35 -8 50 c-6 43 -26 141 -65 315 l-11 45 5 -47 c3 -27 8 -60 11 -75
4 -16 4 -25 0 -21 -5 3 -14 30 -21 60 -21 78 -13 10 16 -147 13 -71 25 -120
27 -108 2 13 -4 57 -13 99 -21 94 -15 108 8 16 18 -77 29 -171 17 -152 -6 9
-10 2 -12 -21 -2 -28 -6 -20 -21 46 -27 119 -56 283 -57 324 0 8 -2 12 -5 9
-3 -3 2 -68 11 -144 9 -76 17 -157 16 -179 0 -38 0 -38 8 -10 9 35 10 28 15
-85 1 -43 0 -59 -4 -38 -5 32 -8 35 -23 24 -11 -8 -14 -17 -7 -27 9 -15 13
-86 4 -77 -3 3 -15 59 -26 124 -11 66 -22 127 -25 137 -9 30 -19 18 -20 -25
-1 -31 1 -37 7 -23 6 15 8 11 8 -19 1 -22 8 -68 17 -103 9 -35 13 -69 11 -75
-3 -7 -6 -4 -6 8 -1 24 -37 141 -51 166 -6 10 -10 30 -10 45 0 36 -7 26 -18
-25 -9 -36 -8 -41 4 -31 11 9 14 7 14 -10 0 -11 4 -21 9 -21 5 0 11 -13 14
-29 3 -16 9 -42 12 -57 l6 -29 -15 25 c-8 14 -15 33 -16 43 0 22 -36 62 -44
49 -3 -5 4 -26 14 -48 22 -42 27 -94 9 -94 -6 0 -9 9 -6 20 3 11 1 23 -4 26
-18 11 -15 -112 4 -134 10 -13 8 -14 -12 -7 -15 4 -26 3 -31 -5 -5 -9 -9 -9
-14 -1 -4 6 -2 11 3 11 6 0 11 7 11 15 0 9 -6 12 -15 9 -11 -5 -15 1 -15 19 0
14 -6 27 -13 30 -7 2 -14 20 -15 38 -1 19 -7 61 -12 94 -6 33 -11 80 -11 105
l-2 45 -7 -40 c-6 -34 -7 -36 -9 -11 -1 29 -2 29 -16 10 -14 -18 -15 -18 -6 7
11 30 2 161 -10 153 -5 -3 -9 -1 -9 5 0 5 6 12 13 14 9 4 9 6 0 6 -18 1 -27
-19 -14 -32 13 -13 15 -57 2 -57 -5 0 -7 9 -4 20 3 11 0 20 -6 20 -6 0 -11 10
-11 22 0 14 -3 19 -10 12 -5 -5 -6 -24 0 -49 10 -41 13 -112 6 -104 -3 2 -7
24 -10 49 -8 55 -15 185 -9 148 2 -14 11 -29 20 -32 12 -5 13 -2 8 11 -5 10
-9 34 -11 53 -3 31 -2 32 5 10 7 -19 9 -8 10 46 1 59 -3 75 -20 95 -20 23 -21
32 -17 224 3 110 1 182 -3 160 -4 -22 -8 -90 -8 -152 -1 -129 -17 -163 -19
-40 -1 104 14 216 33 237 8 9 15 31 15 49 0 19 4 30 10 26 5 -3 10 4 10 17 0
13 4 52 10 88 6 36 11 71 12 78 3 24 18 11 18 -15 0 -16 5 -35 11 -43 9 -13
10 -12 5 3 -8 24 5 108 15 101 5 -3 9 3 9 13 0 10 18 38 40 63 l39 45 -5 -47
c-3 -25 -2 -48 4 -51 5 -4 9 13 10 38 0 29 7 54 21 71 12 15 21 33 21 40 0 8
4 14 9 14 14 0 34 58 26 77 -13 30 -15 53 -5 53 6 0 10 -9 10 -20 0 -11 5 -20
11 -20 9 0 10 -34 5 -127 -4 -71 -8 -177 -10 -238 -2 -60 -7 -122 -11 -137 -4
-17 -3 -28 3 -28 6 0 13 -45 17 -104 4 -57 12 -110 17 -117 7 -10 8 -9 4 6 -3
11 -8 120 -11 243 -5 178 -3 222 7 222 10 0 10 2 -1 9 -10 7 -11 16 -3 42 9
31 14 84 15 152 0 15 1 27 3 27 14 0 34 -15 34 -26 0 -8 5 -14 10 -14 6 0 19
-9 30 -20 21 -21 27 -35 10 -25 -6 4 -7 -6 -3 -27 7 -41 8 -42 28 -31 16 9 16
11 0 26 -19 19 -12 37 15 37 14 0 17 -5 13 -21 -5 -19 -4 -20 15 -10 16 8 23
8 29 -1 4 -7 24 -20 43 -29 28 -13 38 -14 47 -4 6 7 9 16 5 20 -15 15 3 219
19 209 5 -3 9 6 9 19 0 22 7 37 17 37 3 0 1 -10 -2 -21z m-58 -56 c-3 -10 -5
-2 -5 17 0 19 2 27 5 18 2 -10 2 -26 0 -35z m1610 -15 c-3 -7 -5 -2 -5 12 0
14 2 19 5 13 2 -7 2 -19 0 -25z m2438 -28 c-4 -23 -9 -39 -11 -37 -3 2 -2 23
2 46 4 23 9 40 11 37 3 -3 2 -23 -2 -46z m-4058 -22 c-3 -8 -6 -5 -6 6 -1 11
2 17 5 13 3 -3 4 -12 1 -19z m-1329 -86 c2 -32 -1 -52 -7 -52 -6 0 -11 18 -11
40 0 22 -4 40 -10 40 -5 0 -10 7 -10 16 0 9 7 14 18 12 13 -2 18 -15 20 -56z
m615 -62 c3 -11 1 -18 -4 -14 -5 3 -9 12 -9 20 0 20 7 17 13 -6z m-272 -40
c27 -15 24 -30 -6 -30 -18 0 -25 5 -25 20 0 23 4 24 31 10z m-251 -20 c0 -5
-4 -10 -10 -10 -5 0 -10 5 -10 10 0 6 5 10 10 10 6 0 10 -4 10 -10z m495 -18
c-8 -8 -25 10 -19 20 4 6 9 5 15 -3 4 -7 6 -15 4 -17z m1019 13 c3 -8 -3 -19
-14 -25 -19 -10 -22 -8 -32 20 -8 21 38 25 46 5z m-1144 -7 c0 -7 -5 -20 -10
-28 -8 -12 -10 -9 -10 13 0 15 5 27 10 27 6 0 10 -6 10 -12z m1208 -20 c2 -11
-3 -18 -12 -18 -9 0 -16 5 -16 11 0 5 -4 7 -10 4 -5 -3 -10 1 -10 10 0 23 44
16 48 -7z m-1115 6 c-7 -3 -9 -12 -6 -21 4 -11 2 -14 -5 -9 -7 4 -12 3 -12 -3
0 -6 12 -8 30 -4 l30 6 -15 -36 c-8 -20 -15 -42 -14 -49 0 -7 9 11 20 40 14
35 25 52 34 48 8 -3 18 1 24 8 6 7 23 11 41 8 24 -3 28 -7 21 -21 -5 -9 -12
-36 -16 -61 -4 -25 -14 -56 -23 -70 -8 -13 -17 -36 -18 -50 -1 -14 -11 -59
-22 -99 -13 -52 -17 -84 -11 -104 5 -17 4 -61 -3 -106 -6 -42 -12 -103 -14
-136 -1 -33 -5 -98 -9 -145 -3 -47 -7 -195 -9 -330 -4 -221 -1 -303 19 -480 4
-36 3 -50 -3 -42 -5 8 -12 13 -16 13 -20 -3 -26 0 -20 11 5 8 2 9 -9 5 -19 -7
-90 36 -79 48 4 5 2 5 -4 2 -16 -9 -106 52 -120 81 -7 13 -13 19 -15 13 -2 -6
-18 1 -37 15 -25 20 -32 33 -32 60 0 19 -5 34 -11 34 -6 0 -8 -9 -4 -20 5 -14
2 -20 -9 -20 -9 0 -16 7 -16 15 0 8 -9 15 -20 15 -11 0 -20 7 -20 16 0 8 -4
13 -10 9 -5 -3 -18 2 -30 12 -51 45 -90 88 -90 100 0 7 -3 12 -7 12 -21 -3
-33 2 -33 16 0 8 -3 14 -8 12 -12 -3 -92 75 -92 90 0 8 -5 11 -11 7 -13 -8 -4
92 10 111 8 11 33 90 36 115 1 8 7 26 13 40 16 34 41 180 35 197 -3 7 0 13 6
13 6 0 11 4 11 10 0 5 -6 8 -12 6 -7 -1 -10 -1 -5 1 4 3 7 12 7 21 0 15 2 15
10 2 8 -11 9 -7 4 15 -4 23 -3 26 5 15 6 -8 11 -10 11 -5 0 6 -7 21 -16 33
-18 26 -12 41 10 23 16 -13 24 0 21 36 -1 12 2 20 7 17 5 -3 6 7 3 23 -5 21
-4 24 4 13 9 -13 11 -13 11 2 0 9 -6 18 -12 21 -10 4 -10 7 0 18 6 7 12 20 12
29 -1 12 -4 11 -15 -4 -17 -22 -20 -10 -5 14 9 13 13 12 26 -5 16 -20 16 -20
9 3 -5 17 1 31 25 58 17 20 29 41 27 47 -2 6 0 16 5 22 5 5 18 25 29 43 10 18
25 32 32 31 19 -3 67 12 67 22 0 13 -14 11 -28 -3 -6 -6 -15 -8 -19 -4 -4 4
-1 11 7 17 18 11 82 3 91 -12 4 -7 13 -8 25 -1 53 27 73 33 105 30 26 -2 38 2
54 22 11 13 19 28 17 33 -4 13 18 47 31 46 9 0 9 -2 0 -5z m277 -4 c0 -5 -4
-10 -10 -10 -5 0 -10 5 -10 10 0 6 5 10 10 10 6 0 10 -4 10 -10z m-436 -16 c3
-9 6 -24 6 -35 0 -22 10 -24 29 -6 11 10 12 9 6 -2 -6 -11 -2 -13 18 -7 14 3
28 3 30 -1 3 -5 -13 -9 -36 -11 -22 -1 -46 -6 -51 -11 -18 -13 -60 -21 -84
-14 -25 6 -30 23 -7 23 8 0 15 -4 15 -10 0 -5 8 -10 18 -10 14 0 15 2 2 10
-13 9 -13 11 0 20 20 13 30 13 30 -1 0 -5 -5 -7 -12 -3 -7 4 -8 3 -4 -4 4 -6
13 -9 21 -6 12 5 12 9 -1 30 -16 24 -13 54 5 54 5 0 12 -7 15 -16z m1333 -1
c7 -20 -16 -24 -26 -4 -9 16 -8 19 6 17 9 -2 19 -8 20 -13z m63 -19 c0 -8 -4
-14 -10 -14 -5 0 -10 9 -10 21 0 11 5 17 10 14 6 -3 10 -13 10 -21z m115 -13
c-6 -5 -25 10 -25 20 0 5 6 4 14 -3 8 -7 12 -15 11 -17z m75 13 c0 -2 -7 -4
-15 -4 -8 0 -15 4 -15 10 0 5 7 7 15 4 8 -4 15 -8 15 -10z m-130 -4 c0 -5 -5
-10 -11 -10 -5 0 -7 5 -4 10 3 6 8 10 11 10 2 0 4 -4 4 -10z m-1610 -10 c0 -5
-8 -14 -17 -20 -16 -10 -15 -11 5 -7 28 6 28 6 -5 -22 -15 -14 -24 -17 -20 -9
3 8 1 21 -3 28 -6 9 -3 18 8 27 20 15 32 16 32 3z m77 -16 c-3 -3 -12 -4 -19
-1 -8 3 -5 6 6 6 11 1 17 -2 13 -5z m4943 -39 c-7 -9 -8 -15 0 -20 5 -3 10 -2
10 4 0 16 20 64 25 59 3 -2 -8 -40 -24 -84 -38 -106 -92 -236 -97 -231 -2 2 3
21 11 43 l16 39 -20 -25 c-11 -14 -21 -22 -21 -17 0 21 105 279 108 264 2 -10
-1 -24 -8 -32z m-5220 5 c0 -5 -7 -10 -15 -10 -8 0 -15 5 -15 10 0 6 7 10 15
10 8 0 15 -4 15 -10z m3092 -70 c11 -29 19 -60 13 -60 -9 0 -76 123 -75 139 1
11 51 -53 62 -79z m-2962 20 c-4 -3 -11 -13 -17 -24 -7 -12 -13 -15 -17 -7 -4
6 -2 11 3 11 6 0 11 4 11 10 0 5 -6 7 -14 4 -8 -3 -23 -1 -33 5 -15 9 -11 10
19 7 21 -2 35 1 32 5 -3 5 -2 14 2 21 5 8 10 6 14 -8 4 -10 4 -21 0 -24z
m2789 -5 c0 -5 -4 -3 -9 5 -5 8 -9 22 -9 30 0 16 17 -16 18 -35z m29 -10 c-3
-3 -9 2 -12 12 -6 14 -5 15 5 6 7 -7 10 -15 7 -18z m-3018 5 c13 -9 13 -10 0
-9 -8 0 -24 4 -35 9 l-20 9 20 0 c11 0 27 -4 35 -9z m3311 -122 c16 -30 3 -20
-27 20 -23 30 -24 33 -5 17 13 -11 27 -28 32 -37z m67 27 c-3 -3 -9 2 -12 12
-6 14 -5 15 5 6 7 -7 10 -15 7 -18z m-1351 3 c18 -25 -5 -132 -31 -150 -7 -6
-6 -11 4 -18 22 -14 21 -50 -1 -50 -10 0 -24 -9 -31 -19 -9 -15 -16 -17 -30
-10 -10 5 -18 17 -19 27 0 10 -3 12 -6 5 -2 -7 -11 -13 -18 -13 -7 0 -15 -5
-17 -12 -2 -6 -10 -8 -16 -4 -16 9 -15 26 1 26 8 0 12 17 12 50 0 28 -3 50 -7
50 -3 0 22 29 57 65 64 65 85 76 102 53z m1153 -21 c0 -5 -4 -5 -10 -2 -5 3
-10 14 -10 23 0 15 2 15 10 2 5 -8 10 -19 10 -23z m70 -22 c14 9 40 -37 40
-70 0 -16 5 -37 10 -45 7 -11 8 -6 4 18 -4 17 -4 32 -2 32 6 0 72 -103 74
-115 0 -5 2 -19 3 -30 2 -20 2 -20 10 0 6 16 11 10 25 -33 10 -29 22 -49 27
-46 6 3 7 -5 3 -23 -6 -23 -5 -26 7 -16 11 9 14 5 16 -22 1 -18 16 -68 33
-111 25 -62 33 -99 37 -172 6 -106 -7 -161 -17 -72 l-7 55 -2 -75 c-2 -52 -5
-69 -11 -55 -5 11 -9 32 -9 47 -1 19 -5 26 -15 22 -11 -4 -16 6 -21 40 -9 55
-22 61 -18 9 2 -28 -2 -22 -12 22 -8 33 -14 72 -15 87 0 15 -4 29 -9 32 -5 4
-8 -2 -6 -11 5 -27 24 -153 29 -196 9 -72 -12 -27 -24 53 -7 45 -15 79 -17 76
-3 -3 0 -33 5 -68 6 -35 13 -108 16 -163 5 -103 4 -101 -15 23 -7 39 -15 72
-20 72 -4 0 -4 -15 1 -32 11 -43 17 -188 8 -188 -3 0 -9 10 -12 23 -3 12 -3
-21 0 -73 5 -107 -10 -107 -21 0 -7 75 -25 193 -29 198 -2 1 -2 -41 0 -95 1
-54 0 -82 -2 -63 -9 72 -55 307 -69 350 -8 25 -19 66 -26 93 -6 26 -16 47 -20
47 -5 0 -9 8 -9 18 0 9 -9 46 -20 82 -14 45 -16 66 -8 71 6 4 8 11 5 15 -8 14
-19 169 -11 162 4 -4 10 -33 15 -65 6 -45 7 -33 5 59 -2 64 1 115 6 112 5 -3
8 -15 7 -27 -4 -39 1 -58 11 -52 6 4 8 15 5 25 -3 10 -1 21 5 25 7 4 10 1 9
-6 -1 -8 3 -25 9 -39 9 -21 10 -16 5 30 -3 30 -10 60 -16 65 -7 7 -8 5 -4 -7
3 -10 3 -20 -2 -22 -4 -3 -8 7 -8 22 0 15 -4 36 -8 47 -4 12 3 7 20 -13 15
-18 30 -30 35 -27z m0 14 c0 -6 -4 -7 -10 -4 -5 3 -10 11 -10 16 0 6 5 7 10 4
6 -3 10 -11 10 -16z m-2553 -41 c-3 -8 -6 -5 -6 6 -1 11 2 17 5 13 3 -3 4 -12
1 -19z m2651 -24 c-4 -3 -12 5 -18 18 -12 22 -12 22 6 6 10 -10 15 -20 12 -24z
m-321 4 c-3 -8 -6 -5 -6 6 -1 11 2 17 5 13 3 -3 4 -12 1 -19z m-2344 -88 c-7
-67 -12 -60 -10 15 0 37 4 59 8 48 4 -10 4 -38 2 -63z m898 59 c4 -8 18 -14
30 -14 12 0 24 -7 26 -15 4 -12 3 -12 -5 -1 -6 8 -12 9 -16 3 -3 -6 -2 -13 4
-17 6 -4 8 -11 5 -16 -4 -5 -3 -9 2 -10 4 0 17 -3 28 -5 11 -3 26 -6 33 -6 8
-1 9 -5 3 -11 -7 -7 -26 -5 -55 3 -44 12 -50 19 -47 48 3 20 -23 42 -49 42 -5
0 -10 4 -10 10 0 14 40 6 51 -11z m2896 -1 c-3 -8 -6 -5 -6 6 -1 11 2 17 5 13
3 -3 4 -12 1 -19z m-3102 3 c3 -5 1 -12 -5 -16 -5 -3 -10 1 -10 9 0 18 6 21
15 7z m287 -43 c-7 -7 -10 -5 -7 8 5 29 6 30 12 16 3 -8 1 -18 -5 -24z m48 12
c0 -8 -22 -30 -31 -30 -4 0 -5 8 -2 18 4 17 33 27 33 12z m142 -35 c3 -14 1
-25 -3 -25 -5 0 -9 11 -9 25 0 14 2 25 4 25 2 0 6 -11 8 -25z m-109 0 c-3 -9
-8 -14 -10 -11 -3 3 -2 9 2 15 9 16 15 13 8 -4z m170 -86 c4 -16 3 -18 -9 -8
-7 6 -11 15 -8 20 8 13 11 11 17 -12z m-1883 -33 c0 -13 -7 -29 -15 -36 -9 -8
-15 -9 -15 -2 0 6 5 14 11 18 6 3 9 15 6 25 -3 11 -1 19 4 19 5 0 9 -11 9 -24z
m1970 10 c0 -11 -19 -15 -25 -6 -3 5 1 10 9 10 9 0 16 -2 16 -4z m1150 -41 c0
-5 -5 -3 -10 5 -5 8 -10 20 -10 25 0 6 5 3 10 -5 5 -8 10 -19 10 -25z m-1122
-9 c7 -36 32 -49 62 -33 8 5 5 -1 -8 -12 l-23 -20 -35 31 c-19 17 -34 38 -34
45 0 21 34 11 38 -11z m-128 -6 c0 -5 -7 -10 -15 -10 -8 0 -15 5 -15 10 0 6 7
10 15 10 8 0 15 -4 15 -10z m-250 -41 c0 -4 -7 -6 -15 -3 -8 4 -15 10 -15 15
0 4 7 6 15 3 8 -4 15 -10 15 -15z m325 0 c4 -12 3 -25 -3 -31 -6 -6 -11 1 -14
21 -5 35 7 42 17 10z m-35 -3 c0 -7 -6 -19 -14 -25 -10 -9 -16 -8 -26 4 -7 9
-10 19 -6 22 4 4 11 1 16 -7 8 -13 10 -12 10 3 0 9 5 17 10 17 6 0 10 -6 10
-14z m-55 -55 c-9 -9 -65 -10 -70 -1 -12 20 5 27 39 16 19 -6 33 -12 31 -15z
m1638 -46 c5 -26 4 -25 -13 10 -11 22 -19 47 -19 55 0 21 25 -29 32 -65z
m-2766 13 c-2 -13 -4 -5 -4 17 -1 22 1 32 4 23 2 -10 2 -28 0 -40z m1198 32
c3 -5 -2 -10 -12 -11 -16 0 -16 -1 2 -9 22 -10 5 -13 -19 -4 -12 5 -13 9 -3
20 14 16 24 17 32 4z m-160 -10 c-3 -5 -13 -10 -21 -10 -8 0 -14 5 -14 10 0 6
9 10 21 10 11 0 17 -4 14 -10z m-50 -10 c-3 -5 -12 -10 -18 -10 -7 0 -6 4 3
10 19 12 23 12 15 0z m-488 -37 c-3 -10 -5 -4 -5 12 0 17 2 24 5 18 2 -7 2
-21 0 -30z m1371 8 c3 -8 -1 -12 -9 -9 -7 2 -15 10 -17 17 -3 8 1 12 9 9 7 -2
15 -10 17 -17z m192 -1 c0 -11 -2 -20 -4 -20 -2 0 -6 9 -9 20 -3 11 -1 20 4
20 5 0 9 -9 9 -20z m-921 -27 c2 -2 -7 -3 -20 -3 -18 0 -25 6 -26 21 -2 21 -1
21 20 3 12 -10 24 -20 26 -21z m-69 4 c10 -4 8 -6 -7 -6 -16 -1 -23 5 -23 17
0 10 3 13 8 6 4 -6 14 -14 22 -17z m-40 3 c0 -5 -4 -10 -10 -10 -5 0 -10 5
-10 10 0 6 5 10 10 10 6 0 10 -4 10 -10z m965 0 c3 -5 -1 -10 -10 -10 -9 0
-13 5 -10 10 3 6 8 10 10 10 2 0 7 -4 10 -10z m-1986 -73 c0 -21 -1 -21 -9 -2
-12 28 -12 37 0 30 6 -3 10 -16 9 -28z m1111 29 c0 -3 -4 -8 -10 -11 -5 -3
-10 -1 -10 4 0 6 5 11 10 11 6 0 10 -2 10 -4z m-1213 -58 c-3 -8 -6 -5 -6 6
-1 11 2 17 5 13 3 -3 4 -12 1 -19z m633 2 c0 -5 -4 -10 -10 -10 -5 0 -10 5
-10 10 0 6 5 10 10 10 6 0 10 -4 10 -10z m-623 -62 c-3 -8 -6 -5 -6 6 -1 11 2
17 5 13 3 -3 4 -12 1 -19z m1753 2 c0 -5 -4 -10 -10 -10 -5 0 -10 5 -10 10 0
6 5 10 10 10 6 0 10 -4 10 -10z m-733 -42 c-3 -8 -6 -5 -6 6 -1 11 2 17 5 13
3 -3 4 -12 1 -19z m-1017 2 c0 -5 -4 -10 -10 -10 -5 0 -10 5 -10 10 0 6 5 10
10 10 6 0 10 -4 10 -10z m665 -77 c0 -17 -4 -29 -8 -26 -5 3 -7 16 -4 29 2 13
0 24 -4 24 -5 0 -9 10 -9 23 1 21 1 22 12 2 7 -11 12 -34 13 -52z m-662 40 c3
-5 8 -28 11 -53 l6 -45 -20 50 c-11 28 -20 51 -20 53 0 5 19 1 23 -5z m2884
-105 c-2 -18 -4 -6 -4 27 0 33 2 48 4 33 2 -15 2 -42 0 -60z m-2750 35 c-3
-10 -5 -4 -5 12 0 17 2 24 5 18 2 -7 2 -21 0 -30z m571 -33 l0 -35 -8 30 c-4
17 -8 41 -8 55 -1 23 0 23 8 5 5 -11 8 -36 8 -55z m3463 47 c-10 -9 -11 -8 -5
6 3 10 9 15 12 12 3 -3 0 -11 -7 -18z m-4014 -9 c-3 -8 -6 -5 -6 6 -1 11 2 17
5 13 3 -3 4 -12 1 -19z m853 12 c0 -5 -4 -10 -10 -10 -5 0 -10 5 -10 10 0 6 5
10 10 10 6 0 10 -4 10 -10z m-383 -37 c-3 -10 -5 -4 -5 12 0 17 2 24 5 18 2
-7 2 -21 0 -30z m2120 -20 c-3 -10 -5 -2 -5 17 0 19 2 27 5 18 2 -10 2 -26 0
-35z m123 37 c0 -5 -4 -10 -10 -10 -5 0 -10 5 -10 10 0 6 5 10 10 10 6 0 10
-4 10 -10z m-1914 -27 c-4 -5 -21 -8 -37 -8 -16 0 -29 3 -29 8 0 4 17 7 37 7
20 0 33 -3 29 -7z m-939 -55 c-2 -13 -4 -5 -4 17 -1 22 1 32 4 23 2 -10 2 -28
0 -40z m560 20 c-3 -8 -6 -5 -6 6 -1 11 2 17 5 13 3 -3 4 -12 1 -19z m193 -23
c0 -5 -5 -3 -10 5 -5 8 -10 20 -10 25 0 6 5 3 10 -5 5 -8 10 -19 10 -25z
m-625 -40 c4 -27 5 -47 1 -44 -4 4 -10 30 -15 58 -5 29 -5 49 0 44 4 -4 11
-30 14 -58z m735 55 c0 -5 -2 -10 -4 -10 -3 0 -8 5 -11 10 -3 6 -1 10 4 10 6
0 11 -4 11 -10z m37 -25 c-4 -8 -11 -15 -17 -15 -7 0 -7 6 0 21 13 23 26 19
17 -6z m-880 -37 c-3 -7 -5 -2 -5 12 0 14 2 19 5 13 2 -7 2 -19 0 -25z m147
-48 c7 -64 -7 -41 -19 30 -5 30 -4 42 3 35 5 -5 13 -35 16 -65z m343 28 c-3
-7 -5 -2 -5 12 0 14 2 19 5 13 2 -7 2 -19 0 -25z m2200 -30 c-3 -7 -5 -2 -5
12 0 14 2 19 5 13 2 -7 2 -19 0 -25z m-2671 -51 c-2 -7 -5 -2 -5 11 -1 13 -5
21 -10 18 -4 -3 -6 7 -3 22 l6 27 8 -33 c5 -19 7 -39 4 -45z m2654 19 c0 -19
3 -43 6 -53 5 -12 4 -15 -3 -8 -15 14 -26 95 -13 95 5 0 10 -15 10 -34z
m-3351 -46 c40 -38 93 -84 119 -102 26 -18 58 -43 72 -56 14 -12 41 -33 60
-44 19 -12 37 -25 40 -29 5 -7 113 -87 161 -119 12 -8 38 -28 58 -45 20 -16
38 -31 40 -32 3 -2 -1 -9 -8 -16 -11 -9 -14 -9 -18 1 -3 6 -9 10 -14 6 -5 -3
-9 -1 -9 4 0 6 -11 13 -24 16 -14 3 -31 12 -38 19 -15 14 -127 90 -144 97 -7
3 -30 22 -53 43 -22 20 -44 37 -48 37 -10 0 -111 90 -101 90 11 0 -38 46 -56
53 -9 4 -16 12 -16 19 0 17 -54 78 -69 78 -6 0 -11 7 -11 15 0 8 -4 15 -10 15
-5 0 -10 5 -10 10 0 16 4 13 79 -60z m3791 13 c-11 -17 -11 -17 -6 0 3 10 6
24 7 30 0 9 2 9 5 0 3 -7 0 -20 -6 -30z m-2993 5 c-3 -8 -6 -5 -6 6 -1 11 2
17 5 13 3 -3 4 -12 1 -19z m-87 -14 c0 -8 -19 -13 -24 -6 -3 5 1 9 9 9 8 0 15
-2 15 -3z m2667 -26 c-3 -8 -6 -5 -6 6 -1 11 2 17 5 13 3 -3 4 -12 1 -19z
m-80 -45 c-3 -10 -5 -2 -5 17 0 19 2 27 5 18 2 -10 2 -26 0 -35z m490 15 c-3
-7 -5 -2 -5 12 0 14 2 19 5 13 2 -7 2 -19 0 -25z m-3067 12 c0 -5 -2 -10 -4
-10 -3 0 -8 5 -11 10 -3 6 -1 10 4 10 6 0 11 -4 11 -10z m307 -12 c-3 -8 -6
-5 -6 6 -1 11 2 17 5 13 3 -3 4 -12 1 -19z m2330 -15 c-3 -10 -5 -4 -5 12 0
17 2 24 5 18 2 -7 2 -21 0 -30z m-2370 -15 c-3 -7 -5 -2 -5 12 0 14 2 19 5 13
2 -7 2 -19 0 -25z m-281 -29 c8 -9 11 -19 7 -22 -11 -12 -23 -8 -23 7 0 8 -4
16 -10 18 -5 2 -6 14 -3 28 6 22 8 23 11 5 2 -11 10 -27 18 -36z m24 31 c0 -5
-4 -10 -10 -10 -5 0 -10 5 -10 10 0 6 5 10 10 10 6 0 10 -4 10 -10z m3087 -83
c1 -25 -3 -37 -10 -34 -8 3 -12 -16 -12 -62 0 -50 -3 -66 -14 -66 -8 0 -15 6
-17 13 -1 7 0 8 3 2 2 -5 8 -10 13 -10 11 0 0 124 -11 128 -5 2 -9 18 -8 35 0
18 3 25 6 17 4 -8 12 -21 20 -28 11 -11 13 -10 13 5 0 11 -4 23 -10 29 -5 5
-7 20 -3 32 l6 23 11 -23 c7 -13 12 -40 13 -61z m-480 41 c-3 -8 -6 -5 -6 6
-1 11 2 17 5 13 3 -3 4 -12 1 -19z m1043 18 c0 -2 -8 -10 -17 -17 -16 -13 -17
-12 -4 4 13 16 21 21 21 13z m-633 -38 c-3 -7 -5 -2 -5 12 0 14 2 19 5 13 2
-7 2 -19 0 -25z m-3824 0 c12 -13 34 -36 47 -52 25 -29 25 -29 3 -24 -21 6
-21 5 -7 -17 10 -16 22 -21 42 -19 26 4 27 3 2 -4 -43 -14 -50 -43 -28 -130
10 -42 21 -99 24 -125 6 -47 5 -48 -15 -37 -12 6 -22 16 -22 23 -1 7 -3 27 -5
45 -1 19 -7 46 -12 60 -11 29 -23 80 -20 84 1 2 -5 14 -12 28 -7 13 -14 38
-16 55 -4 44 -12 94 -19 116 -9 26 11 24 38 -3z m788 -6 c7 2 14 -1 14 -7 1
-5 5 -18 10 -28 4 -10 5 -38 3 -62 -4 -33 -1 -48 11 -58 19 -17 41 -12 41 9 0
20 -18 17 -22 -3 -3 -15 -5 -14 -10 5 -4 14 -2 20 4 16 7 -5 9 3 4 22 -9 34
-7 32 28 -23 19 -31 21 -41 10 -36 -14 5 -14 3 -3 -16 8 -11 19 -21 25 -21 7
0 10 -9 7 -22 -3 -17 -2 -19 5 -10 7 11 10 9 14 -6 5 -16 2 -19 -11 -14 -9 3
-19 10 -23 16 -5 8 -10 8 -18 0 -8 -8 -20 -8 -43 0 -69 25 -107 55 -106 86 0
10 4 8 10 -5 7 -14 8 -7 4 28 -2 26 -1 46 3 43 4 -3 7 20 5 51 -2 45 0 53 11
44 8 -7 20 -10 27 -9z m45 2 c-4 -9 -1 -23 5 -30 8 -9 8 -14 1 -14 -6 0 -14 5
-17 10 -7 11 3 50 12 50 3 0 2 -7 -1 -16z m2634 -129 c-1 -16 -38 67 -45 100
-3 17 5 3 19 -30 14 -33 26 -64 26 -70z m-3 73 c-3 -8 -6 -5 -6 6 -1 11 2 17
5 13 3 -3 4 -12 1 -19z m443 -91 c0 -23 -16 -55 -23 -47 -2 3 -2 22 1 42 4 39
22 43 22 5z m-415 -16 c3 -5 1 -12 -5 -16 -5 -3 -10 1 -10 9 0 18 6 21 15 7z
m-31 -27 c8 -21 8 -24 -3 -24 -5 0 -11 9 -14 20 -6 24 8 27 17 4z m20 -50 c3
-8 2 -12 -4 -9 -6 3 -10 10 -10 16 0 14 7 11 14 -7z m-2824 -64 c9 -16 8 -18
-5 -14 -8 4 -15 12 -15 20 0 20 7 17 20 -6z m2830 -46 c0 -8 -4 -12 -10 -9 -5
3 -10 13 -10 21 0 8 5 12 10 9 6 -3 10 -13 10 -21z m-25 -36 c1 -12 6 -36 10
-53 5 -20 4 -27 -3 -20 -15 15 -34 83 -27 95 9 15 16 7 20 -22z m-2910 -8 c3
-5 1 -10 -4 -10 -6 0 -11 5 -11 10 0 6 2 10 4 10 3 0 8 -4 11 -10z m2873 -12
c-3 -7 2 -19 9 -27 14 -14 14 -43 1 -42 -10 1 -28 63 -22 73 8 13 16 9 12 -4z
m-47 -22 c-9 -11 -8 -14 5 -12 9 0 19 -5 22 -13 2 -8 0 -11 -6 -7 -6 4 -8 -2
-5 -14 3 -11 1 -20 -5 -20 -5 0 -13 11 -16 25 -4 15 -11 23 -17 19 -6 -3 -5 3
3 15 7 12 17 21 22 21 4 0 3 -6 -3 -14z m-3279 -75 c2 -44 -1 -65 -9 -68 -16
-6 -17 29 -1 45 9 9 9 18 0 37 -15 32 -16 73 -2 59 5 -5 11 -38 12 -73z m3263
22 c-2 -10 -4 -21 -4 -25 -1 -4 -8 -5 -16 -2 -11 5 -12 10 -2 25 15 24 26 25
22 2z m-42 -4 c-6 -6 -9 -17 -7 -24 3 -7 1 -16 -5 -20 -6 -3 -11 -1 -11 5 0 6
-6 8 -12 4 -7 -4 -2 5 11 19 14 15 27 27 30 27 3 0 0 -5 -6 -11z"/>
<path d="M2400 4718 c0 -9 5 -20 10 -23 13 -8 13 5 0 25 -8 13 -10 13 -10 -2z"/>
<path d="M1440 4686 c0 -9 -4 -15 -9 -12 -4 3 -6 -7 -3 -22 l6 -27 8 34 c5 18
7 36 4 39 -3 3 -6 -2 -6 -12z"/>
<path d="M1645 3960 c4 -6 11 -8 16 -5 14 9 11 15 -7 15 -8 0 -12 -5 -9 -10z"/>
<path d="M1381 3604 c0 -11 3 -14 6 -6 3 7 2 16 -1 19 -3 4 -6 -2 -5 -13z"/>
<path d="M1395 3539 c7 -50 34 -134 30 -94 -1 17 -5 37 -8 45 -3 8 -11 31 -16
50 l-11 35 5 -36z"/>
<path d="M1761 3497 c-8 -10 -7 -18 2 -30 10 -14 18 -15 44 -8 17 5 34 7 37 3
3 -3 6 0 6 6 0 34 -66 56 -89 29z"/>
<path d="M3588 4923 c7 -3 16 -2 19 1 4 3 -2 6 -13 5 -11 0 -14 -3 -6 -6z"/>
<path d="M237 4435 c3 -8 9 -12 14 -9 12 7 11 11 -5 17 -10 4 -13 1 -9 -8z"/>
<path d="M4206 4824 c19 -15 19 -16 -1 -8 -51 18 -72 16 -104 -12 -28 -24 -32
-32 -28 -63 8 -56 12 -70 27 -84 10 -10 11 -9 5 2 -6 11 -4 13 9 8 10 -4 23
-7 29 -8 7 0 3 -4 -8 -9 -16 -7 -11 -9 21 -9 27 -1 50 6 67 19 29 23 51 80 42
109 -7 23 -53 71 -68 71 -6 0 -2 -7 9 -16z m24 -134 c-11 -21 -48 -45 -57 -37
-2 3 5 8 16 12 12 3 26 15 31 26 6 10 13 19 16 19 2 0 0 -9 -6 -20z"/>
<path d="M3985 4749 c-10 -15 3 -25 16 -12 7 7 7 13 1 17 -6 3 -14 1 -17 -5z"/>
<path d="M4440 4610 c1 -18 29 -70 30 -54 0 7 -7 25 -15 40 -8 16 -15 22 -15
14z"/>
<path d="M4484 3351 c0 -15 3 -17 13 -9 7 6 10 14 7 19 -9 15 -20 10 -20 -10z"/>
<path d="M4416 3265 c4 -16 7 -36 7 -42 0 -9 4 -10 14 -2 7 6 13 14 13 17 0 3
-3 2 -7 -2 -4 -4 -13 8 -20 26 -13 32 -13 32 -7 3z"/>
<path d="M4600 2920 c0 -5 5 -10 10 -10 6 0 10 5 10 10 0 6 -4 10 -10 10 -5 0
-10 -4 -10 -10z"/>
<path d="M1300 3301 c0 -25 6 -27 13 -6 4 8 2 17 -3 20 -6 4 -10 -3 -10 -14z"/>
<path d="M3385 3380 c-16 -16 -26 -30 -22 -30 3 0 78 -16 167 -36 88 -20 167
-34 174 -31 20 8 67 97 53 99 -7 0 -25 2 -42 3 -16 1 -43 5 -59 9 -55 14 -226
17 -226 3 0 -9 -2 -9 -8 1 -6 9 -16 4 -37 -18z"/>
<path d="M3634 2978 c-26 -29 -51 -52 -56 -50 -5 1 -7 -2 -3 -8 3 -5 -9 -28
-27 -50 -26 -34 -37 -40 -58 -35 -20 4 -22 3 -8 -5 9 -5 69 -19 135 -30 122
-21 238 -52 228 -62 -3 -3 7 -3 22 -1 22 4 25 2 13 -6 -12 -8 -12 -11 -1 -11
8 0 11 -6 7 -16 -5 -12 -1 -14 15 -9 18 6 19 5 10 -13 -13 -25 -15 -55 -2 -48
4 3 16 -3 24 -12 14 -15 16 -37 14 -116 -4 -105 -9 -116 -59 -116 -16 0 -28
-4 -28 -9 0 -14 82 -82 94 -78 14 5 26 66 20 97 -5 23 -4 24 7 5 6 -11 23 -32
37 -47 18 -20 23 -33 18 -53 -7 -26 -6 -26 44 -24 79 4 82 21 10 63 -78 46
-87 55 -106 108 -19 53 -21 121 -5 171 12 35 15 37 54 38 23 1 50 1 59 0 10
-1 27 3 39 10 17 9 19 13 8 20 -8 5 -13 20 -11 38 3 28 1 30 -67 52 -61 20
-69 25 -58 38 11 14 10 14 -6 2 -15 -12 -25 -11 -75 7 -31 12 -75 26 -97 31
l-40 9 40 2 40 1 -49 13 c-49 14 -86 11 -86 -5 0 -5 -7 -9 -15 -9 -8 0 -15 -6
-15 -12 0 -10 -3 -9 -9 1 -5 7 -14 10 -21 6 -9 -6 -9 -10 1 -17 10 -7 9 -8 -6
-4 -11 2 -39 8 -63 11 -24 4 -42 10 -40 15 4 10 56 76 97 122 18 21 31 38 28
38 -3 0 -26 -24 -53 -52z m141 -98 c3 -5 1 -10 -4 -10 -6 0 -11 5 -11 10 0 6
2 10 4 10 3 0 8 -4 11 -10z"/>
<path d="M4080 3000 c0 -5 5 -10 11 -10 5 0 7 5 4 10 -3 6 -8 10 -11 10 -2 0
-4 -4 -4 -10z"/>
<path d="M2965 2920 c3 -5 12 -10 18 -10 7 0 18 -9 25 -20 14 -23 32 -26 32
-5 0 8 -13 21 -30 30 -33 17 -54 20 -45 5z"/>
<path d="M4221 2804 l-24 -25 25 11 c13 7 25 18 25 26 0 8 -1 14 -1 14 -1 0
-12 -12 -25 -26z"/>
<path d="M4180 2761 c0 -5 9 -7 20 -4 11 3 20 7 20 9 0 2 -9 4 -20 4 -11 0
-20 -4 -20 -9z"/>
<path d="M4364 2735 c-16 -12 -17 -14 -3 -15 9 0 19 7 23 15 7 19 5 19 -20 0z"/>
<path d="M3917 2540 c-3 -11 -1 -23 4 -26 5 -3 9 6 9 20 0 31 -6 34 -13 6z"/>
<path d="M3853 2506 c-34 -16 -28 -28 14 -24 22 2 38 9 41 18 3 8 1 12 -3 8
-5 -4 -13 -4 -19 0 -6 5 -21 3 -33 -2z m32 -6 c3 -5 1 -10 -4 -10 -6 0 -11 5
-11 10 0 6 2 10 4 10 3 0 8 -4 11 -10z"/>
<path d="M3380 2091 c0 -11 4 -22 9 -25 4 -3 6 6 3 19 -5 30 -12 33 -12 6z"/>
<path d="M5135 1519 c-4 -6 -5 -12 -2 -15 2 -3 7 2 10 11 7 17 1 20 -8 4z"/>
<path d="M4660 1214 c0 -8 5 -12 10 -9 6 3 10 10 10 16 0 5 -4 9 -10 9 -5 0
-10 -7 -10 -16z"/>
<path d="M4891 1194 c0 -11 3 -14 6 -6 3 7 2 16 -1 19 -3 4 -6 -2 -5 -13z"/>
<path d="M4843 1137 c-22 -29 -29 -45 -22 -53 6 -8 6 -14 0 -18 -5 -3 -11 -1
-13 6 -3 9 -10 8 -22 -5 -23 -22 -13 -35 11 -16 16 13 17 12 4 -3 -7 -10 -10
-18 -5 -17 5 0 20 14 33 30 13 16 19 28 15 27 -13 -4 -16 5 -9 24 4 10 11 15
16 12 5 -3 6 -11 2 -17 -3 -7 3 -3 16 7 13 12 18 23 12 29 -5 5 -7 16 -4 23 9
23 0 15 -34 -29z"/>
<path d="M4900 1130 c0 -5 5 -10 10 -10 6 0 10 5 10 10 0 6 -4 10 -10 10 -5 0
-10 -4 -10 -10z"/>
<path d="M1353 2626 c0 -18 3 -24 9 -18 7 7 7 16 0 28 -8 14 -9 13 -9 -10z"/>
<path d="M1402 2535 c0 -16 2 -22 5 -12 2 9 2 23 0 30 -3 6 -5 -1 -5 -18z"/>
<path d="M1242 2570 c0 -14 2 -19 5 -12 2 6 2 18 0 25 -3 6 -5 1 -5 -13z"/>
<path d="M1485 2271 c-8 -27 -4 -33 14 -22 10 6 11 14 3 26 -9 17 -10 16 -17
-4z"/>
<path d="M1320 2232 c0 -18 5 -32 10 -32 6 0 8 11 4 28 -10 39 -14 40 -14 4z"/>
<path d="M1360 2250 c-8 -5 -11 -12 -7 -16 4 -4 15 0 24 9 18 18 8 23 -17 7z"/>
<path d="M1381 2234 c-20 -19 -23 -29 -18 -64 4 -34 3 -39 -9 -29 -17 14 -18
5 -3 -23 13 -25 3 -80 -12 -57 -6 9 -9 -5 -9 -44 0 -36 -4 -56 -10 -52 -5 3
-10 18 -10 32 0 31 -5 28 -14 -9 -5 -22 -2 -28 16 -34 13 -4 25 -6 27 -5 2 2
7 -3 11 -10 15 -23 38 -3 32 28 -2 15 -2 25 2 22 4 -4 8 -20 8 -36 1 -21 6
-29 19 -29 10 0 21 6 24 14 2 7 0 10 -5 7 -6 -3 -7 1 -4 9 3 9 10 16 14 16 14
0 18 -24 8 -44 -9 -16 -7 -18 11 -13 13 3 25 -1 31 -11 5 -10 10 -12 10 -6 0
16 -25 35 -34 26 -4 -4 -4 6 0 22 5 22 3 32 -11 42 -20 15 -23 77 -6 98 6 7 8
23 5 37 -3 15 1 11 10 -11 l15 -35 -2 50 c0 28 -6 56 -12 64 -7 11 -7 13 1 8
7 -4 15 0 18 9 9 24 8 26 -14 14 -14 -8 -20 -8 -20 0 0 6 -7 18 -15 26 -12 12
-15 12 -15 2 0 -9 -3 -9 -8 -2 -5 7 -15 4 -31 -12z m-24 -245 c0 -24 -2 -27
-10 -14 -5 9 -6 23 -3 31 8 22 13 17 13 -17z"/>
<path d="M1524 2223 c0 -20 4 -32 10 -30 6 2 10 14 8 25 -2 13 2 22 9 22 15 0
3 13 -14 16 -7 1 -12 -12 -13 -33z"/>
<path d="M1003 2185 c0 -22 2 -30 4 -17 2 12 2 30 0 40 -3 9 -5 -1 -4 -23z"/>
<path d="M1082 2170 c0 -14 2 -19 5 -12 2 6 2 18 0 25 -3 6 -5 1 -5 -13z"/>
<path d="M1326 2181 c-4 -7 -5 -15 -2 -18 9 -9 19 4 14 18 -4 11 -6 11 -12 0z"/>
<path d="M967 2053 c-8 -32 -7 -97 2 -128 6 -23 9 -9 8 58 0 87 -2 102 -10 70z"/>
<path d="M1040 2053 c0 -4 5 -15 10 -23 8 -13 10 -13 10 2 0 9 -4 20 -10 23
-5 3 -10 3 -10 -2z"/>
<path d="M1461 2044 c0 -11 3 -14 6 -6 3 7 2 16 -1 19 -3 4 -6 -2 -5 -13z"/>
<path d="M3176 2022 c-2 -4 -1 -14 5 -22 7 -12 9 -10 9 8 0 23 -5 28 -14 14z"/>
<path d="M941 1994 c0 -11 3 -14 6 -6 3 7 2 16 -1 19 -3 4 -6 -2 -5 -13z"/>
<path d="M3153 1925 c0 -22 2 -30 4 -17 2 12 2 30 0 40 -3 9 -5 -1 -4 -23z"/>
<path d="M890 1919 c0 -14 -5 -30 -11 -36 -7 -7 -7 -13 0 -17 11 -7 28 61 17
71 -3 4 -6 -5 -6 -18z"/>
<path d="M1270 1923 c0 -15 18 -35 23 -27 3 5 -1 15 -9 22 -8 7 -14 9 -14 5z"/>
<path d="M1304 1874 c-1 -57 15 -78 17 -21 2 41 -1 60 -9 69 -4 4 -7 -18 -8
-48z"/>
<path d="M1335 1893 c2 -16 4 -63 4 -105 1 -43 4 -78 9 -78 4 0 7 18 6 40 0
22 2 40 5 40 3 0 7 29 7 65 1 56 -1 65 -17 65 -13 0 -17 -6 -14 -27z"/>
<path d="M1191 1907 c2 -1 13 -9 24 -17 19 -14 19 -14 6 3 -7 9 -18 17 -24 17
-6 0 -8 -1 -6 -3z"/>
<path d="M1051 1884 c0 -11 3 -14 6 -6 3 7 2 16 -1 19 -3 4 -6 -2 -5 -13z"/>
<path d="M1141 1884 c0 -11 3 -14 6 -6 3 7 2 16 -1 19 -3 4 -6 -2 -5 -13z"/>
<path d="M981 1854 c0 -11 3 -14 6 -6 3 7 2 16 -1 19 -3 4 -6 -2 -5 -13z"/>
<path d="M1371 1834 c0 -11 3 -14 6 -6 3 7 2 16 -1 19 -3 4 -6 -2 -5 -13z"/>
<path d="M1292 1785 c0 -16 2 -22 5 -12 2 9 2 23 0 30 -3 6 -5 -1 -5 -18z"/>
<path d="M3159 1743 c5 -10 9 -22 9 -28 0 -5 5 -11 11 -13 7 -2 7 6 0 27 -6
17 -15 31 -20 31 -6 0 -6 -7 0 -17z"/>
<path d="M1186 1615 c5 -73 10 -120 14 -120 1 0 3 -9 5 -20 7 -47 16 -90 22
-95 7 -6 -3 64 -27 207 l-19 108 5 -80z"/>
<path d="M1057 1585 c3 -33 7 -62 9 -64 8 -8 2 74 -7 99 -5 16 -6 4 -2 -35z"/>
<path d="M1391 1624 c0 -11 3 -14 6 -6 3 7 2 16 -1 19 -3 4 -6 -2 -5 -13z"/>
<path d="M1482 1620 c0 -14 2 -19 5 -12 2 6 2 18 0 25 -3 6 -5 1 -5 -13z"/>
<path d="M1161 1614 c0 -11 3 -14 6 -6 3 7 2 16 -1 19 -3 4 -6 -2 -5 -13z"/>
<path d="M1495 1580 c3 -5 8 -10 11 -10 2 0 4 5 4 10 0 6 -5 10 -11 10 -5 0
-7 -4 -4 -10z"/>
<path d="M1401 1555 c0 -16 4 -37 9 -45 8 -12 10 -10 9 10 0 14 -4 34 -9 45
-7 17 -9 16 -9 -10z"/>
<path d="M1431 1564 c0 -11 3 -14 6 -6 3 7 2 16 -1 19 -3 4 -6 -2 -5 -13z"/>
<path d="M1520 1575 c-1 -5 -3 -22 -5 -36 -2 -16 3 -29 15 -37 15 -9 19 -7 23
14 3 15 -3 33 -14 47 -10 12 -19 18 -19 12z"/>
<path d="M1312 1540 c0 -14 2 -19 5 -12 2 6 2 18 0 25 -3 6 -5 1 -5 -13z"/>
<path d="M1486 1547 c3 -10 9 -15 12 -12 3 3 0 11 -7 18 -10 9 -11 8 -5 -6z"/>
<path d="M1430 1519 c0 -8 7 -24 15 -35 19 -25 19 -14 0 22 -8 16 -15 22 -15
13z"/>
<path d="M1068 1488 c-3 -15 -2 -25 2 -23 4 3 11 -17 15 -43 14 -97 16 -108
25 -137 10 -30 10 -30 6 -2 -2 15 2 27 8 27 7 0 8 3 1 8 -6 4 -12 16 -13 27
-1 11 -10 54 -20 95 -15 60 -19 70 -24 48z"/>
<path d="M1603 1500 c2 -8 12 -16 23 -17 13 -2 15 -1 4 4 -8 3 -19 11 -23 17
-6 7 -7 6 -4 -4z"/>
<path d="M1421 1474 c0 -11 3 -14 6 -6 3 7 2 16 -1 19 -3 4 -6 -2 -5 -13z"/>
<path d="M1502 1470 c0 -14 2 -19 5 -12 2 6 2 18 0 25 -3 6 -5 1 -5 -13z"/>
<path d="M1246 1467 c3 -10 9 -15 12 -12 3 3 0 11 -7 18 -10 9 -11 8 -5 -6z"/>
<path d="M1647 1474 c-11 -11 3 -24 25 -24 17 0 18 2 8 15 -13 16 -23 19 -33
9z"/>
<path d="M1142 1445 c0 -16 2 -22 5 -12 2 9 2 23 0 30 -3 6 -5 -1 -5 -18z"/>
<path d="M1477 1403 c6 -84 11 -88 12 -10 1 37 -3 67 -7 67 -5 0 -7 -26 -5
-57z"/>
<path d="M1710 1440 c0 -5 5 -10 10 -10 6 0 10 5 10 10 0 6 -4 10 -10 10 -5 0
-10 -4 -10 -10z"/>
<path d="M1667 1423 c-3 -5 1 -13 8 -20 10 -10 16 -9 24 1 9 10 8 15 -5 20
-20 8 -22 8 -27 -1z"/>
<path d="M2932 1400 c0 -19 2 -27 5 -17 2 9 2 25 0 35 -3 9 -5 1 -5 -18z"/>
<path d="M1525 1410 c-3 -5 -1 -10 4 -10 6 0 11 5 11 10 0 6 -2 10 -4 10 -3 0
-8 -4 -11 -10z"/>
<path d="M1770 1388 c0 -5 9 -6 20 -3 14 5 20 2 20 -9 0 -22 17 -20 22 2 4 15
-1 19 -28 19 -19 0 -34 -4 -34 -9z"/>
<path d="M2078 1393 c6 -2 12 -9 12 -14 0 -6 -6 -7 -12 -3 -10 5 -10 4 -1 -6
16 -18 38 -3 22 16 -6 8 -17 14 -23 13 -7 0 -6 -2 2 -6z"/>
<path d="M1190 1383 c0 -4 5 -15 10 -23 8 -13 10 -13 10 2 0 9 -4 20 -10 23
-5 3 -10 3 -10 -2z"/>
<path d="M1537 1353 c-4 -3 -7 -16 -6 -27 0 -19 1 -19 10 3 10 24 8 36 -4 24z"/>
<path d="M2036 1325 c16 -13 16 -14 2 -9 -15 5 -18 0 -17 -27 l1 -34 7 29 c3
17 9 29 14 28 4 -1 7 0 7 3 0 3 0 10 0 15 0 6 -8 10 -17 10 -15 0 -14 -2 3
-15z"/>
<path d="M1826 1315 c-3 -8 -1 -15 4 -15 6 0 10 7 10 15 0 8 -2 15 -4 15 -2 0
-6 -7 -10 -15z"/>
<path d="M2877 1313 c-3 -5 -1 -17 4 -28 7 -17 8 -17 8 8 1 27 -4 34 -12 20z"/>
<path d="M2900 1309 c0 -5 5 -7 10 -4 6 3 10 8 10 11 0 2 -4 4 -10 4 -5 0 -10
-5 -10 -11z"/>
<path d="M1291 1305 c1 -19 18 -51 18 -35 0 8 -4 22 -9 30 -5 8 -9 11 -9 5z"/>
<path d="M1906 1280 c-8 -40 -2 -49 14 -21 7 13 7 27 2 37 -7 13 -10 9 -16
-16z"/>
<path d="M2592 1297 c-13 -15 1 -42 17 -33 13 8 15 46 2 46 -5 0 -13 -6 -19
-13z"/>
<path d="M1552 1291 c-11 -7 -11 -9 2 -14 10 -4 16 -1 16 8 0 17 -1 17 -18 6z"/>
<path d="M2045 1280 c3 -5 8 -10 11 -10 2 0 4 5 4 10 0 6 -5 10 -11 10 -5 0
-7 -4 -4 -10z"/>
<path d="M2911 1274 c0 -11 3 -14 6 -6 3 7 2 16 -1 19 -3 4 -6 -2 -5 -13z"/>
<path d="M900 1264 c0 -8 5 -12 10 -9 6 3 10 10 10 16 0 5 -4 9 -10 9 -5 0
-10 -7 -10 -16z"/>
<path d="M1994 1255 c-8 -21 2 -45 20 -45 23 0 27 28 5 35 -10 4 -17 11 -14
16 4 5 4 9 0 9 -3 0 -8 -7 -11 -15z"/>
<path d="M1853 1230 c-1 -17 2 -30 7 -30 6 0 10 14 10 30 0 39 -14 39 -17 0z"/>
<path d="M2882 1230 c0 -14 2 -19 5 -12 2 6 2 18 0 25 -3 6 -5 1 -5 -13z"/>
<path d="M1306 1227 c3 -10 9 -15 12 -12 3 3 0 11 -7 18 -10 9 -11 8 -5 -6z"/>
<path d="M2748 1218 c9 -9 15 -9 24 0 9 9 7 12 -12 12 -19 0 -21 -3 -12 -12z"/>
<path d="M1081 1194 c0 -11 3 -14 6 -6 3 7 2 16 -1 19 -3 4 -6 -2 -5 -13z"/>
<path d="M2792 1190 c0 -14 2 -19 5 -12 2 6 2 18 0 25 -3 6 -5 1 -5 -13z"/>
<path d="M2900 1191 c0 -11 -38 -26 -61 -23 -9 2 -21 -4 -28 -11 -9 -12 -8
-16 5 -21 14 -5 14 -9 3 -22 -11 -14 -10 -15 11 -12 14 1 25 10 25 18 0 22 33
25 38 3 2 -10 3 -7 1 7 -1 14 4 32 12 42 10 11 12 18 5 23 -6 3 -11 2 -11 -4z"/>
<path d="M1840 1159 c0 -5 -5 -7 -12 -3 -7 4 -8 3 -4 -5 4 -6 11 -9 16 -6 4 3
15 -11 24 -30 9 -19 21 -37 26 -40 18 -11 10 23 -12 59 -23 35 -38 45 -38 25z"/>
<path d="M1083 1115 c0 -22 2 -30 4 -17 2 12 2 30 0 40 -3 9 -5 -1 -4 -23z"/>
<path d="M2757 1133 c-4 -6 -3 -14 2 -17 5 -4 12 -24 16 -46 5 -31 2 -47 -14
-74 -12 -18 -21 -41 -21 -50 0 -9 -4 -16 -9 -16 -5 0 -12 -7 -15 -16 -3 -8 -2
-12 4 -9 20 12 10 -17 -12 -34 -15 -12 -18 -20 -10 -25 7 -4 15 -1 18 7 4 11
14 13 42 6 20 -4 38 -13 40 -18 6 -17 22 -13 23 7 1 11 4 9 9 -8 l8 -25 1 27
c1 15 6 39 11 54 8 20 8 30 -1 38 -9 8 -10 6 -5 -9 6 -15 4 -17 -5 -8 -9 9 -8
16 4 33 14 20 16 21 20 3 3 -10 5 -1 6 19 0 20 4 45 7 55 5 13 2 12 -10 -5
-10 -12 -14 -28 -10 -35 5 -9 4 -9 -7 1 -11 10 -11 16 -1 32 16 27 15 57 -3
64 -20 7 -46 -4 -38 -17 4 -6 1 -7 -6 -2 -7 4 -11 18 -9 30 3 16 1 22 -8 18
-7 -2 -14 4 -16 14 -2 12 -6 14 -11 6z m77 -239 c3 -8 2 -12 -4 -9 -6 3 -10 1
-10 -6 0 -7 -2 -10 -5 -7 -5 5 4 38 10 38 2 0 6 -7 9 -16z"/>
<path d="M961 1114 c0 -11 3 -14 6 -6 3 7 2 16 -1 19 -3 4 -6 -2 -5 -13z"/>
<path d="M1858 1073 c6 -2 12 -14 12 -26 0 -12 5 -29 10 -37 8 -11 9 -7 4 15
-9 48 -13 55 -26 54 -10 0 -10 -2 0 -6z"/>
<path d="M1311 1034 c0 -11 3 -14 6 -6 3 7 2 16 -1 19 -3 4 -6 -2 -5 -13z"/>
<path d="M1920 1030 c0 -5 5 -10 11 -10 5 0 7 5 4 10 -3 6 -8 10 -11 10 -2 0
-4 -4 -4 -10z"/>
<path d="M1191 994 c-1 -20 5 -34 14 -38 10 -4 15 1 15 14 0 11 -4 20 -9 20
-5 0 -12 8 -14 18 -3 9 -5 3 -6 -14z"/>
<path d="M2745 840 c-3 -5 -1 -10 4 -10 6 0 11 5 11 10 0 6 -2 10 -4 10 -3 0
-8 -4 -11 -10z"/>
<path d="M2769 785 c-4 -5 -9 -32 -12 -60 -4 -27 -4 -43 -1 -35 3 8 10 24 16
36 10 22 8 76 -3 59z"/>
<path d="M2796 753 c-6 -14 -5 -15 5 -6 7 7 10 15 7 18 -3 3 -9 -2 -12 -12z"/>
<path d="M2781 704 c0 -11 3 -14 6 -6 3 7 2 16 -1 19 -3 4 -6 -2 -5 -13z"/>
<path d="M2746 655 c-9 -26 -7 -32 5 -12 6 10 9 21 6 23 -2 3 -7 -2 -11 -11z"/>
<path d="M3331 614 c0 -11 3 -14 6 -6 3 7 2 16 -1 19 -3 4 -6 -2 -5 -13z"/>
<path d="M2643 483 c-20 -7 -15 -31 8 -43 19 -11 20 -10 8 12 -11 21 -11 22 4
10 13 -11 15 -10 10 7 -5 22 -9 23 -30 14z"/>
<path d="M3301 424 c0 -11 3 -14 6 -6 3 7 2 16 -1 19 -3 4 -6 -2 -5 -13z"/>
<path d="M3416 335 c4 -8 10 -15 15 -15 4 0 6 7 3 15 -4 8 -10 15 -15 15 -4 0
-6 -7 -3 -15z"/>
<path d="M3341 274 c0 -11 3 -14 6 -6 3 7 2 16 -1 19 -3 4 -6 -2 -5 -13z"/>
<path d="M736 2105 c-9 -26 -7 -32 5 -12 6 10 9 21 6 23 -2 3 -7 -2 -11 -11z"/>
<path d="M215 1859 c-4 -6 -5 -12 -2 -15 2 -3 7 2 10 11 7 17 1 20 -8 4z"/>
<path d="M185 1790 c-3 -5 -1 -10 4 -10 6 0 11 5 11 10 0 6 -2 10 -4 10 -3 0
-8 -4 -11 -10z"/>
<path d="M566 1629 c-8 -42 0 -50 9 -9 4 17 5 34 2 36 -2 3 -7 -10 -11 -27z"/>
<path d="M540 1539 c-6 -24 -13 -49 -15 -56 -2 -7 -1 -15 4 -17 4 -3 8 0 8 7
0 7 5 32 11 57 14 58 7 66 -8 9z"/>
<path d="M505 1354 c-9 -62 -1 -65 11 -4 6 28 7 50 3 50 -4 0 -10 -21 -14 -46z"/>
<path d="M492 1270 c0 -14 2 -19 5 -12 2 6 2 18 0 25 -3 6 -5 1 -5 -13z"/>
<path d="M482 1185 c0 -16 2 -22 5 -12 2 9 2 23 0 30 -3 6 -5 -1 -5 -18z"/>
<path d="M372 845 c0 -16 2 -22 5 -12 2 9 2 23 0 30 -3 6 -5 -1 -5 -18z"/>
<path d="M3347 1769 c4 -13 8 -18 11 -10 2 7 -1 18 -6 23 -8 8 -9 4 -5 -13z"/>
<path d="M3366 1685 c8 -37 14 -45 14 -19 0 10 -5 26 -10 34 -8 11 -9 7 -4
-15z"/>
<path d="M3280 1514 c0 -10 5 -26 10 -34 8 -11 9 -7 4 15 -8 37 -14 45 -14 19z"/>
<path d="M3452 1375 c0 -16 2 -22 5 -12 2 9 2 23 0 30 -3 6 -5 -1 -5 -18z"/>
<path d="M3581 1359 c6 -24 13 -46 16 -49 9 -8 -8 74 -17 84 -5 4 -4 -11 1
-35z"/>
<path d="M3462 1310 c0 -14 2 -19 5 -12 2 6 2 18 0 25 -3 6 -5 1 -5 -13z"/>
<path d="M3450 1181 c0 -11 4 -22 9 -25 4 -3 6 6 3 19 -5 30 -12 33 -12 6z"/>
<path d="M3391 1104 c0 -11 3 -14 6 -6 3 7 2 16 -1 19 -3 4 -6 -2 -5 -13z"/>
<path d="M3442 1035 c0 -16 2 -22 5 -12 2 9 2 23 0 30 -3 6 -5 -1 -5 -18z"/>
<path d="M3446 985 c4 -8 8 -15 10 -15 2 0 4 7 4 15 0 8 -4 15 -10 15 -5 0 -7
-7 -4 -15z"/>
<path d="M810 660 c0 -8 5 -22 10 -30 9 -13 10 -13 10 0 0 8 -5 22 -10 30 -9
13 -10 13 -10 0z"/>
<path d="M877 486 c-4 -10 0 -12 14 -9 22 6 26 23 5 23 -8 0 -16 -6 -19 -14z"/>
<path d="M3800 6340 c20 -13 33 -13 25 0 -3 6 -14 10 -23 10 -15 0 -15 -2 -2
-10z"/>
<path d="M5295 5821 c-7 -12 2 -31 15 -31 9 0 8 26 -2 35 -3 4 -9 2 -13 -4z"/>
<path d="M4870 5770 c20 -13 70 -13 70 0 0 6 -19 10 -42 10 -32 0 -39 -3 -28
-10z"/>
<path d="M5010 5761 c0 -6 9 -9 19 -8 11 0 17 5 15 9 -7 11 -34 10 -34 -1z"/>
<path d="M5280 5095 c-8 -9 -8 -15 -2 -15 12 0 26 19 19 26 -2 2 -10 -2 -17
-11z"/>
<path d="M5581 4124 c0 -11 3 -14 6 -6 3 7 2 16 -1 19 -3 4 -6 -2 -5 -13z"/>
<path d="M4940 3500 c0 -5 5 -10 10 -10 6 0 10 5 10 10 0 6 -4 10 -10 10 -5 0
-10 -4 -10 -10z"/>
<path d="M4936 3435 c4 -8 8 -15 10 -15 2 0 4 7 4 15 0 8 -4 15 -10 15 -5 0
-7 -7 -4 -15z"/>
<path d="M4922 3400 c0 -14 2 -19 5 -12 2 6 2 18 0 25 -3 6 -5 1 -5 -13z"/>
<path d="M5503 2705 c0 -22 2 -30 4 -17 2 12 2 30 0 40 -3 9 -5 -1 -4 -23z"/>
<path d="M5613 1735 c-12 -38 -25 -82 -29 -98 -3 -15 -10 -29 -14 -32 -5 -3
-12 -30 -15 -60 -4 -30 -11 -55 -16 -55 -5 0 -9 -6 -9 -13 0 -24 -51 -139 -85
-192 -18 -28 -36 -61 -39 -73 -11 -32 -109 -174 -192 -277 -148 -184 -378
-406 -541 -521 -212 -151 -427 -274 -633 -362 -80 -34 -112 -51 -90 -49 50 6
253 96 355 157 28 17 65 37 84 46 18 8 38 19 45 24 6 6 43 31 81 56 142 95
222 153 256 185 19 19 82 75 139 124 57 50 108 95 114 101 80 84 126 135 148
164 14 19 34 44 44 55 11 11 42 49 69 84 28 35 58 71 68 79 9 9 17 20 17 24 0
9 67 123 83 140 6 8 22 34 35 58 13 25 51 95 85 155 60 109 61 111 65 200 2
50 2 104 0 120 -2 25 -6 19 -25 -40z"/>
<path d="M5600 1063 c0 -15 25 -63 33 -63 4 0 7 9 7 21 0 11 -4 17 -10 14 -5
-3 -10 1 -10 9 0 8 -4 18 -10 21 -5 3 -10 2 -10 -2z"/>
</g>
</svg>
