<?xml version="1.0" standalone="no"?>
<!DOCTYPE svg PUBLIC "-//W3C//DTD SVG 20010904//EN"
 "http://www.w3.org/TR/2001/REC-SVG-20010904/DTD/svg10.dtd">
<svg version="1.0" xmlns="http://www.w3.org/2000/svg"
 width="934.000000pt" height="964.000000pt" viewBox="0 0 934.000000 964.000000"
 preserveAspectRatio="xMidYMid meet">

<g transform="translate(0.000000,964.000000) scale(0.100000,-0.100000)"
fill="#000000" stroke="none">
<path d="M4760 8783 c-41 -7 -106 -15 -145 -17 -38 -2 -91 -10 -118 -16 -46
-12 -120 -10 -162 4 -14 5 -13 3 4 -7 l24 -14 -29 -1 c-29 0 -73 -9 -149 -30
-22 -6 -71 -32 -109 -57 -38 -24 -72 -43 -76 -40 -4 3 -10 -10 -14 -27 -4 -18
-20 -45 -37 -60 -23 -21 -29 -33 -24 -49 5 -15 4 -19 -5 -14 -11 7 -50 -26
-50 -43 0 -11 -43 -52 -55 -52 -4 0 4 11 19 25 14 13 26 27 26 30 0 11 -28 4
-40 -10 -7 -8 -16 -12 -21 -9 -5 3 -9 -2 -9 -10 0 -19 -13 -20 -43 -4 -12 6
-35 13 -52 15 -65 8 -70 10 -67 29 3 19 3 19 -11 0 -17 -24 -37 -14 -30 15 6
21 5 21 -15 3 -12 -9 -19 -21 -16 -26 3 -4 -2 -8 -10 -8 -9 0 -16 7 -16 16 0
8 -5 12 -11 9 -11 -7 -26 -10 -101 -21 -27 -4 -48 -11 -48 -17 0 -6 -15 -7
-37 -4 -28 5 -34 4 -23 -4 12 -9 11 -10 -7 -6 -12 3 -21 0 -20 -5 1 -5 -6 -15
-15 -21 -14 -9 -21 -8 -34 8 -13 17 -15 17 -10 2 4 -13 -4 -21 -32 -33 -20 -9
-46 -21 -57 -27 -11 -6 -32 -17 -47 -24 -30 -16 -86 -75 -114 -121 -10 -18
-25 -32 -32 -32 -12 0 -12 -3 -1 -16 11 -14 9 -19 -11 -36 -14 -11 -18 -18 -9
-15 9 3 22 0 29 -6 10 -9 12 -8 7 5 -3 10 -2 20 4 23 5 4 7 10 5 13 -8 14 29
51 57 58 24 5 26 4 20 -12 -3 -11 -12 -26 -20 -34 -7 -8 -22 -27 -33 -41 -11
-15 -52 -43 -90 -62 -39 -19 -65 -37 -58 -39 7 -3 -2 -5 -19 -5 -18 0 -42 -8
-53 -18 -11 -10 -20 -13 -20 -7 0 7 5 12 10 12 6 0 10 5 10 11 0 6 11 20 25
31 14 11 22 25 18 31 -4 6 -1 8 8 5 10 -4 15 1 16 13 1 12 -3 16 -13 12 -8 -3
-14 -8 -14 -13 0 -4 -8 -16 -17 -28 -46 -53 -53 -63 -53 -70 -1 -14 -58 -70
-76 -74 -9 -1 -19 -8 -21 -14 -6 -18 30 -12 69 13 21 12 42 23 48 23 5 0 10 5
10 10 0 6 9 10 21 10 11 0 27 7 35 15 9 8 25 15 36 15 18 0 19 -2 7 -17 -37
-47 -79 -87 -85 -80 -4 3 4 15 17 26 25 21 21 27 -9 13 -9 -5 -38 -19 -63 -31
-57 -28 -118 -86 -125 -120 -2 -14 -12 -39 -21 -56 -52 -96 -71 -146 -76 -192
-4 -33 -2 -55 5 -59 6 -4 8 -3 5 4 -4 5 -3 21 2 34 8 20 10 16 10 -22 2 -70
12 -124 22 -108 6 9 9 8 9 -7 0 -11 -4 -27 -10 -35 -5 -9 -5 -17 1 -21 6 -3 4
-17 -6 -35 -8 -16 -26 -67 -41 -114 -14 -47 -33 -107 -42 -135 -20 -62 -27
-251 -10 -282 6 -13 17 -23 25 -23 24 0 14 -56 -17 -95 -27 -34 -30 -45 -28
-94 2 -31 -1 -86 -5 -123 -8 -67 -8 -67 17 -74 32 -8 32 -11 4 -35 -11 -11
-17 -19 -11 -19 17 0 1 -60 -21 -76 -13 -11 -15 -14 -5 -11 13 4 18 -2 21 -29
2 -19 -1 -39 -7 -45 -7 -8 -4 -9 12 -5 29 9 38 -10 18 -40 -20 -32 -25 -51
-32 -141 l-5 -72 38 -37 c22 -20 48 -40 58 -44 18 -6 20 -19 21 -201 2 -139 7
-211 18 -254 27 -104 39 -211 32 -293 -12 -133 34 -292 101 -353 49 -45 152
-110 190 -121 32 -8 35 -12 31 -36 -5 -24 -4 -25 8 -9 11 15 13 13 18 -20 4
-21 2 -55 -2 -75 -7 -29 -6 -35 5 -31 8 3 14 1 14 -5 0 -5 -8 -13 -17 -16 -14
-6 -15 -9 -4 -15 9 -6 12 -20 9 -39 -2 -17 -1 -29 3 -26 11 7 16 -37 7 -69 -8
-31 -1 -60 13 -51 9 5 13 -20 11 -66 -3 -73 0 -110 9 -104 9 5 20 -104 14
-148 -3 -24 0 -42 9 -51 11 -11 12 -17 3 -26 -8 -8 -8 -11 1 -11 7 0 12 -13
12 -30 0 -16 5 -30 10 -30 6 0 8 -11 4 -25 -4 -15 -2 -25 5 -25 6 0 11 -12 11
-27 0 -22 2 -25 10 -13 7 10 8 -1 6 -37 -2 -28 -7 -57 -11 -64 -5 -8 -4 -10 4
-5 7 5 13 -3 17 -23 4 -20 11 -28 20 -24 10 4 12 0 8 -11 -4 -12 -2 -15 9 -11
11 5 14 0 11 -22 -4 -24 -3 -25 5 -8 5 11 10 16 11 10 5 -34 10 -45 29 -64 12
-12 21 -30 21 -40 0 -11 5 -23 11 -27 6 -3 9 -15 6 -25 -4 -14 1 -21 16 -24
14 -4 22 -14 23 -28 1 -12 9 -56 19 -97 20 -88 23 -220 4 -220 -3 0 -9 -8 -12
-17 -2 -10 -8 -27 -13 -37 -5 -14 -4 -17 6 -11 8 5 11 3 8 -6 -3 -8 -11 -13
-17 -12 -6 2 -11 -5 -11 -15 0 -11 -10 -23 -22 -29 -40 -18 -128 -94 -292
-253 -172 -165 -514 -439 -550 -440 -6 0 -26 -10 -45 -23 -20 -13 -54 -35 -76
-49 -30 -20 -76 -33 -185 -52 -171 -31 -532 -133 -786 -222 -235 -82 -330
-108 -489 -134 -135 -23 -506 -127 -635 -178 -41 -17 -92 -34 -113 -37 l-37
-7 0 -664 0 -664 1540 0 1540 0 0 53 c-1 28 -5 140 -10 247 -5 107 -14 308
-20 445 -6 138 -17 309 -26 380 -30 257 -30 262 -10 242 15 -14 27 -17 65 -11
25 4 55 13 66 22 19 14 19 14 0 8 -38 -13 -102 -18 -109 -8 -10 16 -20 218
-10 209 5 -5 9 -14 9 -20 2 -28 27 -97 35 -97 6 0 10 5 10 10 0 6 4 10 10 10
5 0 7 -6 4 -13 -3 -8 2 -19 10 -26 12 -10 14 -9 9 10 -5 18 -3 20 17 14 20 -6
22 -5 18 19 -4 21 0 28 22 37 26 12 26 13 8 31 -16 16 -19 32 -17 109 2 49 5
89 8 89 4 0 7 27 7 60 0 32 7 66 14 75 8 9 10 28 7 50 -3 19 -1 37 4 41 5 3 6
10 3 16 -4 6 -1 14 7 18 7 5 14 17 15 27 2 9 8 19 15 22 22 7 50 42 43 53 -5
7 2 9 22 5 19 -3 32 0 40 11 7 10 16 14 20 10 4 -4 1 -16 -7 -25 -9 -12 -6
-11 11 3 34 29 76 38 84 18 3 -8 11 -12 17 -9 17 11 460 12 492 2 16 -6 79
-39 140 -75 112 -65 185 -91 156 -55 -12 15 -12 16 6 9 38 -15 85 -19 85 -8 0
7 12 10 28 8 15 -2 21 -1 15 1 -7 2 -13 11 -13 18 0 16 20 11 59 -14 35 -22
51 -22 79 0 14 10 20 19 13 19 -19 0 -12 22 9 27 26 7 26 23 1 23 -11 0 -23 5
-26 10 -4 6 7 10 24 10 17 0 31 5 31 10 0 6 -6 10 -14 10 -8 0 -18 5 -22 12
-5 7 -2 9 9 5 9 -3 18 0 21 9 3 8 17 14 31 14 14 0 25 5 25 11 0 6 13 9 30 7
17 -1 34 2 38 7 10 15 30 17 53 5 13 -8 24 -8 37 0 15 9 14 10 -5 5 -18 -5
-22 -3 -17 9 7 19 40 30 77 27 17 -2 29 3 33 13 3 9 43 27 92 42 48 15 90 31
93 36 7 11 39 30 88 53 28 14 35 14 42 3 7 -10 10 -8 15 9 7 26 34 39 46 21 5
-9 8 -6 8 9 0 12 4 25 10 28 6 3 7 -1 4 -9 -3 -9 -1 -16 5 -16 6 0 10 3 10 8
-4 22 3 38 20 49 16 10 18 8 19 -18 0 -15 6 -36 11 -46 9 -15 10 -13 5 9 -7
34 3 68 22 68 8 0 14 6 14 13 0 9 2 9 9 -1 6 -10 10 -10 20 2 7 8 20 12 28 9
11 -4 14 -2 9 5 -12 21 12 51 35 45 15 -4 20 -3 15 5 -4 7 -2 12 3 12 6 0 11
-5 11 -12 0 -6 8 -2 18 9 24 28 45 33 60 14 8 -9 11 -11 8 -4 -4 6 -1 15 5 18
5 4 8 13 5 20 -3 8 2 19 10 25 11 10 14 9 14 -4 0 -10 4 -15 9 -12 5 3 7 16 4
28 -4 13 0 25 11 34 10 7 17 15 17 18 -3 24 1 27 18 12 17 -16 19 -14 35 36
11 38 15 44 13 21 -2 -18 0 -33 4 -33 12 0 29 35 29 59 0 23 25 29 33 9 4 -10
6 -10 6 -1 1 6 -3 15 -9 18 -5 3 -10 11 -10 17 0 7 6 6 15 -2 12 -10 15 -10
15 0 0 17 31 80 39 80 4 0 6 -17 4 -38 l-2 -37 10 37 c6 20 16 35 22 34 7 -1
9 -1 6 1 -10 6 2 46 19 65 8 10 19 15 23 12 5 -3 9 5 9 17 0 12 27 70 60 130
33 59 65 120 70 135 9 23 13 25 20 14 7 -11 10 -8 10 13 0 15 5 27 10 27 6 0
10 9 10 19 0 11 3 27 6 36 5 13 8 14 15 3 7 -10 9 -9 9 5 0 21 31 120 39 127
3 3 6 12 6 20 1 42 18 140 25 140 4 0 11 7 14 16 4 10 2 13 -7 8 -8 -6 -8 -3
1 9 8 9 11 20 8 25 -3 6 1 15 9 22 9 8 15 30 15 56 0 24 5 44 10 44 6 0 10 19
10 43 -2 51 10 137 19 137 3 0 7 32 8 71 1 39 6 76 12 82 6 6 11 20 11 32 0
11 11 42 25 69 21 41 23 52 12 65 -30 36 -38 66 -28 94 6 15 10 31 10 35 -3
18 2 33 9 29 4 -3 7 52 7 122 0 120 2 131 27 177 15 27 31 76 37 109 5 33 17
82 26 110 10 27 18 58 20 70 7 54 18 95 26 95 12 0 5 40 -7 48 -18 12 -23 40
-10 51 7 6 15 9 18 6 2 -3 3 15 2 40 -2 25 1 45 7 45 6 0 5 9 -2 23 -6 12 -8
19 -4 15 5 -4 14 -3 22 3 7 6 13 9 13 5 0 -3 19 15 41 39 23 25 45 42 50 39 5
-3 9 0 9 5 0 6 9 11 21 11 11 0 17 -4 14 -10 -3 -5 6 -15 20 -22 18 -8 22 -14
13 -20 -10 -6 -10 -8 1 -8 7 0 11 -6 7 -15 -3 -8 4 -36 15 -62 17 -40 20 -59
14 -113 -4 -36 -11 -103 -15 -150 -5 -47 -12 -106 -16 -132 -4 -30 -3 -48 3
-48 6 0 13 19 17 42 4 23 11 47 15 53 5 5 11 28 14 50 3 22 13 83 22 135 10
52 18 137 19 188 1 69 6 96 16 102 14 9 7 14 -15 11 -5 -1 -2 5 7 12 11 9 15
21 11 35 -5 19 -1 22 28 22 47 0 68 14 43 28 -18 10 -18 11 4 34 12 14 22 34
22 46 0 11 3 23 8 26 4 2 7 25 6 50 -1 25 2 46 7 46 4 0 1 16 -7 35 -11 28
-12 39 -2 55 7 11 16 20 20 20 5 0 8 14 8 30 0 20 5 30 15 30 8 0 15 5 15 10
0 6 12 22 26 35 37 34 42 107 15 222 -25 107 -25 114 -7 107 14 -6 30 22 20
37 -3 5 -12 9 -20 9 -8 0 -14 5 -14 11 0 5 4 8 9 4 6 -3 5 9 -1 27 -5 18 -13
46 -16 63 -2 16 -11 35 -18 43 -8 7 -14 20 -14 28 0 8 -7 28 -15 44 -8 16 -18
55 -21 87 -3 32 -9 60 -14 63 -19 12 -63 87 -71 120 -4 19 -4 52 1 74 7 31 4
52 -16 106 -13 37 -24 79 -24 92 0 14 -6 31 -14 37 -8 7 -17 24 -21 39 -4 15
-27 57 -51 94 -25 37 -65 107 -90 155 -25 48 -58 109 -74 136 -16 26 -26 47
-22 47 4 0 2 4 -3 8 -6 4 -26 40 -44 81 -19 41 -51 91 -72 112 -22 22 -39 47
-39 58 0 10 -11 26 -24 34 -13 9 -49 50 -81 92 -71 94 -154 162 -267 217 -49
24 -88 47 -88 52 0 4 7 6 15 2 23 -8 18 8 -12 42 -14 17 -27 42 -29 56 -6 56
-84 123 -187 161 -39 15 -96 38 -126 51 -29 13 -64 24 -78 24 -13 0 -22 4 -19
8 3 4 -9 13 -26 20 -17 6 -28 9 -25 5 11 -10 -20 -32 -39 -28 -10 2 -31 4 -46
4 -16 1 -28 4 -28 9 0 4 22 5 50 4 27 -2 50 0 50 6 0 9 -139 32 -197 32 -18 0
-33 4 -33 9 0 9 -97 17 -270 24 -47 1 -119 -3 -160 -10z m-507 -90 c-7 -2 -19
-2 -25 0 -7 3 -2 5 12 5 14 0 19 -2 13 -5z m-73 -12 c0 -5 -13 -14 -30 -20
-37 -13 -39 -6 -2 13 33 18 32 18 32 7z m45 -36 c-34 -28 -45 -31 -45 -12 0
15 35 35 60 36 9 0 3 -9 -15 -24z m-120 -41 c-58 -51 -66 -57 -72 -51 -9 9 58
76 81 80 11 2 23 5 26 5 3 1 -13 -14 -35 -34z m57 10 c-5 -10 -17 -19 -27 -20
-14 -2 -13 2 6 22 25 26 36 25 21 -2z m-22 -38 c0 -2 -7 -7 -16 -10 -8 -3 -12
-2 -9 4 6 10 25 14 25 6z m1604 -72 c5 -14 4 -15 -9 -4 -17 14 -19 20 -6 20 5
0 12 -7 15 -16z m91 -44 c3 -5 1 -10 -4 -10 -6 0 -11 5 -11 10 0 6 2 10 4 10
3 0 8 -4 11 -10z m-2315 -70 c0 -5 -4 -10 -10 -10 -5 0 -10 5 -10 10 0 6 5 10
10 10 6 0 10 -4 10 -10z m-13 -43 c6 0 9 -6 6 -14 -5 -11 -53 -20 -53 -9 0 2
-3 12 -7 21 -5 14 -2 16 18 10 13 -5 29 -8 36 -8z m-113 -12 c11 -8 17 -18 13
-21 -3 -4 -13 1 -22 10 -18 17 -39 12 -32 -8 6 -15 -80 -68 -89 -54 -4 7 -9 6
-14 -2 -4 -7 -18 -13 -31 -14 -17 -1 -23 -7 -21 -19 2 -11 -4 -17 -15 -17 -10
0 -14 4 -8 8 6 4 10 13 11 20 2 28 5 32 19 32 8 0 15 4 15 9 0 22 78 57 150
70 3 0 14 -6 24 -14z m56 -5 c0 -5 -2 -10 -4 -10 -3 0 -8 5 -11 10 -3 6 -1 10
4 10 6 0 11 -4 11 -10z m-305 -75 c-33 -30 -69 -55 -79 -55 -11 0 -30 -10 -43
-22 -13 -12 -25 -19 -29 -16 -11 12 104 109 157 131 57 25 56 19 -6 -38z m255
5 c0 -5 -12 -10 -27 -10 -22 0 -25 2 -13 10 20 13 40 13 40 0z m-245 -30 c-3
-5 -11 -10 -16 -10 -6 0 -7 5 -4 10 3 6 11 10 16 10 6 0 7 -4 4 -10z m105 -30
c0 -5 -10 -10 -22 -10 -19 0 -20 2 -8 10 19 13 30 13 30 0z m-116 -32 c-10
-13 -12 -18 -4 -12 22 16 50 25 50 16 0 -17 -55 -40 -76 -32 -36 14 -37 29 -2
39 50 14 53 13 32 -11z m-59 -38 c-3 -5 -13 -10 -21 -10 -8 0 -12 5 -9 10 3 6
13 10 21 10 8 0 12 -4 9 -10z m-10 -29 c-6 -5 -21 -12 -35 -16 -22 -7 -23 -6
-11 9 7 9 23 16 34 16 13 0 17 -4 12 -9z m35 -1 c0 -5 -4 -10 -10 -10 -5 0
-10 5 -10 10 0 6 5 10 10 10 6 0 10 -4 10 -10z m-363 -285 c-17 -17 -37 -20
-37 -6 0 13 44 40 48 30 2 -5 -3 -16 -11 -24z m-52 -35 c-5 -8 -11 -8 -17 -2
-6 6 -7 16 -3 22 5 8 11 8 17 2 6 -6 7 -16 3 -22z m-35 -13 c0 -8 -12 -24 -27
-38 -14 -13 -24 -19 -22 -14 29 63 49 84 49 52z m40 -121 c0 -2 -7 -7 -16 -10
-8 -3 -12 -2 -9 4 6 10 25 14 25 6z m-16 -47 c-3 -5 -9 -7 -14 -4 -4 3 -6 -3
-3 -14 3 -11 -6 -29 -21 -46 -14 -15 -26 -33 -26 -39 0 -6 -5 -4 -10 4 -5 8
-10 11 -11 5 -4 -59 -23 -104 -37 -91 -8 9 -9 76 -2 76 5 0 11 11 14 25 8 32
84 105 102 98 8 -3 11 -9 8 -14z m-148 -80 c-9 -20 -15 -27 -16 -16 0 20 19
61 26 54 2 -2 -2 -19 -10 -38z m107 -56 c-27 -71 -76 -148 -58 -93 4 11 2 20
-4 20 -6 0 -11 -6 -12 -12 0 -10 -2 -10 -5 -1 -3 6 4 21 15 32 12 12 21 18 21
14 0 -5 10 7 21 25 23 35 32 42 22 15z m2519 -28 c5 -6 8 -5 8 3 0 6 5 12 12
12 6 0 9 -3 5 -6 -14 -15 24 -35 53 -29 39 9 136 -12 180 -37 83 -49 98 -56
104 -51 3 4 6 1 6 -5 0 -12 59 -48 72 -44 4 1 16 -10 27 -25 12 -14 21 -23 21
-19 0 9 37 -11 80 -43 19 -15 52 -32 73 -40 20 -7 63 -28 95 -46 31 -19 86
-49 122 -67 36 -17 73 -38 83 -47 11 -9 17 -10 17 -3 0 7 9 12 20 12 12 0 20
-6 18 -12 -2 -7 0 -13 4 -13 4 0 15 -11 24 -24 14 -19 15 -28 6 -42 -16 -25
-15 -32 3 -26 8 4 17 1 21 -5 4 -7 3 -8 -5 -4 -15 9 -5 -39 14 -70 9 -14 10
-25 3 -38 -7 -12 -7 -26 1 -43 6 -13 11 -38 11 -54 0 -17 5 -40 11 -51 8 -16
8 -22 -2 -29 -10 -6 -9 -12 5 -28 19 -20 19 -21 1 -21 -18 0 -18 -1 1 -15 10
-8 15 -15 9 -14 -42 6 -44 -8 -9 -50 14 -17 21 -31 15 -31 -6 0 -11 5 -11 10
0 6 -5 10 -12 10 -6 0 1 -14 18 -32 19 -20 23 -29 12 -25 -21 7 -23 -3 -5 -22
10 -11 8 -12 -12 -6 -16 5 -21 4 -17 -4 4 -6 14 -11 22 -11 8 0 13 -3 12 -7 0
-5 2 -16 7 -27 5 -11 3 -21 -5 -26 -9 -6 -8 -10 6 -19 13 -7 15 -13 8 -18 -12
-9 -11 -104 2 -124 4 -7 3 -10 -4 -5 -7 4 -9 -4 -6 -26 45 -322 54 -423 40
-447 -3 -4 1 -17 9 -27 17 -23 20 -48 4 -38 -7 4 -7 -2 1 -17 28 -51 32 -475
6 -518 -5 -7 -5 -15 -2 -18 3 -3 0 -15 -6 -27 -7 -11 -11 -25 -9 -30 1 -6 -4
-28 -12 -50 -8 -23 -18 -54 -21 -69 -4 -15 -10 -25 -15 -23 -5 3 -7 -13 -6
-35 2 -30 -1 -39 -11 -35 -15 6 -29 -28 -19 -44 4 -6 1 -17 -5 -25 -6 -8 -9
-18 -6 -24 4 -5 -1 -17 -10 -25 -14 -15 -14 -16 1 -16 13 0 14 -2 3 -14 -7 -8
-17 -11 -23 -8 -5 2 -5 -1 1 -7 13 -14 7 -51 -8 -51 -6 0 -8 -9 -5 -20 3 -11
1 -18 -4 -14 -9 5 -13 -9 -9 -35 2 -13 0 -13 -16 0 -13 10 -16 10 -10 1 14
-24 14 -76 0 -99 -19 -31 -29 -29 -32 5 -1 26 -1 26 13 8 8 -11 15 -15 15 -9
0 5 -9 18 -19 27 -23 21 -37 6 -21 -24 7 -13 7 -20 1 -20 -6 0 -8 -7 -5 -15 4
-8 3 -15 0 -15 -4 0 -11 10 -15 23 -8 19 -9 18 -9 -11 1 -18 -2 -35 -5 -39 -4
-3 -7 3 -7 14 0 11 -7 27 -17 34 -15 13 -15 12 -5 -8 7 -12 12 -32 12 -45 0
-13 5 -29 11 -35 7 -7 7 -13 1 -17 -6 -3 -15 7 -20 22 -8 25 -14 28 -40 24
-16 -2 -33 1 -36 7 -12 18 -23 13 -28 -13 -3 -14 5 -39 19 -62 27 -46 32 -74
7 -50 -24 24 -23 27 -24 -74 -1 -32 -2 -33 -11 -12 -10 25 -30 26 -37 1 -3
-11 -2 -12 6 0 7 9 10 -2 10 -35 1 -43 0 -46 -13 -28 -7 11 -17 38 -20 60 -13
70 -24 72 -20 2 2 -38 0 -68 -4 -68 -4 0 -8 -14 -9 -31 0 -17 -4 -34 -7 -38
-4 -3 -6 15 -4 42 3 29 0 46 -6 44 -10 -4 -12 -10 -14 -55 0 -13 -5 -20 -11
-17 -5 3 -10 -1 -10 -10 0 -9 -4 -13 -10 -10 -6 4 -7 -1 -3 -10 3 -10 0 -21
-7 -25 -7 -4 -14 -18 -15 -31 -1 -13 -3 -30 -4 -37 0 -7 -6 -10 -11 -7 -6 3
-13 -1 -17 -10 -3 -10 0 -21 8 -26 8 -5 9 -9 3 -9 -12 0 -51 -79 -46 -93 1 -5
-6 -17 -18 -27 -25 -21 -26 -34 -2 -25 12 4 11 1 -5 -15 -13 -11 -23 -30 -23
-40 0 -11 -4 -20 -10 -20 -5 0 -10 -8 -10 -17 0 -30 -16 -47 -36 -39 -11 4
-21 7 -24 6 -6 -1 -18 37 -19 62 -1 12 5 15 22 10 12 -3 25 -10 29 -16 5 -7 8
-7 8 2 0 7 -13 18 -30 23 -28 10 -43 39 -20 39 5 0 9 3 8 7 -1 5 2 43 7 87 6
65 11 79 27 84 13 3 17 10 13 23 -4 11 -3 19 2 19 27 0 48 174 30 254 -19 87
-42 127 -94 168 -29 22 -53 44 -53 49 0 5 -7 9 -15 9 -8 0 -15 7 -15 15 0 8
-4 15 -10 15 -5 0 -7 -7 -3 -16 5 -14 3 -15 -16 -4 -21 11 -22 10 -10 -12 11
-21 11 -22 -4 -9 -19 15 -23 1 -5 -17 21 -21 2 -23 -22 -2 -18 16 -25 18 -32
8 -6 -10 -11 -9 -19 5 -5 9 -18 17 -27 17 -15 0 -15 -2 -2 -11 11 -8 9 -9 -10
-3 -14 3 -33 13 -42 22 -26 22 -22 3 5 -27 17 -19 12 -17 -23 9 -74 56 -77 57
-59 35 27 -33 30 -53 9 -48 -10 3 -16 11 -14 18 3 7 0 16 -7 21 -8 5 -10 3 -4
-6 5 -9 4 -11 -3 -6 -7 4 -12 16 -12 26 0 21 -95 90 -124 90 -10 0 -14 5 -11
10 4 6 -9 10 -30 10 -30 0 -36 3 -31 16 5 14 4 15 -8 5 -26 -22 -67 -19 -94 6
-31 28 -52 30 -52 3 0 -21 -30 -29 -30 -7 -1 6 -6 2 -13 -10 -8 -15 -17 -19
-26 -14 -8 5 -24 3 -39 -5 -29 -15 -42 -11 -42 13 0 16 64 81 118 121 31 22
99 30 137 16 19 -8 50 -64 35 -64 -5 0 -10 7 -10 16 0 14 -3 14 -15 4 -22 -18
-18 -30 8 -30 27 0 71 22 68 34 -2 5 3 13 11 17 10 7 10 9 1 9 -7 0 -13 9 -13
19 0 10 -7 21 -15 25 -8 3 -14 10 -13 17 4 17 -83 47 -112 38 -14 -4 -21 -7
-15 -8 13 -1 -66 -81 -91 -91 -11 -5 -42 -4 -69 2 -37 8 -49 7 -56 -3 -6 -11
-14 -8 -33 11 -15 13 -26 28 -26 34 0 22 -53 112 -83 140 -33 30 -34 34 -42
104 -4 27 -1 42 6 42 8 0 7 6 -2 17 -11 13 -11 17 -1 20 6 3 9 10 5 16 -4 6 0
8 10 4 13 -5 16 -1 13 22 -3 32 24 100 49 121 9 7 13 21 10 31 -5 14 -1 19 13
19 23 0 22 -4 25 155 1 61 -1 115 -5 121 -5 6 -10 51 -12 100 -2 49 -5 90 -6
92 -1 1 -4 7 -5 12 -1 6 -4 11 -5 13 -3 2 -8 26 -16 80 -4 24 -11 37 -19 34
-6 -3 -12 0 -13 6 -6 72 -10 85 -35 110 -15 15 -33 27 -40 27 -9 0 -9 2 1 8 9
6 -2 22 -38 55 -28 25 -49 52 -48 59 2 8 -9 11 -33 9 -38 -2 -105 29 -91 44 4
4 -9 5 -28 1 -42 -9 -47 -10 -84 -8 -21 2 -27 6 -22 17 5 13 2 14 -15 4 -16
-8 -25 -7 -40 7 -14 13 -27 15 -56 9 -93 -18 -164 -20 -256 -5 -88 14 -136 30
-91 30 14 0 16 3 6 9 -7 4 -24 6 -38 3 -14 -2 -24 0 -24 7 0 6 -9 11 -20 11
-13 0 -20 7 -20 20 0 24 25 27 34 3 5 -11 10 -13 17 -6 7 7 7 17 -2 30 -8 13
-9 30 -4 49 5 16 9 33 9 38 1 5 16 16 33 25 39 19 41 28 11 41 -21 8 -19 9 12
10 l35 1 -25 14 c-14 8 -20 14 -14 15 16 0 36 48 23 55 -5 4 -7 10 -4 15 3 4
-2 11 -11 14 -20 8 -8 27 14 24 10 -2 17 4 17 12 0 9 -7 14 -17 12 -10 -2 -18
1 -18 6 0 6 -7 13 -16 16 -12 4 -14 1 -9 -14 4 -12 2 -20 -5 -20 -12 0 -10 35
5 75 5 16 5 17 -4 5 -9 -13 -11 -13 -11 2 0 9 -5 20 -12 24 -7 5 -9 0 -6 -14
3 -12 2 -22 -3 -24 -5 -2 -10 -14 -12 -27 -4 -26 -27 -42 -27 -19 -1 7 -8 -3
-17 -22 -12 -27 -17 -31 -20 -17 -3 10 1 24 7 32 10 12 9 15 -4 15 -13 0 -13
3 4 20 11 11 20 25 20 30 0 14 -27 12 -33 -2 -8 -22 -20 20 -13 46 4 18 11 23
26 19 14 -4 20 0 20 11 0 9 -5 16 -11 16 -6 0 -9 8 -7 18 2 9 10 17 18 17 8 0
29 22 47 50 18 27 33 43 33 35 1 -12 3 -11 11 3 5 9 20 18 32 18 16 1 17 3 5
6 -9 2 -16 13 -15 24 1 13 6 17 18 14 12 -4 20 1 25 17 7 22 7 22 15 3 7 -19
8 -19 8 3 1 17 7 22 26 22 15 0 25 6 25 14 0 8 3 16 8 19 4 2 1 2 -5 1 -16 -4
-17 18 -2 33 8 8 5 17 -12 34 -23 23 -23 24 -4 27 11 2 24 7 28 12 5 4 -4 5
-19 2 -19 -3 -25 -1 -20 7 4 6 14 11 21 11 9 0 12 6 9 15 -4 8 -1 15 5 15 6 0
11 6 11 14 0 8 7 16 15 20 22 8 18 34 -5 41 -11 3 -20 11 -20 16 0 13 14 11
29 -3 10 -11 14 -9 22 5 6 9 14 15 20 12 5 -4 9 -2 9 3 0 5 8 13 18 16 33 12
72 37 72 46 0 6 19 7 44 4 57 -8 117 2 110 19 -5 15 42 44 53 33 4 -4 -3 -9
-15 -13 -12 -3 -22 -9 -22 -14 0 -15 37 -10 54 6 21 22 166 20 166 -2 0 -13
12 -15 78 -8 42 4 100 8 127 10 106 5 268 25 279 33 6 5 33 8 60 7 33 -2 44 0
35 7 -10 7 -6 8 14 5 15 -2 27 0 27 4 0 5 10 9 22 9 21 0 21 0 2 -22 -13 -16
-14 -19 -2 -10 21 17 72 26 63 12 -8 -13 26 0 43 17 7 6 19 10 26 7 8 -3 17
-1 20 4 7 12 39 10 48 -3z m-2520 -27 c-7 -7 -12 -8 -12 -2 0 14 12 26 19 19
2 -3 -1 -11 -7 -17z m1115 -214 c-3 -3 -12 -4 -19 -1 -8 3 -5 6 6 6 11 1 17
-2 13 -5z m-1221 -53 c-15 -15 -16 -13 -4 19 9 26 13 30 16 16 2 -10 -3 -26
-12 -35z m1184 -111 c0 -11 -4 -20 -9 -20 -5 0 -7 9 -4 20 3 11 7 20 9 20 2 0
4 -9 4 -20z m-60 -70 c0 -5 -4 -10 -10 -10 -5 0 -10 5 -10 10 0 6 5 10 10 10
6 0 10 -4 10 -10z m-120 -133 c0 -5 -4 -5 -10 -2 -5 3 -10 14 -10 23 0 15 2
15 10 2 5 -8 10 -19 10 -23z m-40 -327 c0 -5 -4 -10 -10 -10 -5 0 -10 5 -10
10 0 6 5 10 10 10 6 0 10 -4 10 -10z m-1020 -24 c0 -3 -4 -8 -10 -11 -5 -3
-10 -1 -10 4 0 6 5 11 10 11 6 0 10 -2 10 -4z m1558 -635 c7 -4 15 -23 17 -40
4 -30 2 -33 -18 -27 -40 12 -162 32 -184 30 -12 -1 -20 3 -17 8 3 5 -7 6 -23
3 -23 -5 -25 -4 -10 5 9 6 15 15 13 19 -7 10 206 12 222 2z m60 -69 c2 -15 -1
-20 -10 -17 -16 6 -19 47 -3 42 5 -2 11 -13 13 -25z m47 8 c4 -6 11 -8 16 -5
5 4 6 -2 2 -11 -5 -14 -3 -16 11 -11 10 4 24 1 33 -9 13 -13 17 -13 24 -2 9
14 13 5 10 -24 -2 -11 5 -18 16 -19 11 0 13 -3 5 -6 -7 -3 -19 0 -27 7 -30 25
-84 47 -93 38 -13 -13 -34 16 -26 36 7 18 20 21 29 6z m-175 -66 c0 -9 -7 -14
-17 -12 -25 5 -28 28 -4 28 12 0 21 -6 21 -16z m130 -22 c8 -2 17 -8 18 -13 2
-5 9 -9 15 -9 7 0 25 -11 42 -24 29 -23 29 -25 12 -44 -15 -17 -27 -19 -67
-15 -32 3 -50 1 -55 -8 -6 -9 -3 -11 8 -6 9 3 19 2 21 -2 3 -5 55 -8 116 -7
82 1 110 -1 110 -11 0 -31 -109 -214 -110 -185 -1 4 -8 -8 -16 -27 -8 -19 -12
-42 -9 -50 4 -9 8 -41 10 -72 4 -50 1 -59 -20 -79 -14 -13 -25 -28 -25 -33 0
-14 41 -62 53 -62 7 0 13 -8 15 -18 3 -15 0 -18 -17 -12 -13 4 -21 2 -21 -5 0
-7 -7 -10 -17 -6 -17 6 -17 5 -1 -7 16 -13 15 -18 -15 -79 -18 -35 -48 -87
-68 -114 -51 -71 -83 -203 -49 -205 10 0 8 -3 -5 -9 -18 -7 -16 -8 10 -12 l30
-5 -32 -2 c-20 0 -33 -6 -33 -14 0 -19 -36 -50 -52 -44 -7 2 -21 0 -30 -4 -13
-7 -18 -4 -24 13 -5 18 -8 19 -15 5 -5 -9 -16 -14 -23 -11 -7 3 -30 -4 -50
-16 -21 -11 -41 -18 -47 -15 -5 4 -9 3 -9 -2 0 -4 -12 -17 -27 -27 -16 -12
-23 -14 -18 -5 11 18 48 45 57 42 4 -2 5 4 2 12 -4 8 -1 15 5 15 6 0 11 -5 11
-12 0 -8 6 -6 16 4 10 9 14 24 10 33 -5 14 -12 13 -56 -12 -27 -15 -50 -32
-50 -36 0 -5 -20 -28 -45 -53 -25 -25 -43 -49 -40 -54 3 -5 -4 -24 -15 -42
-11 -18 -20 -41 -20 -50 0 -24 -39 -48 -79 -48 -33 0 -36 -14 -3 -16 57 -3 58
-4 40 -15 -22 -12 -23 -29 -3 -29 25 0 17 -43 -16 -83 -31 -38 -22 -51 14 -19
19 17 19 16 12 -18 -8 -37 -20 -50 -47 -50 -11 0 -15 5 -12 14 3 8 -5 36 -17
63 -26 55 -30 110 -8 124 7 5 9 9 3 9 -5 0 -16 -6 -23 -12 -12 -11 -13 -9 -7
7 5 11 9 26 10 33 1 7 8 18 14 24 7 7 12 20 12 29 0 10 6 20 13 23 9 5 9 7 -1
12 -6 3 -10 10 -6 15 3 5 0 9 -5 9 -22 0 -10 20 15 26 18 5 22 9 13 15 -7 4
-16 6 -20 3 -11 -6 -18 21 -9 36 10 16 1 51 -14 48 -12 -3 -16 4 -16 28 0 8 4
13 9 9 5 -3 13 0 17 6 7 12 -15 31 -31 25 -5 -1 -15 13 -21 33 -6 21 -16 35
-24 33 -11 -3 -11 0 0 13 7 8 10 18 7 22 -4 3 -3 11 2 17 11 13 3 66 -10 66
-5 0 -9 -8 -9 -17 -1 -17 -1 -17 -11 0 -6 10 -8 25 -5 33 3 8 1 14 -4 14 -10
0 -25 58 -21 80 2 8 7 17 12 18 15 6 10 22 -7 22 -8 0 -13 4 -10 8 3 5 -3 24
-13 43 -12 22 -17 49 -14 78 2 34 0 42 -11 38 -11 -4 -13 1 -11 24 3 17 0 27
-5 24 -6 -4 -10 -1 -10 4 0 6 -6 11 -14 11 -8 0 -14 8 -13 19 0 11 6 17 14 14
9 -4 13 6 13 32 0 20 4 34 9 31 12 -8 0 48 -13 56 -8 5 -8 13 1 27 12 19 7 61
-7 61 -5 0 -10 -6 -13 -12 -2 -7 -7 -10 -11 -7 -11 11 43 59 58 53 19 -7 32
16 15 28 -11 8 -10 9 4 4 11 -4 28 3 45 19 15 14 38 24 52 24 23 -2 24 -2 3
-6 -33 -6 -28 -23 5 -18 15 2 32 4 37 6 6 1 22 -1 38 -5 19 -6 27 -15 27 -31
0 -20 7 -24 53 -31 50 -7 84 -11 100 -13 4 -1 7 -7 7 -14 0 -15 19 -15 198 -2
61 4 112 11 112 15 0 5 14 11 30 15 17 4 30 11 30 15 0 5 -8 7 -17 4 -16 -5
-16 -4 1 10 18 14 15 36 -5 36 -6 0 -8 -4 -5 -9 3 -5 -1 -14 -8 -20 -12 -10
-13 -8 -9 10 4 15 3 20 -5 15 -7 -4 -12 -14 -12 -23 0 -13 -3 -13 -15 -3 -9 8
-25 10 -42 5 -53 -14 -87 -15 -95 -3 -11 18 -10 40 2 33 6 -3 10 1 10 10 0 9
5 13 10 10 6 -3 10 -1 10 4 0 6 11 11 25 11 28 0 34 15 9 24 -8 3 -12 2 -9 -4
3 -6 1 -10 -4 -10 -6 0 -11 9 -11 21 0 11 5 17 10 14 6 -4 9 -1 8 6 -4 16 72
31 89 18 14 -12 45 30 63 86 16 51 21 59 29 49 3 -5 13 -10 21 -12z m205 -42
c-3 -5 -10 -10 -16 -10 -5 0 -9 5 -9 10 0 6 7 10 16 10 8 0 12 -4 9 -10z
m-549 -25 c9 -35 41 -55 89 -55 29 -1 36 -3 24 -10 -19 -11 -77 2 -144 31 -31
14 -44 24 -35 27 8 3 19 11 23 18 13 22 36 16 43 -11z m76 -97 c-7 -7 -12 -8
-12 -2 0 14 12 26 19 19 2 -3 -1 -11 -7 -17z m-62 -52 c0 -3 -4 -8 -10 -11 -5
-3 -10 -1 -10 4 0 6 5 11 10 11 6 0 10 -2 10 -4z m-495 -46 c3 -5 1 -10 -4
-10 -6 0 -11 5 -11 10 0 6 2 10 4 10 3 0 8 -4 11 -10z m575 -934 c0 -2 -7 -7
-16 -10 -8 -3 -12 -2 -9 4 6 10 25 14 25 6z m1201 -62 c5 -15 8 -29 5 -31 -2
-3 -7 5 -11 16 -3 12 -13 21 -21 21 -8 0 -12 5 -9 10 11 17 25 11 36 -16z
m-477 -3 c3 -5 -1 -11 -9 -14 -9 -4 -12 -1 -8 9 6 16 10 17 17 5z m36 -11 c0
-5 -4 -10 -10 -10 -5 0 -10 5 -10 10 0 6 5 10 10 10 6 0 10 -4 10 -10z m508
-6 c25 -18 29 -31 7 -31 -8 0 -13 2 -10 5 2 2 -6 13 -18 23 -27 22 -10 25 21
3z m-528 -90 c0 -20 -18 -26 -22 -7 -2 14 -7 11 -22 -11 -10 -16 -12 -25 -5
-21 9 6 10 3 5 -11 -5 -15 -4 -16 5 -7 6 6 18 9 25 6 8 -3 17 2 20 11 3 9 11
16 16 16 6 0 8 -7 4 -15 -3 -9 0 -15 10 -15 8 0 17 -7 20 -15 4 -8 15 -15 25
-15 10 0 19 -5 19 -11 0 -5 4 -8 9 -4 5 3 12 1 15 -3 6 -10 36 -9 53 1 6 4 15
2 19 -4 5 -9 11 -7 20 6 8 11 19 15 30 11 9 -3 23 -1 30 5 11 9 14 8 14 -4 0
-20 79 -40 97 -25 9 7 13 7 13 0 0 -6 6 -9 14 -6 7 3 20 -1 27 -9 14 -14 49
-19 49 -7 0 3 9 6 20 6 13 0 20 -7 20 -19 0 -13 6 -18 23 -16 12 2 32 -3 45
-10 13 -7 30 -10 38 -7 7 3 17 -2 22 -11 5 -8 22 -16 38 -17 17 -1 43 -15 62
-33 30 -30 31 -32 12 -38 -11 -3 -29 -4 -39 0 -38 12 -67 16 -100 16 -18 0
-42 4 -52 10 -10 5 -40 12 -66 14 -27 2 -49 4 -50 5 -2 0 -5 0 -9 -1 -3 0 -16
6 -29 15 -16 10 -26 12 -30 5 -5 -7 -11 -7 -19 0 -9 7 -16 7 -24 -1 -16 -16
-42 -19 -43 -5 -1 7 -5 1 -9 -13 l-8 -25 -1 25 c-1 16 -4 21 -9 12 -5 -7 -23
-11 -43 -9 -26 2 -37 -2 -47 -17 -8 -14 -12 -16 -11 -6 4 41 -14 57 -24 21 -3
-14 -11 -18 -33 -14 -16 3 -34 12 -41 20 -6 8 -16 12 -22 9 -5 -4 -13 -1 -17
5 -5 9 -11 7 -19 -5 -8 -10 -19 -14 -30 -10 -13 5 -14 9 -3 15 10 7 9 9 -4 9
-10 0 -18 4 -18 9 0 5 -9 7 -20 4 -11 -3 -27 0 -35 7 -9 7 -29 13 -45 12 -17
0 -30 4 -30 9 0 6 -9 7 -21 4 -15 -5 -22 -2 -26 14 -7 25 -23 28 -24 4 0 -11
-3 -13 -6 -5 -2 6 -11 12 -18 12 -7 0 -15 4 -17 10 -1 5 -12 11 -23 13 -11 1
-26 6 -33 11 -7 4 -19 2 -28 -5 -17 -14 -19 -12 -27 22 -6 21 -3 25 14 24 11
-1 24 -8 29 -15 7 -11 16 -10 52 7 55 27 81 35 74 24 -9 -13 73 -2 117 16 20
9 37 20 37 25 0 4 8 16 18 27 15 16 18 17 30 3 6 -9 12 -21 12 -28z m1410 -55
c8 -14 6 -17 -9 -16 -11 1 -21 10 -24 23 -5 27 18 22 33 -7z m40 6 c0 -9 -6
-12 -15 -9 -8 4 -15 10 -15 15 0 5 7 9 15 9 8 0 15 -7 15 -15z m20 -53 c0 -15
-2 -15 -10 -2 -13 20 -13 33 0 25 6 -3 10 -14 10 -23z m-43 -14 c-3 -7 -5 -2
-5 12 0 14 2 19 5 13 2 -7 2 -19 0 -25z m-460 -10 c-3 -8 -6 -5 -6 6 -1 11 2
17 5 13 3 -3 4 -12 1 -19z m-2594 -43 c-3 -9 -8 -14 -10 -11 -3 3 -2 9 2 15 9
16 15 13 8 -4z m801 -90 c13 0 27 -14 40 -40 12 -22 33 -51 49 -65 30 -27 57
-74 62 -105 1 -11 6 -29 11 -40 7 -17 6 -18 -8 -7 -13 10 -15 9 -10 -13 2 -14
8 -25 14 -25 5 0 4 -8 -2 -19 -13 -25 -13 -24 10 -51 14 -16 17 -27 10 -35 -5
-6 -7 -15 -3 -18 3 -4 1 -7 -5 -7 -5 0 -13 6 -15 13 -4 7 -6 6 -6 -5 -1 -9 6
-23 14 -32 16 -15 56 -91 74 -139 6 -15 17 -27 26 -27 8 0 15 -7 15 -15 0 -8
9 -15 20 -15 12 0 17 -5 14 -13 -6 -17 47 -21 58 -5 6 10 8 10 8 0 0 -8 7 -11
18 -8 23 7 63 -24 65 -52 1 -12 5 -22 9 -22 4 0 8 -9 8 -21 0 -11 5 -17 10
-14 6 3 10 1 10 -4 0 -6 7 -11 15 -11 15 0 16 -3 19 -37 1 -20 -66 -42 -72
-24 -6 18 -19 12 -25 -10 -4 -15 -12 -20 -24 -17 -23 6 -49 -17 -30 -26 7 -4
2 -4 -10 -2 -16 3 -23 -1 -24 -12 0 -10 -3 -12 -6 -5 -3 9 -9 9 -22 1 -37 -23
-101 13 -101 57 0 13 -5 25 -10 27 -15 5 -81 158 -82 188 0 32 -20 70 -49 94
-12 10 -18 21 -13 25 12 8 34 48 34 62 0 8 -4 8 -15 -1 -8 -7 -15 -18 -15 -26
0 -7 -6 -16 -12 -20 -7 -4 -10 -4 -6 1 4 4 0 14 -8 22 -8 9 -13 22 -10 29 3 9
-2 14 -14 14 -11 0 -20 5 -20 10 0 21 -2 26 -19 45 -18 20 -38 90 -23 81 4 -2
9 4 9 15 2 18 0 19 -15 8 -14 -11 -15 -11 -4 1 6 8 12 25 12 38 0 16 4 21 13
16 9 -6 9 -5 0 8 -7 8 -11 17 -8 20 3 2 6 34 8 71 3 60 2 67 -15 67 -17 0 -17
1 2 20 20 20 27 50 11 50 -5 0 -12 -12 -15 -26 -6 -22 -9 -24 -22 -13 -13 11
-12 15 8 34 13 12 27 20 33 17 5 -4 19 -6 29 -7z m-90 -58 c2 -14 -1 -31 -5
-39 -6 -8 -9 3 -9 31 0 46 10 51 14 8z m-130 -2 c-7 -18 7 -20 26 -2 8 6 6 2
-4 -10 -17 -20 -17 -23 -3 -23 9 0 21 8 26 18 6 9 11 12 11 5 0 -6 6 -18 13
-25 21 -22 41 -110 41 -177 0 -49 2 -58 9 -40 l9 24 11 -25 c5 -14 9 -28 9
-32 -1 -5 3 -8 8 -8 6 0 10 -9 10 -20 0 -11 -2 -20 -4 -20 -2 0 -11 -3 -20 -6
-11 -4 -16 0 -16 12 -1 18 -2 18 -17 -1 -15 -19 -15 -19 -8 10 5 24 4 28 -6
18 -10 -10 -16 -6 -31 18 -10 17 -16 39 -13 49 4 13 -1 22 -15 30 -13 7 -19
17 -16 26 3 8 2 13 -3 9 -5 -3 -12 9 -16 26 -4 17 -13 33 -21 36 -8 3 -14 19
-14 38 0 18 -5 35 -12 37 -21 7 8 36 49 47 1 1 0 -6 -3 -14z m1031 -5 c19 -20
52 -19 66 3 4 5 30 12 59 15 46 4 54 2 81 -24 l29 -28 30 22 c41 31 93 29 110
-3 13 -24 14 -24 38 -9 27 18 89 21 103 7 6 -6 30 -8 53 -6 38 4 45 2 51 -17
5 -15 13 -20 25 -17 10 3 21 -1 24 -9 6 -16 -10 -28 -29 -20 -8 3 -17 -6 -23
-24 -14 -40 -47 -48 -79 -18 l-25 23 -19 -24 c-11 -13 -18 -30 -15 -36 4 -10
-3 -11 -46 -6 -3 1 -20 12 -36 26 l-29 24 -11 -24 c-8 -18 -22 -25 -55 -30
-26 -4 -53 -2 -65 4 -15 8 -23 6 -37 -9 -18 -20 -17 -20 36 -21 93 -2 114 -4
120 -12 3 -4 18 -3 33 2 53 21 74 21 69 1 -3 -10 0 -21 6 -24 6 -4 11 -2 11 4
0 6 5 8 11 5 11 -7 38 22 38 40 0 6 -6 1 -14 -9 -8 -11 -18 -16 -22 -13 -3 4
2 13 12 21 21 15 55 2 55 -21 0 -17 11 -16 38 3 19 13 26 14 40 2 15 -12 16
-11 3 5 -13 16 -13 20 0 28 8 4 22 6 32 3 11 -4 17 0 17 11 0 9 5 15 11 13 6
-2 31 16 56 39 42 41 73 55 73 33 0 -5 9 -10 21 -10 16 0 19 -4 14 -20 -5 -14
-2 -20 9 -20 9 0 16 -6 17 -12 0 -7 4 -4 9 7 8 19 9 19 9 -3 1 -12 8 -25 16
-28 8 -4 15 -17 15 -30 0 -13 5 -24 11 -24 6 0 8 9 4 23 -5 17 -4 19 4 7 6 -8
9 -26 8 -40 -2 -14 -2 -19 0 -12 3 6 9 12 14 12 6 0 7 9 4 20 -4 12 -2 20 5
20 9 0 10 -12 6 -37 -4 -21 -8 -54 -10 -74 -3 -42 -13 -62 -28 -53 -6 4 -8 -1
-4 -14 5 -15 1 -22 -15 -27 -17 -6 -19 -9 -8 -16 11 -7 11 -9 1 -9 -10 0 -9
-4 2 -16 21 -21 45 -65 25 -46 -24 22 -33 13 -11 -11 12 -13 22 -30 22 -38 -1
-10 -5 -9 -15 5 -8 11 -18 17 -22 13 -3 -4 2 -17 13 -29 17 -20 17 -21 1 -9
-23 18 -45 57 -25 45 11 -6 11 -5 -1 9 -15 19 -26 23 -15 5 5 -8 2 -9 -10 -5
-14 5 -15 3 -6 -13 14 -25 13 -37 -2 -22 -7 7 -18 12 -24 12 -7 0 2 -14 19
-32 20 -20 27 -33 19 -36 -6 -2 -10 -7 -7 -12 3 -4 -2 -11 -11 -14 -10 -4 -13
-2 -8 6 4 7 3 8 -4 4 -7 -4 -12 -21 -12 -38 0 -24 -3 -28 -13 -20 -10 8 -12 5
-12 -14 1 -13 4 -27 8 -30 10 -10 -4 -33 -17 -28 -10 4 -13 -5 -10 -30 2 -31
0 -35 -14 -27 -10 4 -28 5 -42 0 -14 -4 -20 -7 -15 -8 15 -2 70 -51 57 -51 -7
0 -12 -10 -12 -22 0 -21 -3 -20 -30 12 l-30 35 0 -28 c0 -26 -2 -27 -22 -16
l-23 12 20 -24 20 -23 -27 17 c-36 23 -45 21 -23 -3 18 -20 18 -20 1 -14 -11
4 -22 1 -27 -7 -7 -11 -10 -9 -15 8 -4 13 -10 21 -14 18 -9 -6 -7 -45 2 -61 4
-5 -2 -10 -13 -10 -10 0 -19 5 -19 10 0 6 -5 5 -11 -1 -9 -9 -7 -16 5 -29 9
-9 15 -19 12 -21 -8 -9 -27 8 -36 33 -11 28 -32 33 -28 7 2 -10 -3 -17 -9 -16
-7 2 -13 -2 -13 -7 0 -9 15 -14 33 -11 5 1 6 -3 2 -9 -3 -6 -10 -8 -14 -5 -5
2 -6 -6 -4 -18 3 -15 -2 -29 -14 -38 -16 -13 -17 -12 -5 2 11 14 9 20 -13 37
-24 19 -35 62 -15 62 6 0 10 5 10 11 0 5 -5 7 -11 3 -6 -3 -15 0 -20 7 -7 11
-9 11 -9 1 0 -8 -5 -10 -12 -6 -7 5 -9 2 -6 -8 4 -9 -4 -21 -24 -32 -28 -17
-57 -14 -29 3 9 6 10 11 2 15 -6 4 -11 2 -11 -4 0 -6 -4 -9 -9 -5 -6 3 -8 -12
-6 -35 2 -22 -1 -40 -6 -40 -5 0 -8 12 -7 28 1 15 -2 38 -7 52 -5 14 -8 32 -6
41 1 9 -5 19 -13 22 -18 7 -18 -26 1 -63 10 -20 10 -27 -4 -42 -12 -14 -19
-15 -30 -7 -11 9 -12 8 -7 -5 3 -9 1 -16 -5 -16 -19 0 -12 27 10 41 18 12 20
19 11 49 -7 27 -11 31 -16 18 -19 -53 -19 -54 -23 -30 -3 12 -9 22 -15 22 -6
0 -7 -11 -3 -27 6 -27 6 -27 -14 -9 -21 19 -21 19 -37 -20 -9 -21 -20 -50 -25
-63 -6 -16 -14 -21 -25 -17 -13 5 -15 2 -11 -15 5 -20 4 -21 -9 -7 -13 13 -14
23 -5 54 6 21 8 40 6 42 -6 7 -25 -45 -25 -69 0 -12 -5 -19 -12 -16 -7 2 -21
-10 -30 -27 -16 -28 -17 -29 -18 -8 0 14 -4 21 -11 16 -8 -5 -8 -1 0 13 14 28
1 38 -17 12 -9 -13 -18 -17 -23 -12 -12 12 0 45 13 37 6 -4 5 3 -1 15 -13 23
-23 28 -20 9 1 -7 -3 -26 -9 -41 -7 -16 -12 -34 -12 -40 -1 -17 -26 -48 -33
-40 -4 3 -3 11 1 17 9 15 10 56 0 56 -4 0 -4 8 -1 18 6 15 5 15 -10 4 -25 -21
-39 -5 -17 21 11 12 26 31 34 42 8 11 18 16 23 11 4 -5 2 -11 -4 -13 -7 -3
-13 -10 -13 -16 1 -7 10 -1 21 12 14 17 16 26 8 31 -8 5 -6 11 7 18 16 9 14
11 -14 7 -19 -2 -30 0 -26 6 3 5 10 7 15 4 5 -4 9 -1 9 4 0 6 -6 11 -14 11 -8
0 -23 3 -33 7 -16 6 -17 5 -3 -12 14 -17 13 -18 -3 -12 -10 4 -21 7 -24 7 -3
0 2 11 11 25 9 14 14 30 11 35 -3 6 5 15 19 22 14 6 26 14 26 17 0 3 11 19 25
35 14 16 25 24 25 17 0 -7 5 -9 13 -5 8 5 8 2 -2 -9 -17 -21 -3 -22 23 -2 26
19 46 19 46 -1 0 -8 -4 -12 -10 -9 -14 9 -12 -7 4 -28 13 -17 14 -17 20 0 6
15 8 15 16 3 8 -13 10 -12 10 2 0 18 33 33 50 23 5 -3 10 -1 10 5 0 7 8 9 22
5 16 -6 20 -4 15 8 -6 16 19 44 30 34 8 -9 43 38 43 58 0 15 2 16 17 4 15 -13
16 -11 9 15 -6 23 -4 27 8 23 16 -6 30 19 20 35 -3 5 4 20 17 34 20 21 21 24
4 24 -10 0 -23 8 -30 17 -11 14 -16 15 -28 5 -11 -10 -16 -10 -19 -1 -2 6 -16
13 -32 14 -19 2 -26 -1 -23 -9 3 -8 -3 -12 -16 -11 -11 1 -24 10 -28 21 -6 18
-7 18 -14 2 -9 -24 -27 -12 -23 15 2 16 -2 22 -17 22 -11 1 -25 3 -30 7 -6 3
-36 6 -68 7 -32 0 -67 6 -79 12 -15 8 -22 8 -28 -1 -5 -8 -16 -9 -31 -5 -13 5
-26 7 -28 6 -2 -2 -8 4 -13 13 -5 9 -20 16 -34 16 -20 0 -23 4 -19 23 7 27 7
42 -1 130 -5 57 -4 67 9 67 12 0 15 -8 10 -34 -6 -39 11 -56 27 -26 9 16 8 20
-4 20 -10 0 -13 6 -10 15 4 8 10 12 15 9 5 -3 15 -2 22 3 6 4 68 6 137 5 88
-2 121 0 110 7 -8 6 -27 11 -42 11 -16 0 -28 5 -28 12 0 9 -3 9 -12 0 -20 -20
-144 -16 -165 6 -13 12 -31 16 -64 14 -59 -4 -87 18 -93 73 -8 78 36 113 97
77 32 -18 32 -18 66 5 44 30 110 31 136 3z m1392 -12 c-3 -8 -6 -5 -6 6 -1 11
2 17 5 13 3 -3 4 -12 1 -19z m-1739 -11 c33 -35 42 -68 26 -99 -34 -66 -94
-13 -94 83 0 34 3 39 23 39 13 0 33 -10 45 -23z m-512 -43 c-1 -18 -7 -28 -18
-30 -22 -3 -23 5 -3 32 8 12 11 25 7 29 -4 5 -2 5 4 2 6 -4 11 -18 10 -33z
m2351 -56 c-3 -8 -6 -5 -6 6 -1 11 2 17 5 13 3 -3 4 -12 1 -19z m-2367 -28 c0
-5 -5 -10 -11 -10 -5 0 -7 5 -4 10 3 6 8 10 11 10 2 0 4 -4 4 -10z m635 -180
c3 -5 1 -10 -4 -10 -6 0 -11 5 -11 10 0 6 2 10 4 10 3 0 8 -4 11 -10z m-621
-25 c-25 -19 -40 -19 -24 0 7 8 20 15 28 15 13 0 12 -3 -4 -15z m1965 -37 c-9
-16 -14 -19 -17 -9 -2 7 2 17 9 22 20 13 21 11 8 -13z m-140 -30 c11 -30 10
-30 -7 -15 -10 10 -19 24 -19 32 0 26 15 16 26 -17z m118 -30 c-3 -8 -6 -5 -6
6 -1 11 2 17 5 13 3 -3 4 -12 1 -19z m-1913 -24 c3 -8 2 -12 -4 -9 -6 3 -10
10 -10 16 0 14 7 11 14 -7z m516 6 c0 -5 -4 -10 -9 -10 -6 0 -13 5 -16 10 -3
6 1 10 9 10 9 0 16 -4 16 -10z m100 -14 c0 -3 -4 -8 -10 -11 -5 -3 -10 -1 -10
4 0 6 5 11 10 11 6 0 10 -2 10 -4z m35 -12 c-9 -9 -18 -14 -21 -11 -9 9 6 27
22 27 13 0 13 -2 -1 -16z m195 -4 c0 -5 -4 -10 -10 -10 -5 0 -10 5 -10 10 0 6
5 10 10 10 6 0 10 -4 10 -10z m101 -27 c-9 -16 -10 -14 -11 12 0 21 3 26 11
18 8 -8 8 -16 0 -30z m922 0 c-2 -49 -3 -52 -12 -29 -8 21 -3 66 8 66 3 0 5
-17 4 -37z m-983 17 c0 -5 -4 -10 -10 -10 -5 0 -10 5 -10 10 0 6 5 10 10 10 6
0 10 -4 10 -10z m-1530 -55 c0 -5 -5 -3 -10 5 -5 8 -10 20 -10 25 0 6 5 3 10
-5 5 -8 10 -19 10 -25z m2615 -36 c11 -16 1 -19 -13 -3 -7 8 -8 14 -3 14 5 0
13 -5 16 -11z m-914 -76 c13 -15 12 -15 -8 -4 -24 12 -29 21 -14 21 5 0 15 -7
22 -17z m37 -28 c-3 -3 -9 2 -12 12 -6 14 -5 15 5 6 7 -7 10 -15 7 -18z m-20
-13 c2 -7 -2 -10 -12 -6 -9 3 -16 11 -16 16 0 13 23 5 28 -10z m-190 -14 c15
-15 15 -28 1 -28 -5 0 -7 6 -3 13 6 10 4 10 -7 0 -7 -7 -20 -13 -28 -12 -11 0
-12 2 -3 6 6 2 12 11 12 19 0 17 12 18 28 2z m999 -10 c-3 -8 -6 -5 -6 6 -1
11 2 17 5 13 3 -3 4 -12 1 -19z m-880 -22 c-8 -8 -17 -12 -21 -9 -3 3 2 12 12
19 22 16 29 9 9 -10z m-274 -15 c-6 -22 -29 -35 -38 -21 -3 5 5 16 17 24 28
20 27 20 21 -3z m-61 -33 c-7 -7 -12 -8 -12 -2 0 6 3 14 7 17 3 4 9 5 12 2 2
-3 -1 -11 -7 -17z m49 -21 c-10 -9 -11 -8 -5 6 3 10 9 15 12 12 3 -3 0 -11 -7
-18z m-101 -8 c0 -5 -7 -9 -15 -9 -9 0 -12 6 -9 15 6 15 24 11 24 -6z m79 8
c-2 -1 -12 -9 -21 -16 -15 -12 -18 -11 -18 3 0 10 8 16 22 16 12 0 19 -1 17
-3z m-233 -32 c-23 -17 -36 -19 -36 -6 0 5 8 12 18 14 32 9 37 6 18 -8z m243
-6 c-19 -12 -29 -11 -29 2 0 5 5 7 10 4 6 -3 10 -1 10 5 0 6 5 8 11 4 8 -4 7
-9 -2 -15z m-45 -21 c-4 -6 -9 -6 -13 -2 -10 14 -41 16 -41 3 0 -7 -2 -10 -5
-7 -3 3 -3 12 1 21 4 12 11 13 35 5 16 -5 26 -14 23 -20z m947 -10 c11 -21 11
-22 -4 -9 -10 7 -17 17 -17 22 0 15 9 10 21 -13z m-1261 2 c0 -5 -5 -10 -11
-10 -5 0 -7 5 -4 10 3 6 8 10 11 10 2 0 4 -4 4 -10z m282 -34 c-11 -11 -22
-30 -25 -41 -3 -12 -5 -4 -6 17 -1 26 4 40 16 47 28 15 37 1 15 -23z m17 -22
c-14 -18 -24 -11 -15 11 3 9 11 13 16 10 8 -5 7 -11 -1 -21z m78 15 c6 -6 9
-19 5 -28 -10 -26 -57 -86 -70 -88 -17 -4 -15 32 3 47 9 7 26 27 37 44 l22 31
-24 -20 c-14 -11 -31 -27 -38 -35 -14 -15 -10 -6 22 48 9 15 28 16 43 1z m770
-31 c-3 -8 -6 -5 -6 6 -1 11 2 17 5 13 3 -3 4 -12 1 -19z m-177 -122 c-1 -17
-3 -16 -15 9 -7 17 -14 24 -14 17 -1 -7 -5 -10 -11 -7 -5 3 -10 -1 -10 -10 0
-9 5 -13 11 -9 8 5 8 1 0 -14 -12 -23 -31 -38 -31 -25 0 5 5 14 12 21 9 9 9
12 0 12 -7 0 -11 5 -9 12 1 7 -3 12 -10 13 -15 0 -30 15 -15 15 7 0 9 12 5 34
-3 19 -1 36 6 40 6 4 11 2 11 -3 0 -19 20 -12 21 7 0 9 11 -7 25 -37 13 -29
24 -63 24 -75z m-264 92 c4 -6 3 -8 -4 -4 -6 3 -12 -3 -15 -16 -4 -20 -4 -19
-6 5 -1 28 12 36 25 15z m269 -17 c3 -5 1 -12 -5 -16 -5 -3 -10 1 -10 9 0 18
6 21 15 7z m84 -21 c11 -24 11 -24 -3 -6 -9 11 -16 24 -16 30 0 12 5 7 19 -24z
m-321 -14 c2 -19 8 -26 18 -22 16 6 20 -19 4 -29 -5 -3 -10 -1 -10 5 0 6 -4 8
-10 5 -5 -3 -10 4 -10 15 0 15 -5 20 -13 17 -10 -4 -13 2 -9 19 6 32 26 25 30
-10z m62 18 c0 -8 -5 -12 -10 -9 -6 4 -8 11 -5 16 9 14 15 11 15 -7z m-130
-28 c-6 -6 -10 -15 -10 -20 0 -6 4 -4 10 4 14 22 23 5 13 -26 -14 -41 -31 -40
-39 2 -5 25 -3 39 5 42 6 2 11 11 11 20 0 15 2 15 10 2 6 -9 6 -18 0 -24z
m-316 -21 c-4 -8 -11 -15 -16 -15 -6 0 -5 6 2 15 7 8 14 15 16 15 2 0 1 -7 -2
-15z m26 -6 c-7 -11 -14 -19 -16 -16 -7 7 7 37 17 37 6 0 5 -9 -1 -21z m697
-1 c-3 -8 -6 -5 -6 6 -1 11 2 17 5 13 3 -3 4 -12 1 -19z m-522 -48 c0 -53 -10
-65 -24 -28 -7 20 6 78 19 78 3 0 5 -22 5 -50z m-95 36 c0 -3 -4 -8 -10 -11
-5 -3 -10 -1 -10 4 0 6 5 11 10 11 6 0 10 -2 10 -4z m32 -58 c-7 -7 -12 -8
-12 -2 0 6 3 14 7 17 3 4 9 5 12 2 2 -3 -1 -11 -7 -17z m258 -4 c0 -8 -4 -12
-10 -9 -5 3 -10 10 -10 16 0 5 5 9 10 9 6 0 10 -7 10 -16z m133 -14 c-5 -19
-23 -29 -23 -12 0 7 20 32 26 32 1 0 0 -9 -3 -20z m-1752 -123 c-10 -9 -11 -8
-5 6 3 10 9 15 12 12 3 -3 0 -11 -7 -18z m2 -37 c-3 -11 -7 -20 -9 -20 -2 0
-4 9 -4 20 0 11 4 20 9 20 5 0 7 -9 4 -20z m-16 -52 c-3 -8 -6 -5 -6 6 -1 11
2 17 5 13 3 -3 4 -12 1 -19z m1273 -578 c0 -5 -4 -10 -9 -10 -6 0 -13 5 -16
10 -3 6 1 10 9 10 9 0 16 -4 16 -10z m-1310 -474 c0 -3 -4 -8 -10 -11 -5 -3
-10 -1 -10 4 0 6 5 11 10 11 6 0 10 -2 10 -4z"/>
<path d="M2636 7565 c-9 -26 -7 -32 5 -12 6 10 9 21 6 23 -2 3 -7 -2 -11 -11z"/>
<path d="M3688 6913 c7 -3 16 -2 19 1 4 3 -2 6 -13 5 -11 0 -14 -3 -6 -6z"/>
<path d="M3633 6835 c0 -9 4 -14 9 -13 5 2 10 8 10 13 0 5 -5 11 -10 13 -5 1
-9 -4 -9 -13z"/>
<path d="M3522 6748 c7 -20 35 -21 60 -4 22 16 21 16 -21 16 -30 0 -41 -4 -39
-12z"/>
<path d="M3520 6624 c0 -8 5 -12 10 -9 6 3 10 10 10 16 0 5 -4 9 -10 9 -5 0
-10 -7 -10 -16z"/>
<path d="M3680 6540 c0 -5 5 -10 11 -10 5 0 7 5 4 10 -3 6 -8 10 -11 10 -2 0
-4 -4 -4 -10z"/>
<path d="M5355 6110 c3 -5 -16 -9 -42 -9 -27 0 -64 -3 -85 -7 -20 -3 -44 -2
-53 4 -29 16 -73 -8 -86 -46 -13 -38 -16 -38 -23 2 -8 42 -16 44 -17 5 -1 -49
-8 -82 -20 -94 -7 -7 -8 -4 -3 9 5 14 4 17 -5 11 -10 -6 -11 -3 -2 14 9 16 8
26 -5 46 -13 20 -19 23 -25 13 -11 -17 -11 -31 0 -24 5 3 9 -6 9 -19 0 -14 -4
-25 -9 -25 -5 0 -9 9 -9 20 0 11 -7 20 -15 20 -11 0 -14 -7 -10 -22 8 -33 -8
-52 -39 -46 -15 3 -29 1 -32 -3 -3 -5 1 -9 9 -9 8 0 19 -6 25 -13 9 -10 4 -12
-23 -9 -22 3 -35 0 -35 -7 0 -6 3 -10 8 -10 24 4 41 -3 36 -15 -3 -8 4 -16 18
-20 22 -7 22 -7 3 -16 -11 -5 -14 -9 -7 -9 6 -1 12 -7 12 -14 0 -8 18 -20 39
-27 36 -12 39 -15 30 -37 -15 -41 -10 -46 22 -19 37 31 50 32 67 6 10 -17 9
-23 -8 -40 -24 -24 -26 -42 -3 -33 11 4 14 3 9 -5 -4 -7 -2 -12 3 -12 6 0 11
-7 11 -15 0 -8 -5 -15 -11 -15 -5 0 -8 -4 -5 -9 3 -5 -1 -11 -9 -15 -8 -3 -15
-10 -15 -15 0 -7 9 -7 26 -1 32 12 44 13 25 1 -12 -8 -12 -12 2 -25 20 -20 27
-20 27 -1 0 8 5 15 11 15 6 0 25 16 43 35 39 41 66 46 66 11 0 -12 5 -37 11
-55 9 -26 19 -34 55 -43 24 -7 44 -16 44 -20 0 -4 12 -3 26 2 14 6 40 10 57
10 60 0 74 10 97 62 12 28 19 59 17 69 -7 24 4 24 33 -1 13 -11 27 -20 31 -20
4 0 10 -9 14 -19 7 -22 -26 -60 -67 -79 -33 -14 -36 -27 -6 -29 11 -1 25 -8
29 -15 7 -10 9 -10 9 0 0 7 -10 17 -22 21 -23 9 -23 9 3 16 15 3 43 2 64 -4
31 -8 35 -8 24 5 -16 19 -2 17 46 -6 45 -22 71 -25 80 -10 3 6 25 10 48 10 23
0 49 5 57 10 12 8 9 10 -13 10 -16 0 -26 4 -22 10 3 6 2 10 -4 10 -17 0 -86
72 -83 86 2 10 -7 14 -28 14 -16 0 -30 4 -30 8 0 7 -57 29 -94 36 -5 1 -1 10
9 19 13 14 20 15 31 6 8 -6 21 -9 29 -5 10 3 27 -6 45 -24 16 -17 32 -30 36
-30 4 0 25 -15 48 -33 23 -18 48 -33 56 -32 17 0 21 24 7 43 -6 8 -5 17 3 27
12 15 5 55 -11 55 -5 0 -9 5 -9 10 0 6 7 10 15 10 8 0 15 -4 15 -10 0 -5 5
-10 10 -10 6 0 10 6 10 13 0 8 12 14 30 14 27 0 35 -7 31 -29 0 -5 9 -8 21 -8
19 0 20 2 8 10 -13 9 -13 10 1 10 8 0 20 -5 26 -11 14 -14 73 9 68 25 -15 52
-15 65 2 60 10 -4 3 6 -16 22 -29 24 -31 29 -16 34 15 5 14 9 -10 39 -16 18
-34 30 -41 27 -8 -3 -14 -2 -14 3 0 4 -7 8 -15 8 -8 0 -12 -4 -9 -9 7 -10 -9
-10 -22 0 -5 5 -29 16 -54 25 -25 9 -58 28 -74 42 -16 14 -34 25 -40 26 -62 6
-82 5 -88 -4 -5 -8 -12 -7 -25 3 -10 8 -28 21 -41 28 -20 11 -23 10 -32 -14
-9 -22 -13 -24 -25 -14 -17 14 -21 35 -5 25 6 -3 10 -2 10 3 0 7 -42 32 -55
32 -2 0 -1 -8 2 -17 6 -16 5 -16 -10 -4 -9 7 -15 16 -13 20 2 3 -6 7 -17 7
-12 1 -39 4 -60 7 -23 4 -35 2 -32 -3 8 -12 7 -12 -33 -1 -18 6 -30 6 -27 1z
m125 -19 c0 -11 -31 -24 -39 -16 -3 3 1 10 9 15 19 12 30 12 30 1z m420 -277
c0 -2 -13 -4 -30 -4 -16 0 -30 4 -30 8 0 5 14 7 30 4 17 -2 30 -6 30 -8z
m-488 -15 c-3 -10 0 -10 12 0 9 7 27 10 43 7 15 -3 43 -7 61 -8 17 -1 32 -5
32 -9 0 -4 12 -6 26 -4 24 2 54 -17 54 -35 0 -24 -35 -27 -88 -9 -31 11 -82
19 -117 19 -59 0 -63 2 -67 25 -3 13 -3 27 0 29 10 11 47 -2 44 -15z m503 -9
c8 -13 -5 -13 -25 0 -13 8 -13 10 2 10 9 0 20 -4 23 -10z m160 -20 c16 -18 16
-20 1 -26 -9 -4 -20 -4 -23 0 -4 3 2 6 13 6 17 0 16 3 -6 20 -14 11 -20 20
-14 20 6 0 19 -9 29 -20z m-619 -91 c10 -17 -13 -36 -27 -22 -12 12 -4 33 11
33 5 0 12 -5 16 -11z"/>
<path d="M5695 6070 c3 -5 11 -10 16 -10 6 0 7 5 4 10 -3 6 -11 10 -16 10 -6
0 -7 -4 -4 -10z"/>
<path d="M5750 6070 c0 -5 7 -10 16 -10 8 0 12 5 9 10 -3 6 -10 10 -16 10 -5
0 -9 -4 -9 -10z"/>
<path d="M5032 6050 c0 -14 2 -19 5 -12 2 6 2 18 0 25 -3 6 -5 1 -5 -13z"/>
<path d="M4890 6000 c0 -9 31 -30 44 -30 13 0 5 28 -10 34 -23 9 -34 7 -34 -4z"/>
<path d="M5920 5690 c0 -5 5 -10 11 -10 5 0 7 5 4 10 -3 6 -8 10 -11 10 -2 0
-4 -4 -4 -10z"/>
<path d="M6070 5680 c8 -5 20 -10 25 -10 6 0 3 5 -5 10 -8 5 -19 10 -25 10 -5
0 -3 -5 5 -10z"/>
<path d="M5172 5558 c-6 -6 -31 -9 -56 -7 -25 2 -42 1 -37 -4 12 -12 120 -12
132 0 7 7 4 12 -9 16 -11 2 -25 0 -30 -5z"/>
<path d="M5230 5530 c-12 -8 -9 -10 13 -10 15 0 27 5 27 10 0 13 -20 13 -40 0z"/>
<path d="M5295 5520 c-3 -5 -2 -10 4 -10 5 0 13 5 16 10 3 6 2 10 -4 10 -5 0
-13 -4 -16 -10z"/>
<path d="M5494 5515 c-17 -13 -17 -14 -1 -15 19 0 24 -20 5 -20 -9 0 -8 -3 2
-10 9 -5 19 -5 27 1 7 6 17 8 23 4 5 -3 10 1 10 9 0 8 -9 18 -20 21 -11 4 -18
11 -15 16 9 14 -9 11 -31 -6z"/>
<path d="M5360 5490 c0 -6 -4 -8 -10 -5 -15 9 -12 -1 4 -14 10 -9 15 -8 19 3
4 9 2 18 -3 21 -6 4 -10 1 -10 -5z"/>
<path d="M5416 5475 c4 -8 11 -15 16 -15 6 0 5 6 -2 15 -7 8 -14 15 -16 15 -2
0 -1 -7 2 -15z"/>
<path d="M5460 5480 c-9 -6 -10 -10 -3 -10 6 0 15 5 18 10 8 12 4 12 -15 0z"/>
<path d="M5220 5444 c0 -17 -22 -18 -38 -2 -9 9 -12 8 -12 -5 0 -9 7 -17 15
-17 8 0 15 -4 15 -10 0 -5 7 -10 15 -10 8 0 15 -3 15 -7 0 -5 11 -13 24 -19
20 -9 23 -9 19 2 -3 8 0 14 6 14 6 0 11 -8 11 -17 0 -15 2 -16 10 -3 7 12 10
12 10 1 0 -7 6 -11 15 -8 8 4 17 2 19 -2 3 -4 49 -9 103 -9 74 -1 93 1 80 9
-10 6 -25 8 -33 5 -9 -3 -25 1 -37 9 -12 8 -31 15 -43 15 -37 0 -84 21 -84 38
0 13 -2 14 -8 4 -5 -7 -16 -10 -25 -6 -12 4 -17 1 -17 -10 0 -9 -4 -16 -10
-16 -5 0 -7 7 -4 15 4 8 1 15 -4 15 -6 0 -13 -8 -15 -17 -4 -14 -5 -13 -6 4 0
12 5 23 11 25 7 3 2 7 -10 10 -15 4 -22 2 -22 -8z"/>
<path d="M5010 4516 c0 -2 7 -6 15 -10 8 -3 15 -1 15 4 0 6 -7 10 -15 10 -8 0
-15 -2 -15 -4z"/>
<path d="M4016 5825 c10 -8 23 -15 28 -15 6 0 1 7 -10 15 -10 8 -23 15 -28 15
-6 0 -1 -7 10 -15z"/>
<path d="M4120 5760 c0 -5 7 -10 15 -10 8 0 15 5 15 10 0 6 -7 10 -15 10 -8 0
-15 -4 -15 -10z"/>
<path d="M3935 5550 c-3 -5 -1 -10 4 -10 6 0 11 5 11 10 0 6 -2 10 -4 10 -3 0
-8 -4 -11 -10z"/>
<path d="M3885 5480 c3 -5 10 -10 16 -10 5 0 9 5 9 10 0 6 -7 10 -16 10 -8 0
-12 -4 -9 -10z"/>
<path d="M3490 5415 c0 -8 5 -15 10 -15 6 0 10 7 10 15 0 8 -4 15 -10 15 -5 0
-10 -7 -10 -15z"/>
<path d="M4110 5420 c0 -5 5 -10 11 -10 5 0 7 5 4 10 -3 6 -8 10 -11 10 -2 0
-4 -4 -4 -10z"/>
<path d="M4060 5416 c0 -2 7 -7 16 -10 8 -3 12 -2 9 4 -6 10 -25 14 -25 6z"/>
<path d="M5100 3779 c0 -5 5 -7 10 -4 6 3 10 8 10 11 0 2 -4 4 -10 4 -5 0 -10
-5 -10 -11z"/>
<path d="M4970 3770 c0 -5 7 -10 15 -10 8 0 15 5 15 10 0 6 -7 10 -15 10 -8 0
-15 -4 -15 -10z"/>
<path d="M4651 3754 c0 -11 3 -14 6 -6 3 7 2 16 -1 19 -3 4 -6 -2 -5 -13z"/>
<path d="M4880 3750 c0 -5 5 -10 10 -10 6 0 10 5 10 10 0 6 -4 10 -10 10 -5 0
-10 -4 -10 -10z"/>
<path d="M5518 3700 c-7 -24 -3 -38 8 -28 3 4 4 17 2 30 l-3 23 -7 -25z"/>
<path d="M4910 3400 c0 -5 5 -10 10 -10 6 0 10 5 10 10 0 6 -4 10 -10 10 -5 0
-10 -4 -10 -10z"/>
<path d="M4811 3201 c-22 -14 -24 -50 -3 -48 12 0 17 9 17 29 0 15 0 28 0 28
0 0 -6 -4 -14 -9z"/>
<path d="M4935 3160 c6 -18 -2 -25 -27 -22 -3 1 -9 -5 -12 -13 -8 -21 18 -19
37 3 19 21 23 52 6 52 -6 0 -8 -9 -4 -20z"/>
<path d="M5337 3169 c7 -7 15 -10 18 -7 3 3 -2 9 -12 12 -14 6 -15 5 -6 -5z"/>
<path d="M4770 3140 c0 -5 5 -10 10 -10 6 0 10 5 10 10 0 6 -4 10 -10 10 -5 0
-10 -4 -10 -10z"/>
<path d="M4645 3132 c-5 -4 -11 -16 -13 -27 -2 -17 0 -16 12 5 13 22 21 21 17
-2 0 -5 4 -8 9 -8 12 0 12 3 4 24 -7 18 -14 20 -29 8z"/>
<path d="M4796 3124 c-10 -25 -7 -46 5 -39 6 4 8 13 5 20 -2 7 1 18 7 24 8 8
8 11 0 11 -6 0 -14 -7 -17 -16z"/>
<path d="M4700 3111 c0 -6 5 -13 10 -16 6 -3 10 1 10 9 0 9 -4 16 -10 16 -5 0
-10 -4 -10 -9z"/>
<path d="M4820 3104 c0 -8 5 -12 10 -9 6 4 8 11 5 16 -9 14 -15 11 -15 -7z"/>
<path d="M4567 3103 c-10 -9 -9 -23 2 -23 5 0 11 7 15 15 5 15 -5 20 -17 8z"/>
<path d="M5120 3085 c7 -9 15 -13 17 -11 7 7 -7 26 -19 26 -6 0 -6 -6 2 -15z"/>
<path d="M4670 3079 c0 -5 5 -7 10 -4 6 3 10 8 10 11 0 2 -4 4 -10 4 -5 0 -10
-5 -10 -11z"/>
<path d="M4630 3059 c0 -5 5 -7 10 -4 6 3 10 8 10 11 0 2 -4 4 -10 4 -5 0 -10
-5 -10 -11z"/>
<path d="M4645 3034 c-11 -17 -12 -25 -4 -22 6 2 16 14 20 26 11 29 5 28 -16
-4z"/>
<path d="M4687 3039 c7 -7 15 -10 18 -7 3 3 -2 9 -12 12 -14 6 -15 5 -6 -5z"/>
<path d="M4600 2999 c0 -5 5 -7 10 -4 6 3 10 8 10 11 0 2 -4 4 -10 4 -5 0 -10
-5 -10 -11z"/>
<path d="M4550 2929 c0 -5 5 -7 10 -4 6 3 10 8 10 11 0 2 -4 4 -10 4 -5 0 -10
-5 -10 -11z"/>
<path d="M4160 8773 c-14 -2 -39 -10 -55 -18 -33 -15 -85 -65 -68 -65 6 0 13
4 15 8 9 23 80 58 138 68 40 8 51 12 30 12 -19 -1 -46 -3 -60 -5z"/>
<path d="M4418 8763 c7 -3 16 -2 19 1 4 3 -2 6 -13 5 -11 0 -14 -3 -6 -6z"/>
<path d="M3210 8441 c0 -6 4 -13 10 -16 6 -3 7 1 4 9 -7 18 -14 21 -14 7z"/>
<path d="M3260 8436 c0 -2 8 -10 18 -17 15 -13 16 -12 3 4 -13 16 -21 21 -21
13z"/>
<path d="M3750 8400 c0 -5 5 -10 10 -10 6 0 10 5 10 10 0 6 -4 10 -10 10 -5 0
-10 -4 -10 -10z"/>
<path d="M2860 8080 c-13 -8 -12 -10 3 -10 9 0 17 5 17 10 0 12 -1 12 -20 0z"/>
<path d="M2640 7819 c0 -5 5 -7 10 -4 6 3 10 8 10 11 0 2 -4 4 -10 4 -5 0 -10
-5 -10 -11z"/>
<path d="M2410 6274 c0 -8 5 -12 10 -9 6 3 10 10 10 16 0 5 -4 9 -10 9 -5 0
-10 -7 -10 -16z"/>
<path d="M6427 4785 c-3 -16 0 -24 7 -22 14 4 21 47 8 47 -5 0 -12 -11 -15
-25z"/>
<path d="M5983 2648 c3 -12 23 -108 43 -212 l38 -190 50 -57 c28 -31 65 -83
81 -115 17 -33 33 -61 36 -64 5 -4 17 -60 19 -91 0 -3 14 -24 31 -45 68 -85
169 -343 200 -510 30 -163 54 -257 94 -374 47 -137 63 -204 125 -510 28 -140
57 -277 65 -305 7 -27 19 -78 26 -112 l12 -63 1268 0 1269 0 -2 626 -3 626
-40 15 c-69 26 -136 42 -242 57 -123 18 -225 57 -431 160 -177 90 -183 92
-417 157 -99 28 -295 88 -435 134 -140 46 -367 111 -505 144 -171 42 -284 76
-358 107 -59 25 -161 63 -226 84 -141 45 -144 47 -240 116 -53 39 -88 75 -125
129 -79 115 -226 259 -309 302 -29 15 -30 14 -24 -9z"/>
<path d="M5600 2590 c0 -5 5 -10 11 -10 5 0 7 5 4 10 -3 6 -8 10 -11 10 -2 0
-4 -4 -4 -10z"/>
<path d="M5730 2315 c-7 -9 -8 -15 -2 -15 5 0 12 7 16 15 3 8 4 15 2 15 -2 0
-9 -7 -16 -15z"/>
<path d="M5599 2143 l-24 -28 28 24 c15 14 27 26 27 28 0 8 -8 1 -31 -24z"/>
<path d="M4550 2025 c0 -8 5 -17 12 -21 7 -5 8 -3 3 6 -6 10 -4 12 9 7 31 -12
66 -19 66 -14 0 3 -20 12 -45 20 -38 13 -45 13 -45 2z"/>
<path d="M5449 2003 c-13 -16 -12 -17 4 -4 16 13 21 21 13 21 -2 0 -10 -8 -17
-17z"/>
<path d="M4425 1990 c-4 -6 -14 -9 -22 -6 -8 3 -11 1 -8 -4 3 -6 12 -10 20
-10 15 0 30 18 22 26 -3 3 -8 0 -12 -6z"/>
<path d="M4280 1986 c0 -2 7 -7 16 -10 8 -3 12 -2 9 4 -6 10 -25 14 -25 6z"/>
<path d="M4312 1934 c10 -10 20 -16 22 -13 3 3 -5 11 -17 18 -21 13 -21 12 -5
-5z"/>
<path d="M4658 1933 c7 -3 16 -2 19 1 4 3 -2 6 -13 5 -11 0 -14 -3 -6 -6z"/>
<path d="M4755 1920 c-18 -8 -17 -9 8 -9 15 -1 27 4 27 9 0 12 -8 12 -35 0z"/>
<path d="M4375 1895 c11 -9 29 -21 40 -26 l20 -10 -20 16 c-11 9 -29 21 -40
26 l-20 10 20 -16z"/>
<path d="M5204 1794 c-18 -14 -18 -15 4 -4 12 6 22 13 22 15 0 8 -5 6 -26 -11z"/>
<path d="M4808 1773 c7 -3 16 -2 19 1 4 3 -2 6 -13 5 -11 0 -14 -3 -6 -6z"/>
<path d="M5405 1748 c-22 -4 -58 -10 -80 -14 -48 -8 -41 -10 48 -19 51 -5 67
-10 67 -22 0 -12 -7 -14 -30 -10 -16 4 -59 9 -95 13 -36 4 -65 10 -65 13 0 11
-504 4 -561 -8 -30 -6 -112 -10 -184 -9 -123 1 -147 -2 -440 -61 -170 -34
-343 -71 -382 -82 -40 -10 -76 -19 -80 -19 -4 0 2 -7 14 -15 14 -10 43 -15 85
-14 50 2 71 -3 102 -21 21 -13 64 -33 95 -44 57 -21 121 -66 121 -84 0 -14
157 -160 192 -178 16 -8 26 -20 22 -26 -4 -7 -3 -8 4 -4 13 8 108 -21 137 -42
19 -13 18 -13 -10 -9 -81 15 -130 18 -115 8 13 -9 13 -11 -2 -11 -26 0 -12
-21 40 -60 59 -44 68 -54 96 -111 12 -26 30 -54 39 -63 9 -10 17 -26 17 -37 0
-36 52 -132 110 -206 79 -98 101 -200 54 -253 -26 -30 -154 -326 -154 -357 0
-2 257 -3 571 -3 l571 0 -7 72 c-4 39 -12 85 -17 102 -5 17 -16 55 -23 83 -8
29 -26 81 -41 115 -36 87 -158 309 -199 363 -19 24 -30 47 -26 50 5 3 12 29
16 58 11 84 35 169 60 212 12 22 26 55 30 73 4 19 19 48 35 65 15 18 39 55 53
83 14 27 33 57 42 64 10 8 35 41 58 75 22 33 43 62 47 65 3 3 18 21 34 42 15
20 65 61 111 92 46 31 86 60 89 65 8 12 -51 25 -214 50 -183 27 -189 27 -235
19z m-350 -58 c-3 -5 -14 -10 -23 -10 -15 0 -15 2 -2 10 20 13 33 13 25 0z
m-792 -60 c-3 -11 -7 -20 -9 -20 -2 0 -8 9 -14 20 -9 17 -8 20 9 20 14 0 18
-5 14 -20z m1078 -34 c22 -19 25 -25 13 -30 -8 -3 -12 -2 -9 4 3 5 -6 17 -20
26 -24 15 -27 15 -44 0 -9 -9 -26 -16 -37 -16 -14 1 -9 6 16 20 45 25 47 25
81 -4z m-541 -12 c0 -2 -7 -4 -15 -4 -8 0 -15 4 -15 10 0 5 7 7 15 4 8 -4 15
-8 15 -10z m325 -114 c-3 -5 -12 -10 -18 -10 -7 0 -6 4 3 10 19 12 23 12 15 0z
m-285 -110 c0 -5 -7 -7 -15 -4 -8 4 -15 8 -15 10 0 2 7 4 15 4 8 0 15 -4 15
-10z m40 -17 c-1 -10 -50 -46 -50 -37 0 9 33 43 43 43 4 1 7 -2 7 -6z m-115
-13 c-3 -5 -12 -10 -18 -10 -7 0 -6 4 3 10 19 12 23 12 15 0z m393 -93 l40
-23 -39 -21 c-33 -18 -40 -19 -50 -7 -10 12 -9 13 5 8 16 -6 46 11 46 27 0 5
-6 9 -14 9 -8 0 -16 5 -18 11 -3 8 -10 8 -26 -2 -12 -8 -20 -20 -17 -26 2 -7
1 -13 -3 -13 -11 0 -37 18 -32 22 8 5 65 37 66 38 1 0 20 -10 42 -23z m-238
-170 c0 -4 5 -5 10 -2 24 15 7 -4 -17 -21 -27 -17 -28 -17 -13 1 10 12 11 20
4 22 -6 2 -20 10 -30 18 -17 13 -15 13 14 3 17 -7 32 -16 32 -21z m279 -125
c12 -12 11 -17 -7 -35 -18 -17 -24 -19 -34 -9 -11 11 -10 12 3 7 9 -3 21 0 27
8 9 11 8 18 -7 31 -16 15 -22 15 -40 5 -15 -10 -17 -16 -9 -26 13 -16 4 -17
-24 -2 -19 10 -18 12 14 34 34 24 39 23 77 -13z m-65 -208 c15 -14 26 -28 22
-31 -3 -3 -15 4 -26 17 -11 12 -26 20 -34 17 -10 -4 -13 -1 -9 9 7 19 13 18
47 -12z m-15 -83 c-6 -2 -18 4 -27 13 -15 15 -15 15 10 4 15 -7 23 -15 17 -17z
m-466 -116 c4 -35 3 -50 -2 -35 -11 34 -22 140 -12 115 5 -11 11 -47 14 -80z
m712 -73 c-3 -3 -14 5 -24 17 -23 27 -41 20 -41 -14 0 -24 31 -51 44 -38 3 3
6 -3 6 -15 0 -30 -10 -27 -43 13 -26 32 -27 36 -16 74 l12 40 33 -36 c19 -20
32 -38 29 -41z m-488 -107 c-1 0 -13 -9 -26 -20 l-24 -20 18 34 c13 25 19 30
25 20 5 -7 8 -14 7 -14z m-3 -88 c4 4 4 -1 0 -10 -7 -20 -7 -20 -23 13 -11 22
-10 23 2 8 8 -10 17 -15 21 -11z m343 -86 c-13 -26 -13 -31 2 -46 15 -16 15
-16 -6 -4 -23 14 -23 41 -2 64 5 5 10 18 10 30 1 16 2 17 6 3 2 -10 -2 -31
-10 -47z m287 24 c3 -8 1 -15 -4 -15 -6 0 -10 7 -10 15 0 8 2 15 4 15 2 0 6
-7 10 -15z m-225 -44 c-1 -13 -2 -13 -6 2 -2 9 -8 17 -13 17 -4 0 -11 8 -14
17 -6 15 -4 15 14 -2 11 -10 19 -25 19 -34z m286 -43 c3 -7 -1 -4 -9 6 -9 11
-16 29 -15 40 1 17 2 16 9 -6 4 -14 11 -32 15 -40z m-308 -12 c0 -8 -6 -12
-15 -9 -11 5 -11 7 0 14 7 5 13 9 14 9 0 0 1 -6 1 -14z"/>
<path d="M5886 1639 c-24 -40 -14 -48 18 -14 30 32 56 27 56 -10 0 -27 21 -42
43 -31 57 30 60 34 41 44 -11 5 -39 15 -64 22 -25 6 -52 13 -60 16 -10 2 -23
-8 -34 -27z"/>
<path d="M6110 1580 c0 -6 7 -10 15 -10 8 0 15 2 15 4 0 2 -7 6 -15 10 -8 3
-15 1 -15 -4z"/>
<path d="M3390 1476 c-102 -32 -196 -69 -150 -60 19 4 70 8 113 8 63 1 81 5
91 19 7 9 20 17 27 17 8 0 15 9 15 20 0 25 -3 24 -96 -4z"/>
</g>
</svg>
