<svg xmlns="http://www.w3.org/2000/svg" width="1200" height="900" viewBox="0 0 800 600" fill="none"><path opacity=".2" d="M739.195 359.354c0 72.257-22.7 155.198-88.6640000000001 202.071C378.353 648.027 460.576 507.365 368.043 536.682-48.4713 668.647 106.175 489.616 106.175 346.983c0-142.633-255.682-397.956 449.506-323.7268C687.646 50.0611 585.448 106.145 650.531 157.283 727.364 196.458 739.195 291.79 739.195 359.354z" fill="#ddd"/><path d="M577.852 49.8884C588.369 57.3126 603.411 70.8958 607.613 89.8026 609.061 96.3197 602.711 104.767 607.613 110.719 611.464 115.396 598.651 127.813 604.603 131.762 596.87 140.01 594.437 176.799 552.94 176.799 511.443 176.799 487.858 165.458 503.838 154.117c15.98-11.34-7.05000000000001-54.7933.0-71.594C512.066 62.9159 522.218 61.1533 537.937 52.6894 547.041 47.7879 565.948 41.4852 577.852 49.8884z" fill="#010101"/><path d="M560.422 150.833l-12.573 2.601C549.006 160.371 549.714 162.973 551.968 170.777 554.786 180.531 556.122 184.839 551.968 188.119 547.849 191.37 543.55 191.667 537.878 194.188 532.206 196.709 522.92 197.44 519.018 202.643 515.116 207.845 520.752 236.243 519.018 252.501 517.668 265.161 514.004 272.316 515.217 284.613 516.734 300.004 529.207 315.153 531.591 329.46L531.682 330.003C533.984 343.812 534.29 345.648 534.29 363.482 534.29 373.02 525.292 395.107 519.669 400.559 514.045 406.01 512.421 406.222 505.513 410.519 512.11 410.306 515.608 409.311 531.591 417.034 547.575 424.756 549.497 448.683 549.497 456.487L552.332 457.172C557.616 450.6 570.408 442.184 579.911 438.744 592.484 434.191 600.164 430.465 621.407 432.429 653.684 435.412 657.491 450.857 664.258 458.655 662.788 453.654 660.667 444.695 659.055 437.844 652.089 408.236 638.992 377.789 642.027 363.482 645.062 351.776 664.181 288.773 667.028 268.375 670.088 246.446 671.814 206.125 669.863 197.237 667.476 186.36 661.607 173.956 645.378 173.956H622.696C615.436 173.956 611.353 172.857 606.932 170.777 602.512 168.696 595.757 164.133 595.757 157.553 595.757 149.613 596.768 139.778 597.491 131.974l-37.069 18.859z" fill="#eab3b6"/><path d="M559.78 204.094C564.358 209.459 564.976 212.586 564.976 212.586L557.595 204.354 548.318 198.81S555.203 198.729 559.78 204.094z" fill="#000" fill-opacity=".06"/><path d="M593.811 198.323C588.561 203.872 584.884 210.218 584.884 210.218l10.585-10.369L606.343 191.908S599.06 192.774 593.811 198.323z" fill="#000" fill-opacity=".06"/><path d="M515.983 487.051C535.493 482.065 551.318 463.757 551.318 444.961s-24.342-35.949-43.139-35.949C500.52 414.226 490.851 425.521 478.479 425.521 471.009 425.521 450.126 427.856 426.415 425.521 397.815 422.705 365.32 415.129 350.15 415.129 318.934 415.129 291.262 417.185 288.779 434.285 286.297 451.385 281.49 467.365 328.472 477.07 374.645 486.608 418 496.372 447.048 496.372S496.473 492.037 515.983 487.051z" fill="#e0abae"/><path d="M515.983 487.051C535.493 482.065 551.318 463.757 551.318 444.961s-24.342-35.949-43.139-35.949C500.52 414.226 490.336 423.975 477.964 423.975c-9.279.0-19.105 1.00700000000001-36.6.0C410.096 422.174 365.587 415.469 348.061 413.407 306.58 408.527 289.458 412.288 286.975 429.388 284.493 446.487 281.491 472.52 328.472 482.225 374.645 491.763 418.001 496.372 447.049 496.372S496.473 492.037 515.983 487.051z" fill="#2dbfaf"/><path d="M515.983 487.051C535.493 482.065 551.318 463.757 551.318 444.961s-24.342-35.949-43.139-35.949C500.52 414.226 490.336 423.975 477.964 423.975c-9.279.0-19.105 1.00700000000001-36.6.0C410.096 422.174 365.587 415.469 348.061 413.407 306.58 408.527 289.458 412.288 286.975 429.388 284.493 446.487 281.491 472.52 328.472 482.225 374.645 491.763 418.001 496.372 447.049 496.372S496.473 492.037 515.983 487.051z" fill="#000" fill-opacity=".19"/><path d="M611.475 540.992C644.982 530.682 667.726 506.373 667.726 478.597c0-35.551-25.552-48.123-53.327-48.123.0.0-30.203.739000000000033-55.504 17.214C550.232 453.329 536.906 458.64 522.811 468.823c-16.236 11.73-29.898 20.104-34.538 30.929C483.634 510.578 482.534 520.142 485.696 530.682 491.882 551.301 501.525 558.448 516.368 560.322 531.21 562.197 574.704 552.306 611.475 540.992z" fill="#ebb4b7"/><path d="M611.218 542.538C645.498 535.837 676.364 521.939 671.272 477.587 667.217 442.267 642.175 430.474 614.399 430.474c0 0-30.976-.550000000000011-56.277 15.925C549.459 452.041 536.133 457.094 522.038 467.277c-16.236 11.729-31.702 20.619-36.342 31.445C481.057 509.547 480.215 520.915 483.377 531.455c6.185 20.62 17.117 27.766 31.96 29.641C530.18 562.97 573.46 549.919 611.218 542.538z" fill="#2dbfaf"/><path d="M611.218 542.538C645.498 535.837 676.364 521.939 671.272 477.587 667.217 442.267 642.175 430.474 614.399 430.474c0 0-30.976-.550000000000011-56.277 15.925C549.459 452.041 536.133 457.094 522.038 467.277c-16.236 11.729-31.702 20.619-36.342 31.445C481.057 509.547 480.215 520.915 483.377 531.455c6.185 20.62 17.117 27.766 31.96 29.641C530.18 562.97 573.46 549.919 611.218 542.538z" fill="#000" fill-opacity=".1"/><path d="M512.989 491.246C508.041 489.803 497.122 489.555 492.282 489.612 496.278 485.617 492.714 488.408 498.556 484.287 499.92 486.607 508.58 487.767 517.629 491.246 525.039 494.096 528.912 495.987 529.727 496.396 529.732 496.398 529.737 496.399 529.743 496.401 529.812 496.438 529.857 496.462 529.878 496.473 529.856 496.461 529.806 496.436 529.727 496.396 526.195 495.276 517.931 492.687 512.989 491.246z" fill="#000" fill-opacity=".05"/><path d="M532.892 214.998C530.724 209.144 528.123 200.907 518.584 200.907 509.046 200.907 501.589 214.607 499.508 221.934 497.427 229.262 495.823 256.185 490.837 274.177c0 0-10.231 39.082-12.79 64.383C475.489 363.861 488.453 371.293 493.872 371.293 501.655 371.293 502.543 369.776 507.312 361.538 512.081 353.301 517.934 322.952 520.969 308.428 524.004 293.904 527.039 278.513 528.339 270.275 529.64 262.038 531.808 254.885 532.892 246.864 533.975 238.843 535.059 220.851 532.892 214.998z" fill="#e2adaf"/><path d="M645.377 173.953H622.696L570.63 252.498l-27.374-60.324C541.592 192.723 539.815 193.324 537.878 194.185 532.206 196.706 522.92 197.437 519.018 202.64 515.116 207.842 520.752 236.24 519.018 252.498 517.668 265.158 514.004 272.313 515.217 284.61 516.734 300.001 529.207 315.15 531.591 329.457L531.682 330C533.984 343.809 534.29 345.645 534.29 363.479 534.29 373.017 525.292 395.104 519.668 400.556 514.045 406.007 512.421 406.219 505.513 410.516c0 0-24.972 9.26299999999998-30.642 12.944C469.2 427.14 494.299 430.26 510.439 437.378 530.615 446.274 535.419 452.657 551.968 464.513 568.517 476.37 593.827 474.823 617.539 481.009 636.509 485.958 663.999 496.474 669.604 492.35 675.209 488.226 669.604 459.874 669.604 459.874 667.542 450.595 664.449 441.574 659.294 428.171c-10.919-28.389-17.984-48.582-14.949-62.889C647.38 353.576 664.181 288.77 667.028 268.372 670.088 246.443 671.814 206.122 669.863 197.234 667.475 186.357 661.606 173.953 645.377 173.953z" fill="#2dbfaf"/><path d="M644.345 365.282C647.38 353.576 664.181 288.771 667.028 268.372 654.687 285.273 629.593 324.228 627.943 344.848 625.881 370.622 616.602 378.87 635.675 416.501 654.748 454.132 665.151 467.462 655.264 474.236 647.355 479.655 626.819 481.009 617.539 481.009 636.509 485.958 663.999 496.474 669.604 492.35 675.209 488.226 669.604 459.874 669.604 459.874 667.542 450.596 664.449 441.575 659.294 428.172c-10.919-28.389-17.984-48.583-14.949-62.89z" fill="#000" fill-opacity=".05"/><path d="M534.29 363.48C534.29 373.018 525.291 395.105 519.668 400.556 514.045 406.008 512.421 406.22 505.513 410.517H534.29C553.363 410.517 543.256 404.129 558.868 382.994 574.479 361.859 551.968 338.147 549.073 323.197 546.758 311.238 525.537 292.489 515.216 284.61 516.734 300.001 529.206 315.15 531.591 329.457L531.681 330C533.984 343.809 534.29 345.645 534.29 363.48z" fill="#000" fill-opacity=".05"/><path d="M631.438 226.269C623.581 202.698 627.838 181.325 640.996 175.842 654.154 170.358 663.793 179.977 669.863 188.215 677.262 198.257 684.695 238.191 688.163 250.33 691.631 262.47 695.614 300.42 698.215 337.706 700.272 367.195 686.065 365.439 676.093 363.271 664.231 360.692 663.305 344.962 660.052 332.489 655.429 314.766 647.569 296.373 642.8 276.105 637.597 253.994 637.941 245.779 631.438 226.269z" fill="#ebb4b7"/><path d="M562.807 209.362C558.726 208.682 554.425 211.169 552.402 213.481V219.116C554.353 216.659 556.737 213.481 560.206 213.481 565.485 213.481 566.926 219.116 564.108 224.536 561.29 229.955 555.003 237.038 551.101 240.795V246.865C554.425 243.613 561.159 235.721 565.842 230.172 575.17 219.116 570.611 210.662 562.807 209.362z" fill="#239589"/><path d="M562.807 209.362C558.726 208.682 554.425 211.169 552.402 213.481V219.116C554.353 216.659 556.737 213.481 560.206 213.481 565.485 213.481 566.926 219.116 564.108 224.536 561.29 229.955 555.003 237.038 551.101 240.795V246.865C554.425 243.613 561.159 235.721 565.842 230.172 575.17 219.116 570.611 210.662 562.807 209.362z" fill="#000" fill-opacity=".1"/><path d="M512.081 252.934S509.803 203.163 512.081 201.558C514.36 199.953 520.022 202.079 534.546 203.163 545.355 203.969 560.888 202.508 561.506 205.026c.619000000000028 2.518-7.37 50.292-7.37 50.292C547.849 257.703 539.834 257.842 531.808 257.269S515.333 255.318 512.081 252.934z" fill="#239589"/><path d="M497.124 246.647C496.907 244.857 496.04 242.267 497.124 239.276 498.208 236.285 500.159 234.074 500.159 230.388 500.159 227.44 498.966 220.09 499.725 217.598 500.484 215.105 504.655 214.91 503.844 215.214 503.826 215.22 503.81 215.226 503.794 215.232 504.271 215.085 505.692 214.7 508.179 214.347v17.867C508.179 236.724 509.123 242.523 509.123 244.456c0 1.934.336000000000013 4.101 2.577 10.826C512.989 259.148 513.376 261.081 511.7 264.947 510.025 268.813 508.179 271.52 508.179 271.52 507.682 270.102 505.732 265.359 501.906 257.73 498.08 250.101 497.124 247.162 497.124 246.647z" fill="#f0b8bb"/><path d="M595.287 256.498c2.601 3.06 11.055 10.189 11.055 10.189S618.265 276.008 631.705 285.546C645.145 295.085 663.138 303.756 666.823 305.923 670.508 308.091 689.151 320.447 694.353 328.685 699.556 336.922 701.993 355.863 692.402 362.068 682.812 368.274 657.284 358.166 647.747 349.929 638.209 341.691 615.23 318.93 609.16 310.692 603.091 302.455 585.857 280.669 579.571 276.767 573.284 272.865 572.85 275.358 564.071 271.022 555.292 266.687 556.233 267.229 551.789 263.327 549.696 261.489 544.619 259.06 540.984 257.691 536.901 256.152 533.909 254.43 531.988 253.897 528.359 252.891 523.955 252.392 522.149 248.519 520.343 244.645 522.043 241.614 524.274 242.57 526.505 243.526 534.264 246.527 534.264 246.527L544.459 249.453 556.917 252.38S544.884 246.65 543.715 245.757C542.547 244.863 532.56 242.038 528.954 240.339 526.868 239.356 525.807 237.734 525.499 236.165 525.499 238.398 522.992 239.678 520.282 240.339 517.573 240.999 513.562 240.339 510.853 241.324 508.143 242.309 503.374 245.757 503.374 245.757S510.853 245.106 513.02 245.757C515.188 246.407 517.464 248.519 519.632 250.104 521.8 251.688 527.544 251.729 527.544 253.897 527.544 256.065 525.499 258.775 522.149 258.124 518.799 257.474 513.02 253.897 513.02 253.897L506.951 254.439S507.493 259.533 508.251 266.687c.759000000000015 7.154.0 11.706.0 18.859C508.251 290.315 506.951 296.819 506.951 305.923v24.062C506.951 341.583 506.625 348.845 505.325 355.782 504.024 362.719 499.916 371.606 493.185 371.606c-5.202.0-12.645.0-17.342-11.272C472.592 352.53 472.158 338.223 473.459 328.685 474.759 319.147 485.381 290.532 486.682 286.847 487.983 283.162 493.402 248.316 493.185 246.527 492.969 244.737 492.102 242.148 493.185 239.156 494.269 236.165 496.22 233.954 496.22 230.269 496.22 227.32 495.028 219.97 495.787 217.478 496.545 214.985 503.916 214.075 505.65 213.902 507.384 213.729 512.045 212.385 515.296 211.192 515.296 211.192 522.691 207.29 523.317 210.542S522.366 215.745 518.982 217.479C515.597 219.213 506.951 221.598 506.951 221.598L501.206 224.934 508.251 222.898C512.262 222.154 515.296 222.898 519.632 222.898 523.317 222.898 529.553 220.088 530.362 221.598 531.171 223.107 529.062 228.968 526.786 229.727 524.509 230.485 521.475 230.919 518.982 230.919 516.489 230.919 508.251 231.734 508.251 231.734L499.58 236.772S508.251 233.954 509.769 233.954C511.286 233.954 517.464 233.087 517.464 233.087S522.201 230.919 524.274 231.734C525.144 232.075 525.499 232.911 525.619 233.765 525.698 233.523 525.799 233.295 525.919 233.087 527.032 231.146 530.223 231.786 533.198 233.087 536.172 234.387 548.177 237.856 548.177 237.856l13.076 4.714S552.862 236.383 550.631 235.254C548.4 234.125 541.816 233.087 539.575 233.087 537.335 233.087 534.405 233.087 532.56 231.734 530.715 230.381 529.798 227.242 531.179 225.716 532.56 224.191 536.366 224.934 538.925 224.934 541.484 224.934 553.044 227.374 555.075 228.101 557.105 228.828 567.323 233.954 567.323 233.954S563.096 228.318 559.844 226.583C556.592 224.849 556.05 224.191 552.533 224.191 550.67 224.191 549.346 225.147 546.477 224.191 543.609 223.235 542.44 218.779 544.459 217.479 546.477 216.178 547.528 217.479 551.789 217.479S562.224 217.483 564.071 218.454C565.285 219.092 568.665 221.873 572.85 224.934L577.294 230.269S576.752 227.776 575.777 226.15C574.801 224.524 570.786 221.379 569.49 217.478 568.195 213.577 569.491 208.265 572.85 209.891 576.21 211.516 575.018 211.083 578.053 214.985 581.088 218.888 582.172 217.696 584.665 221.598 585.743 223.286 590.734 234.217 592.252 240.339 593.769 246.461 592.685 253.439 595.287 256.498z" fill="#f8bcbf"/><path d="M525.619 233.765C525.698 233.523 525.799 233.295 525.919 233.086 526.375 232.292 527.179 231.93 528.175 231.869 528.175 231.869 531.296 233.461 532.56 233.954 533.825 234.447 534.168 236.213 533.531 237.297 532.893 238.381 531.51 239.255 529.451 238.56 527.393 237.865 525.499 236.165 525.499 236.165 525.499 236.376 525.476 236.578 525.434 236.772 525.434 236.772 520.647 237.992 519.632 237.856 518.617 237.719 517.776 237.192 517.464 236.165 517.037 234.758 518.58 233.272 519.632 233.086 520.684 232.901 524.274 231.733 524.274 231.733 525.144 232.075 525.499 232.911 525.619 233.765z" fill="#a62b31"/><path d="M523.317 210.542C523.185 209.855 522.751 209.488 522.149 209.335 522.149 209.335 518.499 210.372 517.464 210.782 516.429 211.192 514.988 212.582 515.297 213.902 515.638 215.363 518.331 215.158 518.982 214.985 519.632 214.813 523.03 213.902 523.03 213.902 523.465 212.945 523.569 211.848 523.317 210.542z" fill="#a62b31"/><path d="M530.362 221.597C529.847 220.636 527.131 221.427 524.274 222.128 524.274 222.128 521.327 223.401 521.495 224.934 521.647 226.323 523.114 227.183 524.274 227.187 525.434 227.192 529.451 226.583 529.451 226.583 530.351 224.665 530.817 222.445 530.362 221.597z" fill="#a62b31"/><path d="M523.317 252.38C524.274 252.77 527.544 253.897 527.544 253.897 527.544 255.278 526.714 256.878 525.246 257.691 525.246 257.691 522.075 256.054 521.495 255.668 520.915 255.282 519.389 253.416 520.282 252.38 521.056 251.482 522.361 251.989 523.317 252.38z" fill="#a62b31"/><path d="M545.661 216.963C545.277 217.041 544.89 217.201 544.459 217.479 543.295 218.228 543.191 220.026 543.86 221.597 543.86 221.597 546.508 222.583 548.177 222.898 549.847 223.213 550.131 222.56 550.631 221.597 551.215 220.475 551.088 218.981 549.847 218.454 548.605 217.926 545.661 216.963 545.661 216.963z" fill="#a62b31"/><path d="M533.198 224.84C532.35 224.958 531.633 225.214 531.179 225.716 530.297 226.69 530.353 228.322 530.988 229.727 530.988 229.727 534.911 230.73 535.8 230.919 536.688 231.108 538.309 230.879 538.925 229.727 539.627 228.413 538.646 226.583 537.604 226.15 536.561 225.716 533.198 224.84 533.198 224.84z" fill="#a62b31"/><path d="M527.544 244.07 524.274 242.57C522.444 241.786 520.972 243.683 521.497 246.527L525.434 248.519S528.175 249.483 529.451 247.55C530.728 245.616 527.544 244.07 527.544 244.07z" fill="#a62b31"/><path d="M574.585 210.782C574.183 210.544 573.644 210.275 572.851 209.891 570.737 208.868 569.44 210.591 569.091 212.98 569.091 212.98 572.255 217.049 572.851 217.479 573.446 217.908 575.522 218.506 576.523 217.479 577.498 216.478 577.298 214.985 576.523 213.902 575.748 212.818 574.585 210.782 574.585 210.782z" fill="#a62b31"/><path d="M562.137 44.0127C533.277 44.0127 509.073 70.9724 509.073 90.2294 509.073 109.486 533.599 154.255 543.918 164.17 554.238 174.084 562.137 170.098 562.137 170.098 569.017 167.265 572.28 167.51 581.034 158.757 589.787 150.004 596.135 135.954 596.135 135.954 607.312 126.371 614.394 112.147 614.394 96.2687 614.394 67.4085 590.998 44.0127 562.137 44.0127z" fill="#fbbabd"/><path d="M562.015 83.9511C560.871 90.1168 557.119 99.046 545.08 100.734 535.727 102.045 529.99 106.743 526.465 114.37 520.345 122.695 503.453 123.188 503.453 123.188 509.405 119.239 499.587 106.792 499.587 100.734 499.587 91.6307 502.838 78.3852 506.288 72.6698 518.306 52.7604 526.7 52.5143 537.217 45.09 549.122 36.6869 573.219 42.2523 582.323 47.1538 598.042 55.6176 603.22 55.6403 611.448 75.2474 618.498 92.0481 629.747 162.107 612.736 170.355 595.725 178.603 570.982 176.025 581.034 161.849 591.086 147.673 575.971 153.45 586.704 139.683 597.437 125.917 593.024 105.631 584.121 107.4 576.519 108.911 579.499 114.37 577.348 114.37 570.346 113.32 573.793 102.297 566.494 91.6307 563.746 87.6144 562.501 85.4122 562.015 83.9511z" fill="#010101"/><path d="M580.8 107.829C578.255 109.45 577.704 112.191 578.768 115.592 579.659 118.443 581.731 119.036 583.356 121.542 586.003 125.623 584.317 134.231 589.02 132.988 591.799 132.254 592.271 129.393 593.014 126.467 593.683 123.828 593.679 119.422 592.287 117.297 589.865 113.602 590.62 109.056 587.886 107.779 585.152 106.502 583.345 106.209 580.8 107.829z" fill="#e1acaf"/><path d="M583.274 114.933C584.467 115.071 584.719 113.474 585.925 113.196 587.804 112.763 590.995 115.501 590.574 114.858 590.048 114.055 589.765 112.747 588.817 111.301S588.357 108.847 586.363 108.431C585.311 108.213 583.537 108.675 582.199 109.437 580.861 110.199 579.766 112.033 580.623 113.341 581.307 114.385 581.784 114.762 583.274 114.933z" fill="#000" fill-opacity=".05"/><path d="M581.474 116.917 582.685 118.764C583.589 120.145 584.338 120.788 585.001 122.299 585.311 123.007 585.652 124.169 585.652 124.169L586.337 125.213C587.349 125.992 585.701 122.717 586.735 121.966 587.511 121.403 588.396 122.394 589.187 121.852 589.951 121.329 590.126 120.627 590.189 119.703 590.324 117.75 588.474 116.815 586.621 116.185 584.699 115.532 581.474 116.917 581.474 116.917z" fill="#000" fill-opacity=".05"/><path fill-rule="evenodd" clip-rule="evenodd" d="M190.245 379.409C190.91 382.204 189.184 385.01 186.389 385.675 185.28 385.939 183.573 386.521 182.185 387.823 180.963 388.97 179.547 391.073 179.547 395.355 179.547 402.146 180.568 426.838 181.602 450.954 181.768 454.823 181.934 458.68 182.096 462.442 182.936 481.913 183.666 498.859 183.666 502.008 183.666 503.991 184.133 505.036 184.557 505.604 184.973 506.161 185.704 506.738 187.133 507.133 190.264 507.999 195.545 507.645 202.765 505.479 213.29 502.322 235.049 494.603 246.799 490.434 247.972 490.018 249.045 489.638 249.997 489.3 254.655 487.65 257.512 486.205 259.593 484.021 261.617 481.898 263.411 478.524 264.61 472.018 266.4 462.298 267.828 447.316 269.177 430.983 269.561 426.336 269.938 421.586 270.315 416.838 271.251 405.043 272.186 393.266 273.221 383.121 273.513 380.262 276.067 378.181 278.925 378.473 281.784 378.765 283.865 381.318 283.573 384.177 282.55 394.199 281.63 405.787 280.698 417.531 280.319 422.306 279.938 427.108 279.547 431.84 278.206 448.072 276.744 463.583 274.843 473.903 273.435 481.544 271.043 487.089 267.126 491.199 263.268 495.248 258.431 497.352 253.471 499.109 252.523 499.444 251.448 499.825 250.267 500.244 238.585 504.389 216.555 512.206 205.755 515.446 197.999 517.772 190.382 518.828 184.359 517.162 181.21 516.291 178.301 514.616 176.22 511.829 174.146 509.053 173.261 505.662 173.261 502.008 173.261 499.107 172.545 482.486 171.703 462.954 171.541 459.185 171.374 455.308 171.206 451.399 170.18 427.461 169.142 402.436 169.142 395.355 169.142 388.364 171.629 383.458 175.067 380.234 178.34 377.163 182.052 376.011 183.978 375.553 186.774 374.887 189.579 376.614 190.245 379.409zM535.339 409.22H535.338C532.469 409.373 530.018 407.172 529.864 404.303 529.711 401.434 531.912 398.983 534.781 398.829 538.312 398.64 543.716 400.299 548.433 403.853 553.413 407.605 557.989 413.718 559.286 422.8 560.39 430.528 563.475 461.706 566.434 491.622L566.473 492.015C567.948 506.925 569.395 521.555 570.561 532.929 571.754 544.578 572.615 552.41 572.904 553.932 573.611 557.657 574.813 559.407 575.541 559.972 575.799 560.172 575.97 560.214 576.172 560.215 576.438 560.217 577.094 560.136 578.204 559.497 581.338 557.693 588.729 552.69 596.37 547.184 604.034 541.662 611.445 535.995 614.739 532.901 617.678 530.14 618.961 527.699 619.596 525.431 620.276 523 620.314 520.453 620.253 517.059 620.239 516.234 620.212 514.463 620.175 511.93 619.901 493.533 619.031 434.952 617.657 406.88 617.517 404.01 619.73 401.57 622.6 401.43 625.47 401.289 627.91 403.502 628.05 406.372 629.435 434.678 630.31 493.648 630.58 511.878 630.617 514.354 630.643 516.078 630.657 516.873 630.717 520.208 630.755 524.164 629.616 528.234 628.432 532.467 626.079 536.525 621.864 540.484 618.004 544.11 610.056 550.148 602.453 555.626c-7.625 5.495-15.409 10.788-19.058 12.889C581.113 569.829 578.647 570.641 576.089 570.62 573.466 570.599 571.109 569.703 569.163 568.193 565.484 565.339 563.575 560.584 562.681 555.871 562.284 553.779 561.367 545.279 560.21 533.99 559.042 522.598 557.594 507.955 556.12 493.057L556.086 492.71C553.103 462.564 550.048 431.712 548.986 424.271 548.115 418.178 545.176 414.428 542.171 412.163 540.632 411.003 539.059 410.226 537.723 409.758 537.057 409.525 536.482 409.38 536.033 409.299 535.583 409.218 535.356 409.22 535.339 409.22z" fill="#2dbfaf"/><path fill-rule="evenodd" clip-rule="evenodd" d="M190.245 379.409C190.91 382.204 189.184 385.01 186.389 385.675 185.28 385.939 183.573 386.521 182.185 387.823 180.963 388.97 179.547 391.073 179.547 395.355 179.547 402.146 180.568 426.838 181.602 450.954 181.768 454.823 181.934 458.68 182.096 462.442 182.936 481.913 183.666 498.859 183.666 502.008 183.666 503.991 184.133 505.036 184.557 505.604 184.973 506.161 185.704 506.738 187.133 507.133 190.264 507.999 195.545 507.645 202.765 505.479 213.29 502.322 235.049 494.603 246.799 490.434 247.972 490.018 249.045 489.638 249.997 489.3 254.655 487.65 257.512 486.205 259.593 484.021 261.617 481.898 263.411 478.524 264.61 472.018 266.4 462.298 267.828 447.316 269.177 430.983 269.561 426.336 269.938 421.586 270.315 416.838 271.251 405.043 272.186 393.266 273.221 383.121 273.513 380.262 276.067 378.181 278.925 378.473 281.784 378.765 283.865 381.318 283.573 384.177 282.55 394.199 281.63 405.787 280.698 417.531 280.319 422.306 279.938 427.108 279.547 431.84 278.206 448.072 276.744 463.583 274.843 473.903 273.435 481.544 271.043 487.089 267.126 491.199 263.268 495.248 258.431 497.352 253.471 499.109 252.523 499.444 251.448 499.825 250.267 500.244 238.585 504.389 216.555 512.206 205.755 515.446 197.999 517.772 190.382 518.828 184.359 517.162 181.21 516.291 178.301 514.616 176.22 511.829 174.146 509.053 173.261 505.662 173.261 502.008 173.261 499.107 172.545 482.486 171.703 462.954 171.541 459.185 171.374 455.308 171.206 451.399 170.18 427.461 169.142 402.436 169.142 395.355 169.142 388.364 171.629 383.458 175.067 380.234 178.34 377.163 182.052 376.011 183.978 375.553 186.774 374.887 189.579 376.614 190.245 379.409zM535.339 409.22H535.338C532.469 409.373 530.018 407.172 529.864 404.303 529.711 401.434 531.912 398.983 534.781 398.829 538.312 398.64 543.716 400.299 548.433 403.853 553.413 407.605 557.989 413.718 559.286 422.8 560.39 430.528 563.475 461.706 566.434 491.622L566.473 492.015C567.948 506.925 569.395 521.555 570.561 532.929 571.754 544.578 572.615 552.41 572.904 553.932 573.611 557.657 574.813 559.407 575.541 559.972 575.799 560.172 575.97 560.214 576.172 560.215 576.438 560.217 577.094 560.136 578.204 559.497 581.338 557.693 588.729 552.69 596.37 547.184 604.034 541.662 611.445 535.995 614.739 532.901 617.678 530.14 618.961 527.699 619.596 525.431 620.276 523 620.314 520.453 620.253 517.059 620.239 516.234 620.212 514.463 620.175 511.93 619.901 493.533 619.031 434.952 617.657 406.88 617.517 404.01 619.73 401.57 622.6 401.43 625.47 401.289 627.91 403.502 628.05 406.372 629.435 434.678 630.31 493.648 630.58 511.878 630.617 514.354 630.643 516.078 630.657 516.873 630.717 520.208 630.755 524.164 629.616 528.234 628.432 532.467 626.079 536.525 621.864 540.484 618.004 544.11 610.056 550.148 602.453 555.626c-7.625 5.495-15.409 10.788-19.058 12.889C581.113 569.829 578.647 570.641 576.089 570.62 573.466 570.599 571.109 569.703 569.163 568.193 565.484 565.339 563.575 560.584 562.681 555.871 562.284 553.779 561.367 545.279 560.21 533.99 559.042 522.598 557.594 507.955 556.12 493.057L556.086 492.71C553.103 462.564 550.048 431.712 548.986 424.271 548.115 418.178 545.176 414.428 542.171 412.163 540.632 411.003 539.059 410.226 537.723 409.758 537.057 409.525 536.482 409.38 536.033 409.299 535.583 409.218 535.356 409.22 535.339 409.22z" fill="#000" fill-opacity=".5"/><path d="M287.935 347.23 615.7 361.971C616.17 362.658 616.675 364.031 616.675 367.174 616.675 369.712 615.881 371.04 615.7 371.401L613.532 372.376C613.532 373.027 613.339 374.571 612.568 375.544L645.723 377.471H648.108v2.493L646.856 380.464C646.478 384.081 646.856 389.502 646.265 392.32 645.675 395.138 644.748 396.439 643.447 397.197 642.147 397.956 600.417 416.274 598.466 416.382S538.615 410.421 538.615 410.421C536.252 411.83 534.048 411.288 533.542 411.288L529.532 414.214 497.991 411.83C497.846 410.674 497.427 407.538 496.907 404.243 496.387 400.948 494.153 399.585 493.102 399.315L218.129 380.346C217.986 380.58 217.548 381.589 216.941 383.757S216.688 388.273 216.941 389.177L207.62 389.935 183.991 388.526C182.835 387.045 180.349 383.649 179.655 381.915 178.962 380.18 175.602 378.117 174.009 377.302L171.743 377.146C170.948 376.567 169.315 374.718 169.142 371.943 168.968 369.168 170.804 367.318 171.743 366.74l116.192-19.51z" fill="#2dbfaf"/><path d="M526.822 401.64 531.441 400.231V394.92L542.647 391.315V398.605C542.647 400.99 542.647 408.015 538.615 410.42 536.252 411.829 534.048 411.287 533.542 411.287L529.532 414.213 497.991 411.829C497.846 410.673 497.427 407.536 496.907 404.242 496.387 400.947 494.153 399.584 493.102 399.314L526.822 401.64z" fill="#000" fill-opacity=".5"/><path d="M179.655 381.914C178.962 380.179 175.602 378.116 174.009 377.301L218.129 380.345C217.986 380.579 217.548 381.588 216.941 383.756 216.334 385.924 216.688 388.272 216.941 389.176L207.62 389.934 183.991 388.525C182.835 387.044 180.349 383.648 179.655 381.914z" fill="#000" fill-opacity=".5"/><path d="M526.822 401.64 531.441 400.231V394.92L542.647 391.314v7.291C542.647 400.989 542.647 408.015 538.615 410.419 536.252 411.828 534.048 411.286 533.542 411.286L529.532 414.213 526.822 401.64z" fill="#000" fill-opacity=".5"/><path d="M216.941 389.175 207.62 389.934C207.078 389.012 205.994 386.485 205.994 383.756 205.994 381.026 207.078 379.861 207.62 379.619L218.129 380.344C217.986 380.578 217.548 381.588 216.941 383.756 216.334 385.924 216.688 388.272 216.941 389.175z" fill="#000" fill-opacity=".5"/><path d="M648.108 377.47v2.493L646.856 380.463C646.478 384.081 646.856 389.501 646.265 392.319 645.675 395.137 644.748 396.438 643.447 397.197 642.147 397.955 600.417 416.273 598.466 416.381 596.515 416.49 538.615 410.42 538.615 410.42 542.647 408.016 542.647 400.99 542.647 398.606v-7.291L602.004 371.4V374.93L607.262 375.235C606.87 374.932 606.322 374.218 607.262 373.785 608.438 373.243 610.714 372.267 610.389 373.026 610.129 373.633 610.281 374.873 610.389 375.417L612.568 375.543 645.723 377.47H648.108z" fill="#fff" fill-opacity=".3"/><path d="M598.466 399.798 547.09 396.004 545.681 398.605H542.647C542.647 400.99 542.647 408.015 538.615 410.42 538.615 410.42 596.515 416.489 598.466 416.381 600.417 416.273 642.147 397.955 643.447 397.196 644.748 396.438 645.675 395.137 646.265 392.319 646.856 389.501 646.478 384.08 646.856 380.463l-48.39 19.335z" fill="#fff" fill-opacity=".3"/><path d="M171.743 366.74l356.38 24.279L531.441 389.918l82.091-27.228L615.7 361.971C616.17 362.657 616.675 364.03 616.675 367.173 616.675 369.712 615.881 371.039 615.7 371.4L613.532 372.376V367.533l-82.091 27.542V400.232L526.822 401.641 218.129 380.345 174.009 377.301 171.743 377.145C170.948 376.567 169.315 374.717 169.142 371.942 168.968 369.168 170.804 367.318 171.743 366.74z" fill="#000" fill-opacity=".2"/><path d="M526.172 396.655C526.172 398.931 526.28 401.603 526.822 401.641L531.441 400.232V395.075 389.918L528.123 391.019C527.689 392.03 526.172 394.379 526.172 396.655z" fill="#000" fill-opacity=".5"/><path d="M616.676 367.173C616.676 364.03 616.17 362.657 615.7 361.971L613.533 362.69V367.533 372.376L615.7 371.4C615.881 371.039 616.676 369.712 616.676 367.173z" fill="#000" fill-opacity=".5"/><path d="M528.123 391.018l-356.38-24.279 116.192-19.51L615.7 361.97 613.532 362.689l-82.091 27.229L528.123 391.018z" fill="#fff" fill-opacity=".5"/><path d="M547.091 392.969 600.959 374.868 602.005 374.929 607.262 375.234 610.389 375.416 612.568 375.543 645.724 377.469H648.108v2.493L646.856 380.463l-48.39 19.334L547.091 396.004V392.969z" fill="#000" fill-opacity=".2"/><path d="M598.466 396.004l47.258-18.534H648.108v2.493L646.856 380.463l-48.39 19.335L547.091 396.004V392.969L598.466 396.004z" fill="#000" fill-opacity=".3"/><path d="M528.123 391.018l-356.38-24.279C170.804 367.317 168.968 369.167 169.142 371.942 169.315 374.717 170.948 376.566 171.743 377.144L174.009 377.301 218.129 380.345l274.973 18.969L526.822 401.64C526.28 401.603 526.172 398.93 526.172 396.654S527.689 392.03 528.123 391.018z" fill="#000" fill-opacity=".2"/><path d="M547.985 360.679l-50.167 21.477C495.262 383.247 492.482 383.71 489.711 383.506L355.397 373.193C353.814 373.077 352.439 368.207 355.837 367.832 355.916 367.823 355.997 367.811 356.074 367.793l75.343-18.416C433.445 348.758 435.57 348.514 437.686 348.659L547.646 356.249C549.167 356.353 549.387 360.08 547.985 360.679z" fill="#ddd"/><path d="M547.985 360.679l-50.167 21.477C495.262 383.247 492.482 383.71 489.711 383.506L355.397 373.193C353.814 373.077 352.439 368.207 355.837 367.832 355.916 367.823 355.997 367.811 356.074 367.793l75.343-18.416C433.445 348.758 435.57 348.514 437.686 348.659L547.646 356.249C549.167 356.353 549.387 360.08 547.985 360.679z" fill="#000" fill-opacity=".3"/><path d="M547.813 359.021l-50.624 19.102C494.823 379.015 492.291 379.382 489.769 379.197L355.527 369.309C353.897 369.189 353.809 367.923 355.389 367.501l75.213-18.312C432.453 348.694 434.373 348.508 436.285 348.638L547.4 356.217C548.954 356.323 549.271 358.471 547.813 359.021z" fill="#2dbfaf"/><path d="M547.813 359.023l-50.624 19.102C494.823 379.017 492.291 379.384 489.769 379.199L355.527 369.311C353.897 369.191 353.809 367.925 355.389 367.503l75.213-18.312C432.453 348.696 434.373 348.51 436.285 348.64L547.4 356.219C548.954 356.325 549.271 358.473 547.813 359.023z" fill="#ddd"/><path d="M544.985 359.023 496.658 377.01C494.292 377.903 491.759 378.269 489.237 378.084l-131.504-9.322C356.103 368.642 356.016 367.377 357.595 366.954l72.938-16.714C432.385 349.745 434.305 349.558 436.217 349.689L544.34 356.909C545.895 357.015 546.442 358.473 544.985 359.023z" fill="#ddd"/><path d="M544.985 359.023 496.658 377.01C494.292 377.903 491.759 378.269 489.237 378.084l-131.504-9.322C356.103 368.642 356.016 367.377 357.595 366.954l72.938-16.714C432.385 349.745 434.305 349.558 436.217 349.689L544.34 356.909C545.895 357.015 546.442 358.473 544.985 359.023z" fill="#000" fill-opacity=".09"/><path d="M476.75 358.181 488.262 355.124C488.599 355.035 488.554 354.543 488.206 354.517L463.226 352.632C462.884 352.606 462.541 352.637 462.21 352.724l-11.51 3.012C450.363 355.824 450.407 356.316 450.755 356.343L475.718 358.275C476.064 358.302 476.413 358.27 476.75 358.181z" fill="#ddd"/><path d="M522.973 366.667 525.977 365.473C526.281 365.352 526.213 363.872 525.886 363.846L520.124 363.397C519.709 363.364 519.293 363.416 518.898 363.548L515.352 364.739C515.033 364.846 515.09 366.344 515.425 366.371L521.577 366.876C522.053 366.915 522.53 366.844 522.973 366.667z" fill="#ddd"/><path d="M514.159 369.981 518.241 368.395C518.547 368.276 518.481 366.794 518.153 366.767L510.063 366.112C509.681 366.081 509.297 366.121 508.93 366.23L503.708 367.786C503.381 367.884 503.43 369.393 503.771 369.422L512.779 370.18C513.248 370.22 513.72 370.152 514.159 369.981z" fill="#ddd"/><path d="M505.841 373.111 510.072 371.682C510.39 371.575 510.334 370.078 509.999 370.05L500.478 369.25C500.158 369.223 499.835 369.246 499.522 369.319L493.655 370.676C493.312 370.756 493.347 372.286 493.698 372.317L504.584 373.262C505.009 373.299 505.437 373.247 505.841 373.111z" fill="#ddd"/><path d="M498.026 376.073 501.322 374.848C501.631 374.733 501.57 373.248 501.241 373.219L493.927 372.575C493.562 372.542 493.194 372.575 492.841 372.672L488.41 373.882C488.077 373.973 488.12 375.489 488.464 375.519L496.673 376.254C497.132 376.295 497.594 376.234 498.026 376.073z" fill="#ddd"/><path d="M488.976 379.068 492.831 377.709C493.145 377.599 493.087 376.108 492.757 376.079L486.53 375.516C486.142 375.481 485.751 375.52 485.377 375.63L480.856 376.963C480.529 377.059 480.576 378.566 480.915 378.598L487.659 379.231C488.104 379.272 488.554 379.217 488.976 379.068z" fill="#ddd"/><path d="M511.703 365.799 515.058 364.627C515.375 364.516 515.314 363.021 514.981 362.995L508.657 362.502C508.274 362.472 507.889 362.514 507.522 362.625L503.699 363.78C503.372 363.878 503.423 365.387 503.763 365.415L510.43 365.962C510.861 365.997 511.295 365.942 511.703 365.799z" fill="#ddd"/><path d="M499.447 364.828 503.021 363.69C503.344 363.587 503.289 362.083 502.951 362.056L496.806 361.577C496.424 361.547 496.04 361.589 495.673 361.699l-3.709 1.118C491.637 362.916 491.688 364.425 492.028 364.452L498.256 364.963C498.658 364.996 499.063 364.95 499.447 364.828z" fill="#ddd"/><path d="M488.147 363.918 491.798 362.816C492.125 362.717 492.074 361.208 491.733 361.181L485.309 360.68C484.98 360.654 484.649 360.681 484.328 360.76L479.991 361.83C479.651 361.914 479.691 363.441 480.04 363.469L487.001 364.04C487.387 364.072 487.776 364.031 488.147 363.918z" fill="#ddd"/><path d="M499.086 368.812 504.235 367.27C504.563 367.172 504.512 365.662 504.171 365.634L496.818 365.038C496.78 365.035 496.741 365.039 496.704 365.05L491.119 366.726C490.792 366.824 490.842 368.333 491.182 368.362L497.939 368.931C498.326 368.963 498.715 368.923 499.086 368.812z" fill="#ddd"/><path d="M486.849 366.745 491.821 365.232C492.147 365.133 492.096 364.656 491.756 364.628L484.22 364.017C483.932 363.994 483.642 364.011 483.359 364.068L476.375 365.475C476.024 365.546 476.053 366.057 476.41 366.087L485.689 366.868C486.08 366.901 486.474 366.859 486.849 366.745z" fill="#ddd"/><path d="M488.829 371.731 494.386 370.374C494.726 370.291 494.688 368.764 494.338 368.734L485.884 368.024C485.523 367.994 485.161 368.027 484.812 368.122L479.827 369.48C479.494 369.571 479.537 371.088 479.881 371.118L487.828 371.808C488.164 371.837 488.502 371.811 488.829 371.731z" fill="#ddd"/><path d="M476.75 358.181 488.262 355.124C488.599 355.035 488.554 354.543 488.206 354.517L463.226 352.632C462.884 352.606 462.541 352.637 462.21 352.724l-11.51 3.012C450.363 355.824 450.407 356.316 450.755 356.343L475.718 358.275C476.064 358.302 476.413 358.27 476.75 358.181z" fill="#000" fill-opacity=".4"/><path d="M522.973 366.667 525.977 365.473C526.281 365.352 526.213 363.872 525.886 363.846L520.124 363.397C519.709 363.364 519.293 363.416 518.898 363.548L515.352 364.739C515.033 364.846 515.09 366.344 515.425 366.371L521.577 366.876C522.053 366.915 522.53 366.844 522.973 366.667z" fill="#000" fill-opacity=".4"/><path d="M514.159 369.981 518.241 368.395C518.547 368.276 518.481 366.794 518.153 366.767L510.063 366.112C509.681 366.081 509.297 366.121 508.93 366.23L503.708 367.786C503.381 367.884 503.43 369.393 503.771 369.422L512.779 370.18C513.248 370.22 513.72 370.152 514.159 369.981z" fill="#000" fill-opacity=".4"/><path d="M505.841 373.111 510.072 371.682C510.39 371.575 510.334 370.078 509.999 370.05L500.478 369.25C500.158 369.223 499.835 369.246 499.522 369.319L493.655 370.676C493.312 370.756 493.347 372.286 493.698 372.317L504.584 373.262C505.009 373.299 505.437 373.247 505.841 373.111z" fill="#000" fill-opacity=".4"/><path d="M498.026 376.073 501.322 374.848C501.631 374.733 501.57 373.248 501.241 373.219L493.927 372.575C493.562 372.542 493.194 372.575 492.841 372.672L488.41 373.882C488.077 373.973 488.12 375.489 488.464 375.519L496.673 376.254C497.132 376.295 497.594 376.234 498.026 376.073z" fill="#000" fill-opacity=".4"/><path d="M488.976 379.068 492.831 377.709C493.145 377.599 493.087 376.108 492.757 376.079L486.53 375.516C486.142 375.481 485.751 375.52 485.377 375.63L480.856 376.963C480.529 377.059 480.576 378.566 480.915 378.598L487.659 379.231C488.104 379.272 488.554 379.217 488.976 379.068z" fill="#000" fill-opacity=".4"/><path d="M511.703 365.799 515.058 364.627C515.375 364.516 515.314 363.021 514.981 362.995L508.657 362.502C508.274 362.472 507.889 362.514 507.522 362.625L503.699 363.78C503.372 363.878 503.423 365.387 503.763 365.415L510.43 365.962C510.861 365.997 511.295 365.942 511.703 365.799z" fill="#000" fill-opacity=".4"/><path d="M499.447 364.828 503.021 363.69C503.344 363.587 503.289 362.083 502.951 362.056L496.806 361.577C496.424 361.547 496.04 361.589 495.673 361.699l-3.709 1.118C491.637 362.916 491.688 364.425 492.028 364.452L498.256 364.963C498.658 364.996 499.063 364.95 499.447 364.828z" fill="#000" fill-opacity=".4"/><path d="M488.147 363.918 491.798 362.816C492.125 362.717 492.074 361.208 491.733 361.181L485.309 360.68C484.98 360.654 484.649 360.681 484.328 360.76L479.991 361.83C479.651 361.914 479.691 363.441 480.04 363.469L487.001 364.04C487.387 364.072 487.776 364.031 488.147 363.918z" fill="#000" fill-opacity=".4"/><path d="M499.086 368.812 504.235 367.27C504.563 367.172 504.512 365.662 504.171 365.634L496.818 365.038C496.78 365.035 496.741 365.039 496.704 365.05L491.119 366.726C490.792 366.824 490.842 368.333 491.182 368.362L497.939 368.931C498.326 368.963 498.715 368.923 499.086 368.812z" fill="#000" fill-opacity=".4"/><path d="M486.849 366.745 491.821 365.232C492.147 365.133 492.096 364.656 491.756 364.628L484.22 364.017C483.932 363.994 483.642 364.011 483.359 364.068L476.375 365.475C476.024 365.546 476.053 366.057 476.41 366.087L485.689 366.868C486.08 366.901 486.474 366.859 486.849 366.745z" fill="#000" fill-opacity=".4"/><path d="M488.829 371.731 494.386 370.374C494.726 370.291 494.688 368.764 494.338 368.734L485.884 368.024C485.523 367.994 485.161 368.027 484.812 368.122L479.827 369.48C479.494 369.571 479.537 371.088 479.881 371.118L487.828 371.808C488.164 371.837 488.502 371.811 488.829 371.731z" fill="#000" fill-opacity=".4"/><path d="M476.75 358.181 488.262 355.124C488.599 355.035 488.554 354.543 488.206 354.517L463.226 352.632C462.884 352.606 462.541 352.637 462.21 352.724l-11.51 3.012C450.363 355.824 450.407 356.316 450.755 356.343L475.718 358.275C476.064 358.302 476.413 358.27 476.75 358.181z" fill="#ddd"/><path d="M522.973 365.637 525.977 364.442C526.281 364.321 526.213 363.872 525.886 363.846L520.124 363.397C519.709 363.364 519.293 363.416 518.898 363.548L515.352 364.739C515.033 364.846 515.09 365.313 515.425 365.34L521.577 365.845C522.053 365.884 522.53 365.813 522.973 365.637z" fill="#ddd"/><path d="M514.159 368.95 518.241 367.364C518.547 367.245 518.481 366.794 518.153 366.767L510.063 366.112C509.681 366.081 509.297 366.121 508.93 366.23L503.708 367.786C503.381 367.884 503.43 368.362 503.771 368.391L512.779 369.149C513.248 369.189 513.72 369.121 514.159 368.95z" fill="#ddd"/><path d="M505.841 372.08 510.072 370.651C510.39 370.544 510.334 370.078 509.999 370.05L500.478 369.25C500.158 369.223 499.835 369.246 499.522 369.319L493.655 370.676C493.312 370.756 493.347 371.255 493.698 371.286L504.584 372.231C505.009 372.268 505.437 372.216 505.841 372.08z" fill="#ddd"/><path d="M498.026 375.042 501.322 373.817C501.631 373.702 501.57 373.248 501.241 373.219L493.927 372.575C493.562 372.542 493.194 372.575 492.841 372.672L488.41 373.882C488.077 373.973 488.12 374.458 488.464 374.488L496.673 375.223C497.132 375.265 497.594 375.203 498.026 375.042z" fill="#ddd"/><path d="M488.976 378.037 492.831 376.678C493.145 376.568 493.087 376.108 492.757 376.079L486.53 375.516C486.142 375.481 485.751 375.52 485.377 375.63L480.856 376.963C480.529 377.059 480.576 377.535 480.915 377.567L487.659 378.2C488.104 378.241 488.554 378.186 488.976 378.037z" fill="#ddd"/><path d="M511.703 364.768 515.058 363.596C515.375 363.485 515.314 363.021 514.981 362.995L508.657 362.502C508.274 362.472 507.889 362.514 507.522 362.625L503.699 363.78C503.372 363.878 503.423 364.356 503.763 364.384L510.43 364.931C510.861 364.966 511.295 364.911 511.703 364.768z" fill="#ddd"/><path d="M499.447 363.797 503.021 362.659C503.344 362.556 503.289 362.083 502.951 362.056L496.806 361.577C496.424 361.547 496.04 361.589 495.673 361.699l-3.709 1.118C491.637 362.916 491.688 363.394 492.028 363.422L498.256 363.932C498.658 363.965 499.063 363.919 499.447 363.797z" fill="#ddd"/><path d="M488.147 362.888 491.798 361.785C492.125 361.686 492.074 361.208 491.733 361.181L485.309 360.68C484.98 360.654 484.649 360.681 484.328 360.76L479.991 361.83C479.651 361.914 479.691 362.41 480.04 362.438L487.001 363.009C487.387 363.041 487.776 363 488.147 362.888z" fill="#ddd"/><path d="M499.086 367.781 504.235 366.239C504.563 366.141 504.512 365.662 504.171 365.634L496.818 365.038C496.78 365.035 496.741 365.039 496.704 365.05L491.119 366.726C490.792 366.824 490.842 367.302 491.182 367.331L497.939 367.9C498.326 367.932 498.715 367.892 499.086 367.781z" fill="#ddd"/><path d="M486.849 366.745 491.821 365.232C492.147 365.133 492.096 364.656 491.756 364.628L484.22 364.017C483.932 363.994 483.642 364.011 483.359 364.068L476.375 365.475C476.024 365.546 476.053 366.057 476.41 366.087L485.689 366.868C486.08 366.901 486.474 366.859 486.849 366.745z" fill="#ddd"/><path d="M488.829 370.7 494.386 369.343C494.726 369.26 494.688 368.764 494.338 368.734L485.884 368.024C485.523 367.994 485.161 368.027 484.812 368.122L479.827 369.48C479.494 369.571 479.537 370.057 479.881 370.087L487.828 370.777C488.164 370.806 488.502 370.78 488.829 370.7z" fill="#ddd"/><path d="M352.145 364.099l-22.219-96.322C329.389 265.447 331.214 263.244 333.604 263.339L467.108 268.647C470.436 268.779 473.246 271.161 473.921 274.423l20.937 101.073C495.347 377.859 493.436 380.031 491.03 379.847L358.658 369.7C355.496 369.458 352.858 367.189 352.145 364.099z" fill="#ddd"/><path d="M352.145 364.099l-22.219-96.322C329.389 265.447 331.214 263.244 333.604 263.339L467.108 268.647C470.436 268.779 473.246 271.161 473.921 274.423l20.937 101.073C495.347 377.859 493.436 380.031 491.03 379.847L358.658 369.7C355.496 369.458 352.858 367.189 352.145 364.099z" fill="#000" fill-opacity=".5"/><path d="M352.138 364.117 329.832 268.304C329.398 266.439 330.859 264.672 332.772 264.747L465.919 270.011C469.256 270.142 472.072 272.536 472.739 275.809l20.507 100.596C493.631 378.294 492.101 380.026 490.179 379.877L358.643 369.703C355.488 369.459 352.856 367.199 352.138 364.117z" fill="#ddd"/><path d="M167.938 197.736v23.938C167.938 225.221 165.101 228.058 161.555 228.058H127.153C123.607 228.058 120.771 225.221 120.771 221.674V197.736C120.771 194.189 123.607 191.352 127.153 191.352h34.402C165.101 191.175 167.938 194.189 167.938 197.736z" fill="#2dbfaf"/><path d="M139.741 203.409v13.3C139.741 217.772 140.805 218.304 141.691 217.773L151.267 211.389C151.976 210.857 151.976 209.793 151.267 209.261L141.691 202.345C140.982 201.813 139.741 202.345 139.741 203.409z" fill="#ddd"/><path d="M227.478 197.736v23.938C227.478 225.221 224.641 228.058 221.095 228.058H186.693C183.147 228.058 180.311 225.221 180.311 221.674V197.736C180.311 194.189 183.147 191.352 186.693 191.352h34.402C224.641 191.175 227.478 194.189 227.478 197.736z" fill="#2dbfaf"/><path d="M199.281 203.409v13.3C199.281 217.772 200.345 218.304 201.232 217.773L210.807 211.389C211.516 210.857 211.516 209.793 210.807 209.261L201.232 202.345C200.522 201.813 199.281 202.345 199.281 203.409z" fill="#ddd"/><path d="M287.018 197.736v23.938C287.018 225.221 284.181 228.058 280.635 228.058H246.233C242.687 228.058 239.85 225.221 239.85 221.674V197.736C239.85 194.189 242.687 191.352 246.233 191.352h34.402C284.181 191.175 287.018 194.189 287.018 197.736z" fill="#2dbfaf"/><path d="M258.821 203.409v13.3C258.821 217.772 259.885 218.304 260.771 217.773L270.347 211.389C271.056 210.857 271.056 209.793 270.347 209.261L260.771 202.345C260.062 201.813 258.821 202.345 258.821 203.409z" fill="#ddd"/><path d="M346.558 197.736v23.938C346.558 225.221 343.721 228.058 340.175 228.058H305.773C302.227 228.058 299.39 225.221 299.39 221.674V197.736C299.39 194.189 302.227 191.352 305.773 191.352h34.402C343.721 191.175 346.558 194.189 346.558 197.736z" fill="#2dbfaf"/><path d="M318.361 203.409v13.3C318.361 217.772 319.425 218.304 320.312 217.773L329.887 211.389C330.596 210.857 330.596 209.793 329.887 209.261L320.312 202.345C319.602 201.813 318.361 202.345 318.361 203.409z" fill="#ddd"/><path d="M374.32 151.232C369.032 151.232 368.231 154.116 368.231 156.681 368.231 158.764 368.551 160.847 368.872 162.931 369.192 165.014 369.513 167.097 369.513 169.181 369.513 176.072 365.025 178.956 358.775 178.956H357.173V174.79H358.455C362.782 174.79 364.384 172.386 364.384 168.379 364.384 166.617 364.224 164.854 363.904 163.091 363.583 161.168 363.423 159.405 363.423 157.482 363.423 152.674 365.506 150.27 368.711 149.469V149.309C365.346 148.507 363.263 145.943 363.423 141.136 363.423 139.052 363.583 137.289 363.904 135.527 364.224 133.604 364.384 132.001 364.384 130.238c0-4.167-1.762-6.41-5.92900000000003-6.41H357.173v-4.167H358.775c6.25.0 10.738 2.72499999999999 10.738 10.257C369.513 132.001 369.192 134.084 368.872 136.007 368.551 138.091 368.231 140.014 368.231 142.097 368.231 144.341 369.032 147.546 374.32 147.546V151.232z" fill="#2dbfaf"/><path d="M87.1274 94.6581C92.4159 94.6581 93.2172 91.7735 93.2172 89.2094 93.2172 87.126 92.8968 85.0427 92.5762 82.9593 92.2557 80.876 91.9352 78.7926 91.9352 76.7093 91.9352 69.8182 96.4224 66.9336 102.672 66.9336H104.275V71.1003H102.993C98.666 71.1003 97.0634 73.5041 97.0634 77.5106 97.0634 79.2734 97.2237 81.0363 97.5442 82.7991 97.8647 84.7222 98.0249 86.485 98.0249 88.4081 98.0249 93.2158 95.9416 95.6197 92.7365 96.421V96.5812C96.1019 97.3825 98.1852 99.9466 98.0249 104.754 98.0249 106.838 97.8647 108.601 97.5442 110.363 97.2237 112.286 97.0634 113.889 97.0634 115.652c0 4.167 1.7629 6.41 5.92959999999999 6.41H104.275v4.327H102.672C96.4224 126.389 91.9352 123.665 91.9352 116.133 91.9352 114.049 92.2557 111.966 92.5762 110.043 92.8968 107.96 93.2172 106.036 93.2172 103.953 93.2172 101.709 92.4159 98.5043 87.1274 98.5043V94.6581z" fill="#2dbfaf"/><path d="M346.347 119.313H276.138V123.85h70.209V119.313z" fill="#2dbfaf"/><path d="M346.347 130.699H276.138V135.236h70.209V130.699z" fill="#2dbfaf"/><path d="M346.347 142.086H276.138v4.536h70.209v-4.536z" fill="#2dbfaf"/><path d="M259.642 119.313H224.486V123.85h35.156V119.313z" fill="#2dbfaf"/><path d="M259.642 130.699H224.486V135.236h35.156V130.699z" fill="#2dbfaf"/><path d="M259.642 142.086H224.486v4.536h35.156v-4.536z" fill="#2dbfaf"/><path d="M346.347 65.8809H224.486v4.5363H346.347V65.8809z" fill="#2dbfaf"/><path d="M347.792 166.325H120.771V174.985H347.792V166.325z" fill="#2dbfaf"/><path d="M346.347 79.0557H224.486V83.592H346.347V79.0557z" fill="#2dbfaf"/><path d="M346.347 92.2314H224.486V96.7677H346.347V92.2314z" fill="#2dbfaf"/><path d="M346.347 105.406H224.486V109.943H346.347V105.406z" fill="#2dbfaf"/><path opacity=".87" d="M162.937 112.749H120.771v37.218h42.166V112.749z" fill="#2dbfaf"/><path opacity=".87" d="M213.661 112.091H171.494v37.218h42.167V112.091z" fill="#2dbfaf"/><path opacity=".87" d="M213.661 65.8809h-92.89V103.099h92.89V65.8809z" fill="#2dbfaf"/><path d="M336.205 486.864C318.674 482.293 304.46 480.667 292.914 465.473 286.759 457.373 281.269 440.801 289.064 423.143 293.903 412.179 310.712 409.85 328.743 415.844 346.774 421.838 356.773 430.983 356.773 430.983s41.079 26.819 44.809 28.399C411.786 463.706 412.275 463.636 420.941 466.982 429.608 470.329 427.926 464.055 432.602 458.519 436.441 453.974 446.483 454.681 452.727 461.017 461.258 469.674 462.52 474.983 470.214 485.457 476.738 494.339 491.178 490.33 499.776 495.284 505.834 498.774 506.618 503.01 509.079 507.923 511.318 512.392 514.881 511.481 518.101 518.605 520.677 524.304 519.649 531.693 516.854 532.161 511.688 533.026 504.787 521.707 491.688 515.413 482.252 510.879 474.915 509.837 453.952 507.06 423.625 503.041 437.806 499.597 401.191 494.876 364.576 490.155 355.703 491.949 336.205 486.864z" fill="#fbbabd"/><path d="M336.595 489.311C319.064 484.74 302.388 481.146 290.842 465.952 284.687 457.852 280.017 439.698 288.394 423.331c4.839-10.964 23.479-15.23 40.349-8.517C345.613 421.527 352.467 427.037 356.772 429.952s41.08 26.82 44.809 28.4C411.786 462.675 412.275 462.605 420.941 465.952 423.017 466.753 424.499 467.003 425.617 466.843 427.945 469.519 432.602 471.4 432.602 480.679 432.602 489.958 428.335 497.349 426.007 502.072 421.543 500.599 414.946 499.046 401.581 497.323 364.966 492.602 356.093 494.396 336.595 489.311z" fill="#2dbfaf"/><path d="M336.595 489.311C319.064 484.74 302.388 481.146 290.842 465.952 284.687 457.852 280.017 439.698 288.394 423.331c4.839-10.964 23.479-15.23 40.349-8.517C345.613 421.527 352.467 427.037 356.772 429.952s41.08 26.82 44.809 28.4C411.786 462.675 412.275 462.605 420.941 465.952 423.017 466.753 424.499 467.003 425.617 466.843 427.945 469.519 432.602 471.4 432.602 480.679 432.602 489.958 428.335 497.349 426.007 502.072 421.543 500.599 414.946 499.046 401.581 497.323 364.966 492.602 356.093 494.396 336.595 489.311z" fill="#000" fill-opacity=".3"/><path d="M457.852 550.528C477.323 562.531 499.606 565.477 522.803 560.838 533.993 558.6 546.441 553.522 549.112 533.049 551.782 512.576 541.379 499.542 519.729 494.387 498.078 489.232 476.943 489.232 476.943 489.232S456.839 486.225 442.406 484.809C427.972 483.393 406.433 481.367 396.175 479.533 385.917 477.699 391.181 472.662 389.917 464.632 388.88 458.04 378.84 452.875 369.166 455.318 355.948 458.655 351.648 463.012 338.175 468.578 326.751 473.299 315.236 461.053 304.109 460.8 296.269 460.622 293.052 464.228 287.833 467.507 283.085 470.49 280.199 467.543 272.966 472.501 267.18 476.467 263.867 484.15 266.274 486.225 270.724 490.061 283.929 483.222 300.152 484.809 311.839 485.952 319.481 489.222 341.199 498.756 372.619 512.55 364.032 495.408 398.883 517.774c34.244 21.976 39.729 20.894 58.969 32.754z" fill="#ebb4b7"/><path d="M458.657 552.628C478.129 564.631 500.412 566.546 523.609 561.907 534.798 559.669 547.246 554.591 549.917 533.087 552.588 511.583 542.185 498.549 520.534 493.394c-21.65-5.154-42.785-5.154-42.785-5.154S457.645 485.232 443.211 483.816C428.777 482.4 407.238 480.374 396.98 478.54 395.047 478.195 393.665 477.735 392.686 477.164 390.019 478.38 384.324 482.298 382.88 488.24 381.437 494.181 380.816 504.903 380.686 508.49 385.235 510.263 391.161 513.371 399.688 518.843 433.932 540.819 439.418 540.768 458.657 552.628z" fill="#2dbfaf"/><path d="M458.657 552.629C478.129 564.632 500.412 566.547 523.609 561.908 534.798 559.67 547.246 554.591 549.917 533.088 552.588 511.584 542.185 498.55 520.534 493.395 498.884 488.24 477.749 488.24 477.749 488.24S457.645 485.233 443.211 483.817C428.777 482.4 407.238 480.375 396.98 478.541 395.047 478.195 393.665 477.736 392.686 477.164 390.019 478.38 384.324 482.298 382.88 488.24 381.437 494.182 380.816 504.903 380.686 508.49 385.235 510.264 391.161 513.371 399.688 518.843 433.932 540.82 439.418 540.769 458.657 552.629z" fill="#000" fill-opacity=".1"/></svg>